<svg width="36" height="34" viewBox="0 0 36 34" fill="none" xmlns="http://www.w3.org/2000/svg">
<path d="M24.1839 9.14247C23.8107 8.84788 23.4143 8.57829 22.9982 8.33905C21.5268 7.48741 19.8196 7 17.9982 7C16.1768 7 14.5054 7.4767 13.0429 8.31227C13.0143 8.32833 12.9982 8.35869 12.9982 8.39082V16.9982C12.9982 17.7641 13.1714 18.4908 13.4804 19.1407C13.7268 19.6602 14.0607 20.1316 14.4625 20.5333C14.6304 20.7011 14.8089 20.8565 14.9982 20.9993C15.0571 21.0421 15.1411 20.9993 15.1411 20.9261V16.9982C15.1411 15.3771 16.4982 14.0666 18.1393 14.1452C19.675 14.2184 20.8554 15.5431 20.8554 17.0803V20.9243C20.8554 20.9975 20.9393 21.0404 20.9982 20.9975C21.6429 20.5137 22.1679 19.8781 22.5161 19.1425C22.825 18.4926 22.9982 17.7659 22.9982 17C22.9982 15.3021 22.15 13.8006 20.8554 12.8989C20.0446 12.3312 19.0607 12.0009 17.9982 12.0009C16.9946 12.0009 16.0607 12.2955 15.2786 12.8043C15.2196 12.8436 15.1411 12.8025 15.1411 12.7311V9.74415C15.1411 9.70666 15.1643 9.67274 15.1982 9.66024C16.0679 9.32816 17.0125 9.14605 17.9982 9.14605C18.9839 9.14605 19.9696 9.33708 20.8554 9.68345C21.6375 9.99054 22.3607 10.419 22.9982 10.9475C24.7429 12.3883 25.8554 14.5683 25.8554 17.0018C25.8554 17.7445 25.7518 18.4622 25.5589 19.1443C25.1179 20.6958 24.2107 22.0545 22.9982 23.0561C22.3607 23.5845 21.6375 24.013 20.8554 24.3201C19.9696 24.6665 19.0054 24.8575 17.9982 24.8575H13.3875C13.3071 24.8575 13.2679 24.7611 13.325 24.7058L14.0893 23.9416C14.1304 23.9006 14.1214 23.8309 14.0696 23.8024C13.6911 23.5845 13.3339 23.3346 13 23.0561C12.8071 22.8989 12.6232 22.7311 12.4464 22.5544C11.7911 21.8973 11.25 21.1278 10.8571 20.2744C10.6893 19.912 10.55 19.5335 10.4393 19.1443C10.2464 18.4622 10.1429 17.7445 10.1429 17.0018C10.1429 15.8377 10.3982 14.729 10.8571 13.7327V10.2298C10.8571 10.1494 10.7571 10.1084 10.7018 10.1673C9.025 11.9527 8 14.3576 8 17.0018C8 19.3389 8.80179 21.4867 10.1429 23.1882C10.3696 23.4756 10.6125 23.7506 10.8679 24.0095V24.1344L8.15357 26.8482C8.09821 26.9036 8.1375 27 8.21607 27H18C19.8214 27 21.5286 26.5126 23 25.661C23.4161 25.4217 23.8125 25.1521 24.1857 24.8575C24.8071 24.3683 25.3679 23.8077 25.8571 23.1882C27.1982 21.4867 28 19.3389 28 17.0018C28 13.8149 26.5089 10.9761 24.1857 9.14605L24.1839 9.14247Z" fill="#1A9DFF"/>
</svg>
