<svg xmlns="http://www.w3.org/2000/svg" width="287" height="194" fill="none" viewBox="0 0 287 194"><rect width="286" height="194" x=".333" fill="#fff" rx="8"/><rect width="262" height="172" x="12.334" y="11" fill="#F1F5F9" rx="4"/><rect width="238" height="148" x="24.334" y="23" fill="#fff" rx="4"/><path fill="#64748B" d="M24.334 27a4 4 0 0 1 4-4h229.999a4 4 0 0 1 4 4v24h-238z"/><g clip-path="url(#clip0_8012_10946)"><path fill="#fff" d="M120.333 30.5a.5.5 0 0 1 .5-.5h1.5a.5.5 0 0 1 .485.379l.405 1.621h11.61a.5.5 0 0 1 .49.598l-1 5a.495.495 0 0 1-.465.401l-9.397.472.287 1.529h8.585a.501.501 0 1 1 0 1h-9a.5.5 0 0 1-.491-.408l-1.499-7.985-.4-1.607h-1.11a.5.5 0 0 1-.5-.5m3.102 2.5.84 4.479 9.144-.459.804-4.02zm1.898 8a2 2 0 1 0 0 4 2 2 0 0 0 0-4m7 0a2 2 0 1 0 0 4 2 2 0 0 0 0-4m-7 1a1.002 1.002 0 0 1 .708 1.707 1.002 1.002 0 0 1-1.708-.707 1 1 0 0 1 1-1m7 0a1.002 1.002 0 0 1 .708 1.707 1.002 1.002 0 0 1-1.708-.707 1 1 0 0 1 1-1"/></g><path fill="#fff" d="M148.792 35.828h-1.866a1.8 1.8 0 0 0-.209-.643 1.6 1.6 0 0 0-.405-.486 1.8 1.8 0 0 0-.571-.307 2.2 2.2 0 0 0-.694-.107q-.678 0-1.181.337-.503.333-.78.972-.276.635-.277 1.542 0 .933.277 1.569.282.634.784.958.503.324 1.164.324.37 0 .686-.098.32-.097.567-.285.246-.192.409-.465.166-.273.23-.622l1.866.009q-.072.6-.362 1.159-.285.554-.771.993-.482.435-1.151.69a4.2 4.2 0 0 1-1.504.251q-1.167 0-2.088-.528-.916-.528-1.449-1.53-.528-1.001-.528-2.425 0-1.427.537-2.429.536-1.001 1.457-1.525.92-.529 2.071-.529.758 0 1.406.214.653.213 1.155.622.503.405.818.992.32.589.409 1.347m3.156 5.796a2.7 2.7 0 0 1-1.117-.218 1.8 1.8 0 0 1-.775-.652q-.281-.434-.281-1.082 0-.547.2-.916.2-.371.545-.597t.784-.34q.444-.117.929-.163.571-.06.921-.11.35-.056.507-.163a.36.36 0 0 0 .158-.315v-.025q0-.406-.256-.627-.252-.22-.716-.221-.49 0-.78.217a1 1 0 0 0-.383.537l-1.679-.136a2.3 2.3 0 0 1 .503-1.032 2.4 2.4 0 0 1 .967-.673q.597-.24 1.381-.239.545 0 1.044.128.503.128.89.397.393.268.618.69.226.417.226 1.001V41.5h-1.722v-.908h-.051a1.9 1.9 0 0 1-.422.541 1.9 1.9 0 0 1-.635.363 2.6 2.6 0 0 1-.856.128m.52-1.253q.4 0 .707-.158.307-.162.482-.435.174-.272.174-.617v-.695a1 1 0 0 1-.234.102 4 4 0 0 1-.328.081q-.183.034-.367.064l-.332.047a2.3 2.3 0 0 0-.558.15.9.9 0 0 0-.371.276.68.68 0 0 0-.132.426q0 .37.268.567.273.192.691.192m4.574 1.129v-6.545h1.76v1.142h.068q.18-.61.601-.92.422-.316.972-.316a2.8 2.8 0 0 1 .571.064v1.61a2.4 2.4 0 0 0-.354-.068q-.225-.03-.413-.03-.4 0-.716.175a1.3 1.3 0 0 0-.494.477q-.18.307-.179.708V41.5zm8.72-6.545v1.363h-3.942v-1.363zm-3.047-1.569h1.816v6.103a.8.8 0 0 0 .076.392q.076.135.213.191a.9.9 0 0 0 .324.056q.128 0 .256-.022l.196-.038.285 1.351q-.135.042-.383.098-.247.06-.601.072-.656.026-1.151-.174a1.6 1.6 0 0 1-.762-.622q-.273-.423-.269-1.066z"/><g clip-path="url(#clip1_8012_10946)"><path fill="url(#paint0_linear_8012_10946)" d="M50.333 66a5 5 0 1 1-9.999 0 5 5 0 0 1 10 0m8.45 8.106a1 1 0 0 0-1.154.186l-7.42 9.42-5.32-5.544a1 1 0 0 0-1.26.124L36.337 87v4a2 2 0 0 0 2 2h28a2 2 0 0 0 2-2v-9z"/></g><rect width="72" height="6" x="80.334" y="61" fill="#94A3B8" rx="3"/><rect width="92" height="2" x="80.334" y="71" fill="#CBD5E1" rx="1"/><rect width="92" height="2" x="80.334" y="77" fill="#CBD5E1" rx="1"/><rect width="10" height="10" x="80.334" y="83" fill="#64748B" rx="1"/><path fill="#fff" d="M87.834 87.5v1h-5v-1z"/><rect width="14" height="10" x="92.334" y="83" fill="#64748B" rx="1"/><path fill="#fff" d="M97.503 90.226q-.528 0-.918-.27t-.6-.768-.21-1.182.21-1.182q.216-.504.6-.774.39-.276.918-.276.534 0 .918.276.39.27.6.768.216.498.216 1.188 0 .684-.21 1.182t-.6.768-.924.27m0-.594q.51 0 .786-.42t.276-1.206q0-.528-.126-.894-.12-.366-.36-.552a.88.88 0 0 0-.576-.192.9.9 0 0 0-.576.192q-.234.186-.36.552-.12.366-.12.894 0 .786.276 1.206a.88.88 0 0 0 .78.42M99.82 90.13q0-.48.144-.858a1.9 1.9 0 0 1 .492-.702q.348-.324.96-.648.294-.15.468-.276a.9.9 0 0 0 .258-.27.7.7 0 0 0 .078-.336.64.64 0 0 0-.09-.348.57.57 0 0 0-.252-.234.9.9 0 0 0-.426-.09q-.408 0-.648.222-.234.216-.294.624l-.672-.042q.072-.642.486-1.02.42-.378 1.128-.378.456 0 .774.162.324.156.492.438.174.282.174.654 0 .324-.108.558a1.25 1.25 0 0 1-.36.438 4.6 4.6 0 0 1-.684.426q-.552.294-.834.582-.282.282-.3.504h2.286v.594z"/><rect width="10" height="10" x="108.333" y="83" fill="#64748B" rx="1"/><path fill="#fff" d="M113.833 87.5h2v1h-2v2h-1v-2h-2v-1h2v-2h1z"/><path fill="#94A3B8" d="M245.123 78.81h-9.579v10.285c0 .257.128.546.353.779s.504.364.752.364h7.369c.248 0 .528-.132.752-.364.225-.233.353-.522.353-.779zm-6.632 8v-4.572c0-.21.165-.38.369-.38s.368.17.368.38v4.572c0 .21-.165.38-.368.38a.375.375 0 0 1-.369-.38m2.948 0v-4.572c0-.21.165-.38.368-.38.204 0 .369.17.369.38v4.572c0 .21-.165.38-.369.38a.375.375 0 0 1-.368-.38m1.473-9.905c0-.257-.128-.546-.352-.779-.225-.232-.504-.364-.753-.364h-2.947c-.249 0-.528.132-.753.364-.224.233-.352.522-.352.779v1.143h5.157zm.737 1.143h3.316c.204 0 .368.17.368.38 0 .211-.164.382-.368.382h-1.105v10.285c0 .505-.241.978-.569 1.317-.328.34-.785.588-1.273.588h-7.369c-.488 0-.945-.249-1.273-.588s-.569-.812-.569-1.317V78.81h-1.105a.375.375 0 0 1-.369-.381c0-.21.165-.381.369-.381h3.316v-1.143c0-.505.24-.978.568-1.317.328-.34.786-.588 1.274-.588h2.947c.488 0 .946.249 1.274.588s.568.812.568 1.317z"/><g clip-path="url(#clip2_8012_10946)"><path fill="url(#paint1_linear_8012_10946)" d="M50.333 110a5.002 5.002 0 0 1-8.535 3.536A5.002 5.002 0 0 1 45.333 105a5 5 0 0 1 5 5m8.45 8.106a.995.995 0 0 0-1.154.186l-7.42 9.42-5.32-5.544a1 1 0 0 0-1.26.124L36.337 131v4a2 2 0 0 0 2 2h28a2 2 0 0 0 1.415-.586 2 2 0 0 0 .585-1.414v-9z"/></g><rect width="72" height="6" x="80.334" y="105" fill="#94A3B8" rx="3"/><rect width="92" height="2" x="80.334" y="115" fill="#CBD5E1" rx="1"/><rect width="92" height="2" x="80.334" y="121" fill="#CBD5E1" rx="1"/><rect width="10" height="10" x="80.334" y="127" fill="#64748B" rx="1"/><path fill="#fff" d="M87.834 131.5v1h-5v-1z"/><rect width="14" height="10" x="92.334" y="127" fill="#64748B" rx="1"/><path fill="#fff" d="M97.503 134.226q-.528 0-.918-.27t-.6-.768-.21-1.182.21-1.182q.216-.504.6-.774.39-.276.918-.276.534 0 .918.276.39.27.6.768.216.498.216 1.188 0 .684-.21 1.182t-.6.768-.924.27m0-.594q.51 0 .786-.42t.276-1.206q0-.528-.126-.894-.12-.366-.36-.552a.88.88 0 0 0-.576-.192.9.9 0 0 0-.576.192q-.234.186-.36.552-.12.366-.12.894 0 .786.276 1.206a.88.88 0 0 0 .78.42M99.82 134.13q0-.48.144-.858a1.9 1.9 0 0 1 .492-.702q.348-.324.96-.648.294-.15.468-.276a.9.9 0 0 0 .258-.27.7.7 0 0 0 .078-.336.64.64 0 0 0-.09-.348.57.57 0 0 0-.252-.234.9.9 0 0 0-.426-.09q-.408 0-.648.222-.234.216-.294.624l-.672-.042q.072-.642.486-1.02.42-.378 1.128-.378.456 0 .774.162.324.156.492.438.174.282.174.654 0 .324-.108.558a1.25 1.25 0 0 1-.36.438 4.6 4.6 0 0 1-.684.426q-.552.294-.834.582-.282.282-.3.504h2.286v.594z"/><rect width="10" height="10" x="108.333" y="127" fill="#64748B" rx="1"/><path fill="#fff" d="M113.833 131.5h2v1h-2v2h-1v-2h-2v-1h2v-2h1z"/><path fill="#94A3B8" d="M245.123 122.81h-9.579v10.285c0 .257.128.546.353.779s.504.364.752.364h7.369c.248 0 .528-.132.752-.364.225-.233.353-.522.353-.779zm-6.632 8v-4.572c0-.21.165-.381.369-.381s.368.171.368.381v4.572c0 .21-.165.38-.368.38a.374.374 0 0 1-.369-.38m2.948 0v-4.572c0-.21.165-.381.368-.381.204 0 .369.171.369.381v4.572c0 .21-.165.38-.369.38a.374.374 0 0 1-.368-.38m1.473-9.905c0-.257-.128-.546-.352-.779-.225-.232-.504-.364-.753-.364h-2.947c-.249 0-.528.132-.753.364-.224.233-.352.522-.352.779v1.143h5.157zm.737 1.143h3.316c.204 0 .368.17.368.381 0 .21-.164.381-.368.381h-1.105v10.285c0 .505-.241.978-.569 1.317s-.785.588-1.273.588h-7.369c-.488 0-.945-.249-1.273-.588s-.569-.812-.569-1.317V122.81h-1.105a.375.375 0 0 1-.369-.381c0-.211.165-.381.369-.381h3.316v-1.143c0-.505.24-.978.568-1.317s.786-.588 1.274-.588h2.947c.488 0 .946.249 1.274.588s.568.812.568 1.317z"/><rect width="48" height="12" x="202.333" y="149" fill="#0093E5" rx="4"/><rect width="18" height="2" x="217.333" y="154" fill="#D9D9D9" rx="1"/><defs><clipPath id="clip0_8012_10946"><path fill="#fff" d="M120.333 29h16v16h-16z"/></clipPath><clipPath id="clip1_8012_10946"><path fill="#fff" d="M36.334 61h32v32h-32z"/></clipPath><clipPath id="clip2_8012_10946"><path fill="#fff" d="M36.334 105h32v32h-32z"/></clipPath><linearGradient id="paint0_linear_8012_10946" x1="52.337" x2="52.337" y1="61" y2="93" gradientUnits="userSpaceOnUse"><stop stop-color="#CBD5E1"/><stop offset="1" stop-color="#94A3B8"/></linearGradient><linearGradient id="paint1_linear_8012_10946" x1="52.337" x2="52.337" y1="105" y2="137" gradientUnits="userSpaceOnUse"><stop stop-color="#CBD5E1"/><stop offset="1" stop-color="#94A3B8"/></linearGradient></defs></svg>