<svg width="24" height="24" viewBox="0 0 24 24" fill="none" xmlns="http://www.w3.org/2000/svg">
<path fill-rule="evenodd" clip-rule="evenodd" d="M16.0967 18.0061C16.472 17.9764 16.8481 18.0558 17.1807 18.2336L17.3027 18.3039C17.5809 18.4792 17.8127 18.7223 17.9756 19.011L17.9951 19.0608C18.023 19.1777 17.9281 19.2938 17.7969 19.2942L16.3447 19.2932C16.2587 19.2942 16.1762 19.3296 16.1152 19.3908C16.0542 19.4524 16.0195 19.5363 16.0186 19.6233V20.3772C16.0195 20.4641 16.0543 20.5471 16.1152 20.6086C16.1764 20.6703 16.2592 20.7054 16.3457 20.7063L17.7959 20.7073C17.9458 20.7068 18.0485 20.8581 17.9746 20.9895C17.7885 21.3193 17.5132 21.589 17.1807 21.7668L17.0537 21.8293C16.7539 21.963 16.425 22.0203 16.0967 21.9944C15.7213 21.9647 15.3616 21.8278 15.0606 21.5998C14.7597 21.3719 14.5292 21.0613 14.3965 20.7063H9.60352C9.47077 21.0613 9.24034 21.3719 8.93946 21.5998C8.63841 21.8278 8.27872 21.9647 7.90333 21.9944C7.57497 22.0203 7.24616 21.963 6.9463 21.8293L6.81934 21.7668C6.48684 21.589 6.21148 21.3193 6.0254 20.9895C5.95151 20.8582 6.05427 20.7068 6.20411 20.7073L7.65431 20.7063C7.74079 20.7054 7.82362 20.6703 7.88477 20.6086C7.94569 20.5471 7.98052 20.4641 7.98145 20.3772V19.6233C7.98047 19.5363 7.94582 19.4524 7.88477 19.3908C7.82379 19.3297 7.74133 19.2942 7.65528 19.2932L6.20313 19.2942C6.07192 19.2938 5.97698 19.1777 6.00489 19.0608L6.02442 19.011C6.18734 18.7223 6.41914 18.4792 6.69727 18.3039L6.81934 18.2336C7.15192 18.0558 7.52804 17.9764 7.90333 18.0061C8.27842 18.0358 8.6376 18.1729 8.93849 18.4006C9.20169 18.5999 9.41165 18.8623 9.54884 19.1623L9.60352 19.2942H14.3965L14.4512 19.1623C14.5884 18.8623 14.7983 18.6 15.0615 18.4006C15.3624 18.1729 15.7216 18.0358 16.0967 18.0061Z" fill="black"/>
<path d="M12 12C14.7614 12 17 9.76142 17 7C17 4.23858 14.7614 2 12 2C9.23858 2 7 4.23858 7 7C7 9.76142 9.23858 12 12 12ZM12 12C14.6522 12 17.1957 13.0536 19.0711 14.9289C20.9464 16.8043 22 19.3478 22 22M12 12C9.34784 12 6.8043 13.0536 4.92893 14.9289C3.05357 16.8043 2 19.3478 2 22" stroke="black" stroke-width="1.5" stroke-linecap="round" stroke-linejoin="round"/>
</svg>
