<svg xmlns="http://www.w3.org/2000/svg" width="286" height="194" fill="none" viewBox="0 0 286 194"><rect width="286" height="194" fill="#fff" rx="8"/><rect width="262" height="172" x="12" y="11" fill="#F1F5F9" rx="4"/><g opacity=".25"><rect width="10" height="10" x="18" y="18" fill="#CBD5E1" rx="5"/><rect width="24" height="6" x="30" y="20" fill="#CBD5E1" rx="3"/><path fill="#fff" d="M194.442 18H91.558c-1.137 0-2.058 1.12-2.058 2.5v5c0 1.38.921 2.5 2.058 2.5h102.884c1.137 0 2.058-1.12 2.058-2.5v-5c0-1.38-.921-2.5-2.058-2.5"/><path fill="#F0F2F7" d="M194.322 25.935a.362.362 0 0 1-.582 0l-2.328-2.828a.58.58 0 0 1 0-.707.362.362 0 0 1 .582 0l2.328 2.828a.58.58 0 0 1 0 .707"/><path fill="#F0F2F7" d="M191.411 24.9c1.137 0 2.058-1.12 2.058-2.502 0-1.38-.921-2.5-2.058-2.5s-2.058 1.12-2.058 2.5c0 1.381.922 2.501 2.058 2.501"/><path fill="#fff" d="M191.411 24.148c.796 0 1.44-.783 1.44-1.75 0-.966-.644-1.75-1.44-1.75s-1.44.784-1.44 1.75c0 .967.645 1.75 1.44 1.75"/><rect width="36" height="12" x="232" y="17" fill="#0093E5" rx="4"/><rect width="13.5" height="2" x="243.25" y="22" fill="#D9D9D9" rx="1"/></g><g opacity=".25"><g clip-path="url(#clip0_8012_16668)"><path fill="url(#paint0_linear_8012_16668)" d="M42.5 49.75a8.75 8.75 0 1 1-17.5 0 8.75 8.75 0 0 1 17.5 0m14.787 14.185a1.75 1.75 0 0 0-2.02.326L42.284 80.746l-9.31-9.702a1.75 1.75 0 0 0-2.205.217L18.007 86.5v7a3.5 3.5 0 0 0 3.5 3.5h49a3.5 3.5 0 0 0 3.5-3.5V77.75z"/></g><rect width="96" height="8" x="86" y="43" fill="#94A3B8" rx="4"/><rect width="144" height="6" x="86" y="57" fill="#CBD5E1" rx="3"/><rect width="144" height="6" x="86" y="69" fill="#CBD5E1" rx="3"/><rect width="48" height="8" x="86" y="87" fill="#94A3B8" rx="4"/><rect width="18" height="2" x="101" y="92" fill="#D9D9D9" rx="1"/></g><g opacity=".25"><path fill="#CBD5E1" d="M75.648 109h35.909a2.244 2.244 0 0 1 2.244 2.24v31.36H73.404v-31.36a2.244 2.244 0 0 1 2.244-2.24"/><path fill="#fff" d="M73.404 142.6H113.8v20.16a2.244 2.244 0 0 1-2.244 2.24H75.648a2.244 2.244 0 0 1-2.244-2.24z"/><path fill="#94A3B8" d="M109.312 148.199h-31.42a1.12 1.12 0 1 1 0-2.24h31.42a1.12 1.12 0 1 1 0 2.24"/><path fill="#CBD5E1" d="M102.579 152.679H77.892a1.12 1.12 0 0 1-1.121-1.119 1.12 1.12 0 0 1 1.121-1.119h24.687a1.12 1.12 0 1 1 0 2.238"/><path fill="#0093E5" d="M93.602 157.16h-15.71a1.12 1.12 0 1 1 0-2.239h15.71a1.12 1.12 0 1 1 0 2.239"/><path fill="#FFC800" d="m78.312 159.456.381.737.853.117-.617.575.145.811-.762-.384-.763.384.145-.811-.616-.575.852-.117zM82.464 159.456l.382.737.853.118-.618.574.146.811-.763-.384-.763.384.146-.811-.618-.574.854-.118zM86.617 159.456l.38.737.853.118-.617.574.145.811-.761-.384-.763.384.145-.811-.617-.574.852-.118zM90.768 159.456l.382.737.853.118-.618.574.146.811-.763-.384-.763.384.146-.811-.617-.574.853-.118zM96.154 160.311l-.853-.118-.38-.737-.382.737-.853.118.617.574-.146.811.763-.383.763.383-.146-.811zm-1.14.814a.21.21 0 0 0-.188 0l-.388.194.072-.397a.21.21 0 0 0-.064-.191l-.294-.273.415-.058a.21.21 0 0 0 .159-.112l.194-.376.195.376c.032.06.09.103.158.112l.415.058-.294.273a.21.21 0 0 0-.064.191l.073.397z"/><path fill="#fff" d="M93.62 115.383h4.522l.422 20.832h-2.086l-1.234-9.207-1.624-8.624zM93.62 115.383h-4.523l-.422 20.832h2.088l1.232-9.207 1.625-8.624z"/><path fill="#94A3B8" d="M98.142 114.877h-9.046a.253.253 0 1 0 0 .506h9.046a.253.253 0 1 0 0-.506M90.745 136.215h-2.091a.253.253 0 1 0 0 .507h2.09a.253.253 0 1 0 0-.507M98.553 136.215h-2.091a.253.253 0 1 0 0 .507h2.09a.253.253 0 1 0 0-.507"/><path fill="#CBD5E1" d="M125.046 109h35.909a2.244 2.244 0 0 1 2.244 2.24v31.36h-40.398v-31.36a2.244 2.244 0 0 1 2.245-2.24"/><path fill="#fff" d="M122.801 142.6h40.398v20.16a2.244 2.244 0 0 1-2.244 2.24h-35.909a2.244 2.244 0 0 1-2.245-2.24z"/><path fill="#94A3B8" d="M158.71 148.199h-31.42a1.12 1.12 0 1 1 0-2.24h31.42a1.121 1.121 0 0 1 0 2.24"/><path fill="#CBD5E1" d="M156.466 152.679H127.29a1.12 1.12 0 0 1-1.122-1.119 1.12 1.12 0 0 1 1.122-1.119h29.176a1.12 1.12 0 1 1 0 2.238"/><path fill="#0093E5" d="M143 157.16h-15.71a1.12 1.12 0 1 1 0-2.239H143a1.12 1.12 0 1 1 0 2.239"/><path fill="#FFC800" d="m127.709 159.456.382.737.852.117-.616.575.145.811-.763-.384-.762.384.145-.811-.617-.575.853-.117zM131.861 159.456l.381.737.854.118-.618.574.146.811-.763-.384-.763.384.146-.811-.618-.574.854-.118zM136.014 159.456l.381.737.853.118-.617.574.145.811-.762-.384-.763.384.145-.811-.617-.574.853-.118zM141.4 160.311l-.853-.118-.381-.737-.381.737-.852.118.616.574-.146.811.763-.383.763.383-.146-.811zm-1.141.814-.094-.047-.094.047-.388.194.072-.397.02-.113-.084-.078-.294-.273.415-.058.108-.015.049-.097.195-.376.194.376.05.097.107.015.415.058-.293.273-.084.078.02.113.072.397-.388-.194zM145.551 160.311l-.852-.118-.381-.737-.381.737-.853.118.617.574-.146.811.763-.383.763.383-.147-.811zm-1.139.814-.094-.047-.095.047-.388.194.072-.397.02-.113-.084-.078-.293-.273.415-.058.107-.015.05-.097.194-.376.195.376.05.097.107.015.415.058-.294.273-.083.078.02.113.072.397-.388-.194z"/><path fill="#fff" d="m156.214 122.395-1.398 1.393a1.123 1.123 0 0 1-1.586 0l-2.405-2.4s-1.04 3.112-1.04 6.592 1.04 7.079 1.04 7.079a1.12 1.12 0 0 1-1.121 1.12h-13.392c-.62 0-1.123-.501-1.123-1.12 0 0 1.04-4.379 1.04-7.339s-1.04-6.345-1.04-6.345l-2.417 2.413a1.124 1.124 0 0 1-1.588 0l-1.395-1.392a1.12 1.12 0 0 1 0-1.585l2.945-2.938a8.4 8.4 0 0 1 5.927-2.449h8.683c2.224 0 4.356.881 5.928 2.451l2.943 2.936a1.12 1.12 0 0 1 0 1.585z"/><path fill="#CBD5E1" d="M139.641 115.421a3.364 3.364 0 0 0 3.367 3.361 3.364 3.364 0 0 0 3.367-3.361h-6.734"/><path fill="#fff" d="M145.703 115.421a2.694 2.694 0 0 1-2.695 2.691 2.694 2.694 0 0 1-2.695-2.691h5.391z"/><path fill="#CBD5E1" d="M174.443 109h35.909a2.244 2.244 0 0 1 2.244 2.24v31.36h-40.397v-31.36a2.244 2.244 0 0 1 2.244-2.24"/><path fill="#fff" d="M172.199 142.6h40.397v20.16a2.244 2.244 0 0 1-2.244 2.24h-35.909a2.244 2.244 0 0 1-2.244-2.24z"/><path fill="#94A3B8" d="M208.107 148.199h-31.42a1.12 1.12 0 1 1 0-2.24h31.42a1.12 1.12 0 1 1 0 2.24"/><path fill="#CBD5E1" d="M199.13 152.679h-22.443a1.12 1.12 0 0 1-1.122-1.119 1.12 1.12 0 0 1 1.122-1.119h22.443a1.12 1.12 0 0 1 1.122 1.119 1.12 1.12 0 0 1-1.122 1.119"/><path fill="#0093E5" d="M192.397 157.16h-15.71a1.12 1.12 0 0 1-1.122-1.12 1.12 1.12 0 0 1 1.122-1.119h15.71c.62 0 1.123.501 1.123 1.119 0 .619-.503 1.12-1.123 1.12"/><path fill="#FFC800" d="m177.106 159.456.382.737.853.117-.617.575.145.811-.763-.384-.762.384.145-.811-.616-.575.852-.117zM181.259 159.456l.381.737.853.118-.617.574.146.811-.763-.384-.763.384.146-.811-.618-.574.854-.118zM185.412 159.456l.38.737.853.118-.617.574.145.811-.761-.384-.764.384.146-.811-.617-.574.852-.118zM189.563 159.456l.382.737.853.118-.618.574.146.811-.763-.384-.763.384.146-.811-.618-.574.854-.118zM194.949 160.311l-.853-.118-.381-.737-.381.737-.853.118.617.574-.146.811.763-.383.763.383-.146-.811zm-1.14.814-.094-.047-.094.047-.388.194.072-.397.02-.113-.084-.078-.294-.273.415-.058.108-.015.049-.097.195-.376.194.376.05.097.107.015.415.058-.293.273-.084.078.02.113.072.397-.388-.194z"/><path fill="#94A3B8" d="M192.397 127.051c-2.712 0-4.92-2.204-4.92-4.911a4.922 4.922 0 0 1 9.841 0c0 2.707-2.208 4.911-4.921 4.911m0-8.774a3.87 3.87 0 0 0-3.869 3.863 3.87 3.87 0 0 0 7.74 0 3.87 3.87 0 0 0-3.871-3.863"/><path fill="#fff" d="M199.196 134.37H185.6c-1.993 0-3.456-1.869-2.972-3.799l1.822-7.273a1.53 1.53 0 0 1 1.486-1.158h12.924c.703 0 1.315.478 1.486 1.158l1.822 7.273c.484 1.93-.978 3.799-2.972 3.799"/><path fill="#94A3B8" d="M194.479 126.391za1.467 1.467 0 0 1-.001 2.078l-2.083 2.079-2.081-2.078a1.467 1.467 0 0 1 .001-2.076h.001a1.47 1.47 0 0 1 2.078-.001h.001a1.474 1.474 0 0 1 2.082-.002z"/></g><path fill="#64748B" d="M112 41a4 4 0 0 1 4-4h148a4 4 0 0 1 4 4v24H112z"/><path fill="#fff" d="M134 51a8 8 0 1 0-16 0 8 8 0 0 0 16 0"/><path fill="#64748B" d="M128.887 47.25a4.646 4.646 0 0 0-2.887-1c-.85 0-1.63.222-2.312.612a.04.04 0 0 0-.021.037v4.017a2.33 2.33 0 0 0 .933 1.867c.028.02.067 0 .067-.034v-1.833c0-.757.633-1.368 1.399-1.332.717.035 1.268.653 1.268 1.37v1.794c0 .034.039.054.066.034a2.34 2.34 0 0 0 .934-1.865A2.33 2.33 0 0 0 126 48.584c-.468 0-.904.137-1.269.375a.041.041 0 0 1-.064-.035v-1.393c0-.018.011-.034.027-.04.405-.154.846-.24 1.306-.24s.92.09 1.334.251c.365.144.702.343 1 .59a3.658 3.658 0 0 1 0 5.65 3.66 3.66 0 0 1-2.334.84h-2.151a.042.042 0 0 1-.03-.07l.357-.356a.04.04 0 0 0-.009-.065 3.5 3.5 0 0 1-.499-.348 3.703 3.703 0 0 1-1.195-1.826 3.67 3.67 0 0 1 .195-2.525v-1.635c0-.037-.047-.056-.073-.029a4.65 4.65 0 0 0-1.261 3.19 4.65 4.65 0 0 0 1.339 3.27v.058l-1.267 1.267c-.026.025-.007.07.029.07h4.566a4.64 4.64 0 0 0 2.887-1q.436-.344.78-.779c.626-.794 1-1.796 1-2.887a4.66 4.66 0 0 0-1.78-3.666z"/><path fill="#fff" d="M141.388 50.005h-3.401v-2.866H137v6.646h.987v-2.871h3.401v2.87h.99V47.14h-.99zM146.864 49.015q-.548-.354-1.326-.354c-.519 0-.933.11-1.309.328a2.25 2.25 0 0 0-.875.928q-.314.6-.314 1.417 0 .771.319 1.355.318.584.892.91.572.324 1.334.324c.507 0 .943-.122 1.346-.366q.604-.367.901-1.036l-.968-.3a1.4 1.4 0 0 1-.526.589 1.5 1.5 0 0 1-.801.205q-.704 0-1.076-.45-.309-.372-.361-1h3.799q.056-.895-.215-1.545a2.14 2.14 0 0 0-.82-1.005m-2.403.957q.373-.457 1.114-.457.67 0 .999.416.246.313.314.88h-2.765q.077-.518.338-.84M149.661 47h-.987v6.785h.987zM154.314 49.005q-.522-.344-1.239-.344c-.478 0-.887.114-1.216.344a2 2 0 0 0-.286.247V48.8h-.879V56h.992v-2.572q.085.078.18.147.495.348 1.227.348c.489 0 .886-.115 1.23-.346q.517-.345.798-.944.28-.597.281-1.345c0-.499-.095-.95-.283-1.345a2.26 2.26 0 0 0-.805-.937m-.113 3.176a1.4 1.4 0 0 1-.462.634q-.31.236-.782.236c-.314 0-.589-.075-.793-.226a1.3 1.3 0 0 1-.449-.624 2.7 2.7 0 0 1-.142-.914q0-.517.144-.914.144-.396.444-.619.3-.221.763-.221.49 0 .807.235.317.236.47.632.154.397.154.886c0 .326-.051.627-.154.894M161.433 48.675a1.9 1.9 0 0 0-.921.22q-.394.21-.628.586a1.46 1.46 0 0 0-.557-.582q-.383-.224-.926-.224c-.362 0-.656.074-.93.222q-.318.172-.534.441V48.8h-.878v4.985h.991v-3.116q0-.508.286-.82.286-.315.753-.315c.312 0 .566.103.753.31q.28.309.281.853l-.004 3.089h.987l.003-3.116q0-.378.144-.63a.97.97 0 0 1 .378-.378 1.1 1.1 0 0 1 .517-.127q.463 0 .747.302.283.302.283.842l-.005 3.106h.987l.005-3.337q0-.803-.454-1.287-.453-.486-1.28-.485zM167.988 49.612a1.46 1.46 0 0 0-.743-.722q-.507-.228-1.193-.229-.883 0-1.414.379a1.87 1.87 0 0 0-.72 1.02l.921.276q.132-.42.467-.602.335-.183.737-.182.637 0 .9.284.228.247.25.726l-.581.08q-.475.063-.905.138t-.769.17a2.2 2.2 0 0 0-.661.326q-.27.201-.407.486a1.5 1.5 0 0 0-.137.665q0 .407.196.745.195.34.578.545t.95.205q.711 0 1.202-.279.365-.21.635-.582v.723h.873v-3.07q0-.314-.027-.586a1.5 1.5 0 0 0-.152-.516m-.906 2.534a1.16 1.16 0 0 1-.241.47q-.184.227-.487.372a1.66 1.66 0 0 1-.722.145q-.316 0-.52-.097a.7.7 0 0 1-.302-.26.7.7 0 0 1-.099-.358c0-.13.031-.245.092-.337a.8.8 0 0 1 .251-.235 1.8 1.8 0 0 1 .361-.166q.241-.075.55-.127t.692-.108l.526-.077-.009.28q-.012.277-.092.499zM170.42 47.415h-.992V48.8h-.977v.775h.977v2.249q0 .405.012.726t.176.63q.184.345.548.508.364.162.827.175.463.015.945-.078v-.817a3.7 3.7 0 0 1-.871.03q-.372-.04-.541-.325a.77.77 0 0 1-.097-.374 16 16 0 0 1-.007-.521v-2.202h1.516v-.775h-1.516v-1.385M176.499 51.565h.491q.058-.896-.215-1.546a2.14 2.14 0 0 0-.819-1.004q-.548-.354-1.326-.354c-.519 0-.934.11-1.309.328a2.25 2.25 0 0 0-.875.928q-.315.6-.314 1.417 0 .771.318 1.355.32.584.892.91.573.324 1.335.324c.507 0 .943-.122 1.345-.366a2.24 2.24 0 0 0 .902-1.036l-.968-.3a1.4 1.4 0 0 1-.526.589 1.5 1.5 0 0 1-.801.205q-.703 0-1.077-.45-.308-.372-.36-1zm-2.947-1.593q.374-.457 1.115-.457.67 0 .999.416.246.313.313.88h-2.764q.078-.518.337-.84"/><path stroke="#fff" stroke-linecap="round" stroke-linejoin="round" d="M257 49.2h5m-.556 0v4.2c0 .3-.277.6-.555.6h-2.778c-.278 0-.555-.3-.555-.6v-4.2m.833 0v-.6c0-.3.278-.6.555-.6h1.112c.277 0 .555.3.555.6v.6m-1.667 1.5v1.8m1.112-1.8v1.8"/><mask id="path-70-inside-1_8012_16668" fill="#fff"><path d="M112 65h156v60H112z"/></mask><path fill="#fff" d="M112 65h156v60H112z"/><path fill="#D1D5DB" d="M268 125v.5h.5v-.5zm-156 0h-.5v.5h.5zm156-60h-.5v60h1V65zm0 60v-.5H112v1h156zm-156 0h.5V65h-1v60z" mask="url(#path-70-inside-1_8012_16668)"/><path fill="#94A3B8" d="M180 73a2 2 0 0 1 2-2h58a4 4 0 0 1 4 4v8h-62a2 2 0 0 1-2-2z"/><path fill="#E2E8F0" d="M262 77a6 6 0 1 1-12 0 6 6 0 0 1 12 0"/><mask id="mask0_8012_16668" width="12" height="12" x="250" y="71" maskUnits="userSpaceOnUse" style="mask-type:alpha"><path fill="#DFF3FF" d="M262 77a6 6 0 1 1-12 0 6 6 0 0 1 12 0"/></mask><g fill="#64748B" mask="url(#mask0_8012_16668)"><path d="M260 81.5a4 4 0 1 1-8 0 4 4 0 0 1 8 0"/><path d="M258 75.5a2 2 0 1 1-4 0 2 2 0 0 1 4 0"/></g><path fill="#64748B" d="M130 113a6 6 0 1 0-12 0 6 6 0 0 0 12 0"/><path fill="#fff" d="M126.165 110.187a3.484 3.484 0 0 0-2.165-.749c-.638 0-1.223.166-1.735.459q-.015.009-.015.027v3.013a1.744 1.744 0 0 0 .7 1.4c.02.015.05 0 .05-.025v-1.375c0-.568.475-1.026 1.049-.999.538.026.951.49.951 1.028v1.345c0 .026.029.041.05.026a1.76 1.76 0 0 0 .7-1.399 1.75 1.75 0 0 0-1.75-1.75c-.351 0-.678.103-.952.281a.03.03 0 0 1-.048-.026v-1.045a.03.03 0 0 1 .02-.029 2.755 2.755 0 0 1 2.73.45 2.744 2.744 0 0 1 0 4.238 2.748 2.748 0 0 1-1.75.631h-1.614c-.028 0-.042-.034-.022-.053l.268-.268a.03.03 0 0 0-.007-.049 2.9 2.9 0 0 1-.568-.436 2.8 2.8 0 0 1-.703-1.194 2.74 2.74 0 0 1 .146-1.894v-1.226c0-.028-.035-.043-.054-.022a3.48 3.48 0 0 0-.946 2.392 3.49 3.49 0 0 0 1.004 2.453v.044l-.95.949c-.019.02-.005.054.022.054H124a3.48 3.48 0 0 0 2.165-.75 3.48 3.48 0 0 0 1.335-2.75 3.49 3.49 0 0 0-1.335-2.749z"/><path fill="#D1D5DB" d="M136 99a4 4 0 0 1 4-4h78a2 2 0 0 1 2 2v20a2 2 0 0 1-2 2h-82z"/><mask id="path-80-inside-2_8012_16668" fill="#fff"><path d="M112 125h156v22a4 4 0 0 1-4 4H116a4 4 0 0 1-4-4z"/></mask><path fill="#fff" d="M112 125h156v22a4 4 0 0 1-4 4H116a4 4 0 0 1-4-4z"/><path fill="#D1D5DB" d="M112 125h156zm156.5 22a4.5 4.5 0 0 1-4.5 4.5H116a4.5 4.5 0 0 1-4.5-4.5h1a3.5 3.5 0 0 0 3.5 3.5h148a3.5 3.5 0 0 0 3.5-3.5zM116 151.5a4.5 4.5 0 0 1-4.5-4.5v-22h1v22a3.5 3.5 0 0 0 3.5 3.5zM268.5 125v22a4.5 4.5 0 0 1-4.5 4.5v-1a3.5 3.5 0 0 0 3.5-3.5v-22z" mask="url(#path-80-inside-2_8012_16668)"/><path stroke="#94A3B8" stroke-linecap="round" stroke-linejoin="round" d="M128 137.5h3m-1.5-1.5v3m1 1.75v3.75a.997.997 0 0 1-1 1h-7a.997.997 0 0 1-1-1v-7a.997.997 0 0 1 1-1h3.75m4.25 6-1.543-1.543a1 1 0 0 0-1.414 0L123 145.5m2.5-6a1 1 0 1 1-2 0 1 1 0 0 1 2 0"/><rect width="40" height="2" x="140" y="140" fill="#D9D9D9" rx="1"/><path stroke="#64748B" stroke-linecap="round" stroke-linejoin="round" d="M251.263 141 250 137l8 4m-6.737 0L250 145l8-4m-6.737 0H258"/><rect width="24" height="24" x="244" y="153" fill="#64748B" rx="12"/><path fill="#fff" d="M260.5 160c.398 0 .779.165 1.061.46.281.294.439.693.439 1.109v10.039a.4.4 0 0 1-.063.218.4.4 0 0 1-.169.144.35.35 0 0 1-.217.022.37.37 0 0 1-.192-.107l-2.139-2.239a.74.74 0 0 0-.53-.23h-7.19c-.398 0-.779-.165-1.061-.46a1.6 1.6 0 0 1-.439-1.109v-6.278c0-.416.158-.815.439-1.109s.663-.46 1.061-.46z"/><defs><linearGradient id="paint0_linear_8012_16668" x1="46.007" x2="46.007" y1="41" y2="97" gradientUnits="userSpaceOnUse"><stop stop-color="#CBD5E1"/><stop offset="1" stop-color="#94A3B8"/></linearGradient><clipPath id="clip0_8012_16668"><path fill="#fff" d="M18 41h56v56H18z"/></clipPath></defs></svg>