<svg width="32" height="32" viewBox="0 0 32 32" fill="none" xmlns="http://www.w3.org/2000/svg">
<path d="M16 22.6667V29.3334M18.6666 22.6667L21.5555 26.6667V29.3334M21.5555 2.66675V5.33341L18.6666 9.33341M2.66663 16.0001H9.33329M2.66663 21.5556H5.33329L9.33329 18.6667M2.66663 10.4445H5.33329L9.33329 13.3334M22.6666 16.0001H29.3333M22.6666 18.6667L26.6666 21.5556H29.3333M22.6666 13.3334L26.6666 10.4445H29.3333M13.3333 22.6667L10.4444 26.6667V29.3334M10.4444 2.66675V5.33341L13.3333 9.33341M16 2.66675V9.33341M16 9.33341H12C10.6666 9.33341 9.33329 10.6667 9.33329 12.0001V20.0001C9.33329 21.3334 10.6666 22.6667 12 22.6667H20C21.3333 22.6667 22.6666 21.3334 22.6666 20.0001V12.0001C22.6666 10.6667 21.3333 9.33341 20 9.33341H16ZM19 12.0001C19.5522 12.0001 20 12.4478 20 13.0001V19.0001C20 19.5524 19.5522 20.0001 19 20.0001H13C12.4477 20.0001 12 19.5524 12 19.0001V13.0001C12 12.4478 12.4477 12.0001 13 12.0001H19Z" stroke="#314158" stroke-width="1.5" stroke-linecap="round" stroke-linejoin="round"/>
</svg>
