<svg width="24" height="24" viewBox="0 0 24 24" fill="none" xmlns="http://www.w3.org/2000/svg">
<path d="M9.67033 4.1342C9.72543 3.55454 9.99466 3.01624 10.4254 2.62448C10.8562 2.23271 11.4176 2.01562 11.9998 2.01562C12.5821 2.01562 13.1435 2.23271 13.5742 2.62448C14.005 3.01624 14.2742 3.55454 14.3293 4.1342C14.3624 4.50865 14.4853 4.86962 14.6875 5.18654C14.8896 5.50346 15.1652 5.76701 15.4908 5.95488C15.8164 6.14274 16.1825 6.2494 16.558 6.26582C16.9336 6.28224 17.3076 6.20793 17.6483 6.0492C18.1774 5.80898 18.777 5.77422 19.3303 5.95168C19.8837 6.12915 20.3512 6.50615 20.6418 7.0093C20.9325 7.51246 21.0256 8.10577 20.903 8.67377C20.7803 9.24177 20.4507 9.74381 19.9783 10.0822C19.6707 10.298 19.4196 10.5848 19.2462 10.9182C19.0729 11.2516 18.9824 11.6219 18.9824 11.9977C18.9824 12.3735 19.0729 12.7438 19.2462 13.0772C19.4196 13.4106 19.6707 13.6974 19.9783 13.9132C20.4507 14.2516 20.7803 14.7536 20.903 15.3216C21.0256 15.8896 20.9325 16.4829 20.6418 16.9861C20.3512 17.4892 19.8837 17.8662 19.3303 18.0437C18.777 18.2212 18.1774 18.1864 17.6483 17.9462C17.3076 17.7875 16.9336 17.7132 16.558 17.7296C16.1825 17.746 15.8164 17.8527 15.4908 18.0405C15.1652 18.2284 14.8896 18.4919 14.6875 18.8089C14.4853 19.1258 14.3624 19.4867 14.3293 19.8612C14.2742 20.4409 14.005 20.9792 13.5742 21.3709C13.1435 21.7627 12.5821 21.9798 11.9998 21.9798C11.4176 21.9798 10.8562 21.7627 10.4254 21.3709C9.99466 20.9792 9.72543 20.4409 9.67033 19.8612C9.63727 19.4866 9.51443 19.1255 9.31219 18.8085C9.10996 18.4914 8.8343 18.2278 8.50856 18.0399C8.18282 17.852 7.8166 17.7454 7.44091 17.7291C7.06522 17.7128 6.69113 17.7873 6.35033 17.9462C5.82122 18.1864 5.22165 18.2212 4.66833 18.0437C4.115 17.8662 3.6475 17.4892 3.35681 16.9861C3.06612 16.4829 2.97304 15.8896 3.09569 15.3216C3.21833 14.7536 3.54793 14.2516 4.02033 13.9132C4.32795 13.6974 4.57906 13.4106 4.75242 13.0772C4.92577 12.7438 5.01628 12.3735 5.01628 11.9977C5.01628 11.6219 4.92577 11.2516 4.75242 10.9182C4.57906 10.5848 4.32795 10.298 4.02033 10.0822C3.54859 9.74364 3.21958 9.24179 3.09723 8.67418C2.97488 8.10657 3.06794 7.51374 3.35831 7.01091C3.64869 6.50808 4.11564 6.13118 4.66842 5.95344C5.2212 5.7757 5.82031 5.80983 6.34933 6.0492C6.69009 6.20793 7.06407 6.28224 7.43963 6.26582C7.81519 6.2494 8.18126 6.14274 8.50687 5.95488C8.83247 5.76701 9.10802 5.50346 9.31019 5.18654C9.51237 4.86962 9.63521 4.50865 9.66833 4.1342M12.9993 8.9982H14.9993C15.2645 8.9982 15.5189 8.89284 15.7064 8.70531C15.894 8.51777 15.9993 8.26342 15.9993 7.9982V6.17278M12.9993 8.9982C12.9993 9.55048 12.5516 9.9982 11.9993 9.9982C11.447 9.9982 10.9993 9.55048 10.9993 8.9982C10.9993 8.44591 11.447 7.9982 11.9993 7.9982C12.5516 7.9982 12.9993 8.44591 12.9993 8.9982ZM10.9993 14.9982L8.99933 14.9982C8.73411 14.9982 8.47976 15.1036 8.29222 15.2911C8.10469 15.4786 7.99933 15.733 7.99933 15.9982V17.7291M10.9993 14.9982C10.9993 14.4459 11.447 13.9982 11.9993 13.9982C12.5516 13.9982 12.9993 14.4459 12.9993 14.9982C12.9993 15.5505 12.5516 15.9982 11.9993 15.9982C11.447 15.9982 10.9993 15.5505 10.9993 14.9982Z" stroke="black" stroke-width="1.5" stroke-linecap="round" stroke-linejoin="round"/>
</svg>
