<svg width="24" height="24" viewBox="0 0 24 24" fill="none" xmlns="http://www.w3.org/2000/svg">
<path d="M10 10H10.01M13.99 10H14M8 14C8 14 9.5 16 12 16C14.5 16 16 14 16 14M12.244 1H11.756C11.1678 1 10.6037 1.23178 10.1877 1.64437C9.77181 2.05695 9.53814 2.61652 9.53814 3.2V3.398C9.53774 3.7838 9.43507 4.16271 9.24043 4.49672C9.04579 4.83073 8.76603 5.1081 8.4292 5.301L7.95235 5.576C7.61519 5.76909 7.23273 5.87074 6.84341 5.87074C6.45409 5.87074 6.07162 5.76909 5.73446 5.576L5.56812 5.488C5.05919 5.19679 4.45456 5.11779 3.88696 5.26834C3.31936 5.41889 2.83518 5.78669 2.5407 6.291L2.29673 6.709C2.00315 7.21383 1.92351 7.81358 2.07528 8.3766C2.22706 8.93962 2.59785 9.41989 3.10626 9.712L3.2726 9.822C3.60781 10.014 3.88654 10.2896 4.08108 10.6215C4.27562 10.9534 4.37921 11.3301 4.38155 11.714V12.275C4.3831 12.6627 4.28136 13.0438 4.08662 13.38C3.89188 13.7161 3.61106 13.9952 3.2726 14.189L3.10626 14.288C2.59785 14.5801 2.22706 15.0604 2.07528 15.6234C1.92351 16.1864 2.00315 16.7862 2.29673 17.291L2.5407 17.709C2.83518 18.2133 3.31936 18.5811 3.88696 18.7317C4.45456 18.8822 5.05919 18.8032 5.56812 18.512L5.73446 18.424C6.07162 18.2309 6.45409 18.1293 6.84341 18.1293C7.23273 18.1293 7.61519 18.2309 7.95235 18.424L8.4292 18.699C8.76603 18.8919 9.04579 19.1693 9.24043 19.5033C9.43507 19.8373 9.53774 20.2162 9.53814 20.602V20.8C9.53814 21.3835 9.77181 21.9431 10.1877 22.3556C10.6037 22.7682 11.1678 23 11.756 23H12.244C12.8322 23 13.3963 22.7682 13.8123 22.3556C14.2282 21.9431 14.4619 21.3835 14.4619 20.8V20.602C14.4623 20.2162 14.5649 19.8373 14.7596 19.5033C14.9542 19.1693 15.234 18.8919 15.5708 18.699L16.0476 18.424C16.3848 18.2309 16.7673 18.1293 17.1566 18.1293C17.5459 18.1293 17.9284 18.2309 18.2655 18.424L18.4319 18.512C18.9408 18.8032 19.5454 18.8822 20.113 18.7317C20.6806 18.5811 21.1648 18.2133 21.4593 17.709L21.7033 17.28C21.9968 16.7752 22.0765 16.1754 21.9247 15.6124C21.7729 15.0494 21.4022 14.5691 20.8937 14.277L20.7274 14.189C20.3889 13.9952 20.1081 13.7161 19.9134 13.38C19.7186 13.0438 19.6169 12.6627 19.6185 12.275V11.725C19.6169 11.3373 19.7186 10.9562 19.9134 10.62C20.1081 10.2839 20.3889 10.0048 20.7274 9.811L20.8937 9.712C21.4022 9.41989 21.7729 8.93962 21.9247 8.3766C22.0765 7.81358 21.9968 7.21383 21.7033 6.709L21.4593 6.291C21.1648 5.78669 20.6806 5.41889 20.113 5.26834C19.5454 5.11779 18.9408 5.19679 18.4319 5.488L18.2655 5.576C17.9284 5.76909 17.5459 5.87074 17.1566 5.87074C16.7673 5.87074 16.3848 5.76909 16.0476 5.576L15.5708 5.301C15.234 5.1081 14.9542 4.83073 14.7596 4.49672C14.5649 4.16271 14.4623 3.7838 14.4619 3.398V3.2C14.4619 2.61652 14.2282 2.05695 13.8123 1.64437C13.3963 1.23178 12.8322 1 12.244 1Z" stroke="black" stroke-width="1.5" stroke-linecap="round" stroke-linejoin="round"/>
</svg>
