<svg width="24" height="24" viewBox="0 0 24 24" fill="none" xmlns="http://www.w3.org/2000/svg">
<path d="M13.2239 21.4014C12.8109 21.7901 12.2717 22.0034 11.7114 22C11.1511 21.9965 10.6097 21.7765 10.1926 21.3827C9.77546 20.9889 9.51247 20.4496 9.45479 19.8696C9.421 19.4942 9.30076 19.1316 9.10424 18.8127C8.90772 18.4939 8.64072 18.228 8.32582 18.0377C8.01092 17.8474 7.6574 17.7382 7.29519 17.7194C6.93297 17.7006 6.57272 17.7728 6.24493 17.9297C5.73564 18.1694 5.15652 18.202 4.62071 18.0213C4.08491 17.8406 3.6309 17.4595 3.3474 16.9525C3.0639 16.4454 2.97127 15.8489 3.08761 15.2794C3.20395 14.7099 3.5209 14.2083 3.97653 13.8727C4.27222 13.6581 4.51296 13.3719 4.67837 13.0385C4.84378 12.7051 4.92899 12.3342 4.92677 11.9574C4.92456 11.5805 4.83499 11.2087 4.66565 10.8734C4.49631 10.5382 4.25219 10.2494 3.95397 10.0315C3.49641 9.68996 3.17556 9.18512 3.05387 8.61523C2.93217 8.04534 3.01833 7.45118 3.29559 6.94839C3.57284 6.4456 4.02135 6.07015 4.55382 5.8951C5.08629 5.72006 5.66463 5.75796 6.17628 6.00141C6.50571 6.16218 6.86664 6.23855 7.22856 6.22407C7.59047 6.20959 7.94272 6.10467 8.2555 5.91821C8.56828 5.73174 8.83239 5.4692 9.0255 5.1528C9.2186 4.8364 9.33501 4.47545 9.36489 4.10048C9.417 3.52171 9.67451 2.98619 10.0874 2.598C10.5002 2.20981 11.039 1.99669 11.5989 2.00004C12.1588 2.00339 12.6998 2.22299 13.1169 2.61615C13.534 3.00931 13.7973 3.54794 13.8556 4.12737C13.8894 4.50287 14.0096 4.8654 14.2061 5.18428C14.4027 5.50316 14.6697 5.76901 14.9846 5.95933C15.2995 6.14964 15.653 6.25881 16.0152 6.27761C16.3774 6.2964 16.7377 6.22426 17.0655 6.0673M20.2766 8.23676C20.2771 7.82251 20.1719 7.41116 19.9678 7.0462C19.6843 6.53916 19.2303 6.15806 18.6945 5.97734C18.1587 5.79663 17.5796 5.82928 17.0703 6.06893M11.7201 15.0264C10.901 14.9272 10.1245 14.4981 9.60594 13.7747C8.62408 12.4049 8.9387 10.4984 10.3087 9.51642C11.2081 8.87171 12.3389 8.78581 13.2873 9.19054M20.4874 11.1111H15.75C15.2859 11.1111 14.8408 11.316 14.5126 11.6806C14.1844 12.0453 14 12.5399 14 13.0556C14 13.5713 14.1844 14.0658 14.5126 14.4305C14.8408 14.7951 15.2859 15 15.75 15H19.25C19.7141 15 20.1592 15.2049 20.4874 15.5695C20.8156 15.9342 21 16.4287 21 16.9444C21 17.4601 20.8156 17.9547 20.4874 18.3194C20.1592 18.684 19.7141 18.8889 19.25 18.8889H14.5126M17.5 20V10" stroke="black" stroke-width="1.5" stroke-linecap="round" stroke-linejoin="round"/>
</svg>
