<svg xmlns="http://www.w3.org/2000/svg" width="287" height="194" fill="none" viewBox="0 0 287 194"><rect width="286" height="194" x=".333" fill="#fff" rx="8"/><rect width="262" height="172" x="12.334" y="11" fill="#F1F5F9" rx="4"/><g opacity=".25"><rect width="10" height="10" x="18.334" y="18" fill="#CBD5E1" rx="5"/><rect width="24" height="6" x="30.334" y="20" fill="#CBD5E1" rx="3"/><path fill="#fff" d="M194.775 18H91.892c-1.137 0-2.058 1.12-2.058 2.5v5c0 1.38.921 2.5 2.058 2.5h102.883c1.137 0 2.058-1.12 2.058-2.5v-5c0-1.38-.921-2.5-2.058-2.5"/><path fill="#F0F2F7" d="M194.655 25.935a.362.362 0 0 1-.582 0l-2.327-2.828a.58.58 0 0 1 0-.707.362.362 0 0 1 .582 0l2.327 2.828a.58.58 0 0 1 0 .707"/><path fill="#F0F2F7" d="M191.745 24.9c1.136 0 2.058-1.12 2.058-2.502 0-1.38-.922-2.5-2.058-2.5-1.137 0-2.058 1.12-2.058 2.5 0 1.381.921 2.501 2.058 2.501"/><path fill="#fff" d="M191.745 24.148c.795 0 1.44-.783 1.44-1.75 0-.966-.645-1.75-1.44-1.75-.796 0-1.44.784-1.44 1.75 0 .967.644 1.75 1.44 1.75"/><rect width="36" height="12" x="232.333" y="17" fill="#0093E5" rx="4"/><rect width="13.5" height="2" x="243.583" y="22" fill="#D9D9D9" rx="1"/></g><g opacity=".25"><g clip-path="url(#clip0_8012_17248)"><path fill="url(#paint0_linear_8012_17248)" d="M42.833 49.75a8.75 8.75 0 1 1-17.5 0 8.75 8.75 0 0 1 17.5 0m14.788 14.185a1.75 1.75 0 0 0-2.02.326L42.616 80.746l-9.31-9.702a1.75 1.75 0 0 0-2.205.217L18.341 86.5v7a3.5 3.5 0 0 0 3.5 3.5h49a3.5 3.5 0 0 0 3.5-3.5V77.75z"/></g><rect width="96" height="8" x="86.334" y="43" fill="#94A3B8" rx="4"/><rect width="144" height="6" x="86.334" y="57" fill="#CBD5E1" rx="3"/><rect width="144" height="6" x="86.334" y="69" fill="#CBD5E1" rx="3"/><rect width="48" height="8" x="86.334" y="87" fill="#94A3B8" rx="4"/><rect width="18" height="2" x="101.333" y="92" fill="#D9D9D9" rx="1"/></g><g opacity=".25"><path fill="#CBD5E1" d="M20.578 109h35.909a2.244 2.244 0 0 1 2.244 2.24v31.36H18.334v-31.36a2.244 2.244 0 0 1 2.244-2.24"/><path fill="#fff" d="M18.334 142.6H58.73v20.16a2.244 2.244 0 0 1-2.244 2.24h-35.91a2.244 2.244 0 0 1-2.244-2.24z"/><path fill="#94A3B8" d="M54.242 148.199h-31.42a1.12 1.12 0 1 1 0-2.24h31.42a1.12 1.12 0 1 1 0 2.24"/><path fill="#CBD5E1" d="M47.51 152.679H22.821a1.12 1.12 0 0 1-1.122-1.119 1.12 1.12 0 0 1 1.122-1.119h24.687a1.12 1.12 0 1 1 0 2.238"/><path fill="#0093E5" d="M38.532 157.159h-15.71a1.12 1.12 0 0 1-1.122-1.119 1.12 1.12 0 0 1 1.122-1.119h15.71a1.12 1.12 0 1 1 0 2.238"/><path fill="#FFC800" d="m23.242 159.456.381.737.853.117-.617.575.145.811-.762-.384-.763.384.145-.811-.617-.575.853-.117zM27.394 159.456l.382.737.852.118-.618.574.146.811-.762-.384-.764.384.147-.811-.618-.574.854-.118zM31.546 159.456l.381.737.853.118-.617.574.145.811-.762-.384-.763.384.145-.811-.617-.574.853-.118zM35.698 159.456l.382.737.852.118-.618.574.147.811-.764-.384-.763.384.147-.811-.617-.574.852-.118zM41.083 160.311l-.852-.118-.381-.737-.381.737-.853.118.617.574-.146.811.763-.383.763.383-.146-.811zm-1.139.814a.21.21 0 0 0-.189 0l-.388.194.072-.397a.21.21 0 0 0-.063-.191l-.294-.273.415-.058a.21.21 0 0 0 .158-.112l.195-.376.194.376a.21.21 0 0 0 .158.112l.416.058-.294.273a.21.21 0 0 0-.064.191l.072.397z"/><path fill="#fff" d="M38.55 115.383h4.521l.423 20.832h-2.087l-1.233-9.207-1.624-8.624z"/><path fill="#fff" d="M38.55 115.383h-4.523l-.422 20.832h2.087l1.233-9.207 1.625-8.624z"/><path fill="#94A3B8" d="M43.072 114.877h-9.046a.253.253 0 1 0 0 .506h9.046a.253.253 0 1 0 0-.506M35.675 136.215h-2.091a.253.253 0 1 0 0 .507h2.09a.253.253 0 1 0 0-.507M43.482 136.215h-2.09a.253.253 0 1 0 0 .507h2.09a.253.253 0 1 0 0-.507"/><path fill="#CBD5E1" d="M69.975 109h35.909a2.244 2.244 0 0 1 2.245 2.24v31.36H67.731v-31.36a2.244 2.244 0 0 1 2.244-2.24"/><path fill="#fff" d="M67.731 142.6h40.398v20.16a2.244 2.244 0 0 1-2.245 2.24H69.975a2.244 2.244 0 0 1-2.244-2.24z"/><path fill="#94A3B8" d="M103.64 148.199H72.22a1.12 1.12 0 1 1 0-2.24h31.42a1.121 1.121 0 0 1 0 2.24"/><path fill="#CBD5E1" d="M101.395 152.679H72.219a1.12 1.12 0 0 1-1.121-1.119 1.12 1.12 0 0 1 1.121-1.119h29.176a1.12 1.12 0 0 1 1.122 1.119 1.12 1.12 0 0 1-1.122 1.119"/><path fill="#0093E5" d="M87.93 157.159H72.22a1.12 1.12 0 0 1-1.122-1.119 1.12 1.12 0 0 1 1.121-1.119h15.71a1.12 1.12 0 1 1 0 2.238"/><path fill="#FFC800" d="m72.638 159.456.382.737.853.117-.617.575.145.811-.763-.384-.762.384.146-.811-.617-.575.852-.117zM76.79 159.456l.382.737.854.118-.618.574.146.811-.763-.384-.763.384.146-.811-.618-.574.854-.118zM80.944 159.456l.38.737.853.118-.616.574.145.811-.762-.384-.763.384.145-.811-.617-.574.853-.118zM86.33 160.311l-.853-.118-.381-.737-.381.737-.853.118.617.574-.146.811.763-.383.763.383-.146-.811zm-1.14.814-.095-.047-.095.047-.388.194.072-.397.02-.113-.083-.078-.294-.273.415-.058.107-.015.05-.097.195-.376.194.376.05.097.107.015.415.058-.293.273-.084.078.02.113.072.397-.388-.194zM90.48 160.311l-.852-.118-.38-.737-.382.737-.852.118.617.574-.147.811.763-.383.763.383-.146-.811zm-1.138.814-.095-.047-.094.047-.388.194.072-.397.02-.113-.084-.078-.293-.273.415-.058.107-.015.05-.097.194-.376.195.376.05.097.106.015.416.058-.294.273-.084.078.02.113.072.397-.388-.194z"/><path fill="#fff" d="m101.143 122.395-1.397 1.393a1.123 1.123 0 0 1-1.587 0l-2.404-2.4s-1.04 3.112-1.04 6.592 1.04 7.079 1.04 7.079c0 .618-.503 1.12-1.122 1.12H81.242c-.62 0-1.123-.501-1.123-1.12 0 0 1.04-4.379 1.04-7.339s-1.04-6.345-1.04-6.345l-2.418 2.413a1.123 1.123 0 0 1-1.587 0l-1.395-1.392a1.12 1.12 0 0 1 0-1.585l2.945-2.938a8.4 8.4 0 0 1 5.927-2.449h8.682c2.225 0 4.357.881 5.929 2.451l2.942 2.936a1.12 1.12 0 0 1 0 1.585z"/><path fill="#CBD5E1" d="M84.57 115.421a3.364 3.364 0 0 0 3.368 3.361 3.364 3.364 0 0 0 3.367-3.361H84.57"/><path fill="#fff" d="M90.633 115.421a2.694 2.694 0 0 1-2.695 2.691 2.694 2.694 0 0 1-2.695-2.691h5.391z"/><path fill="#CBD5E1" d="M119.373 109h35.909a2.244 2.244 0 0 1 2.244 2.24v31.36h-40.398v-31.36a2.244 2.244 0 0 1 2.245-2.24"/><path fill="#fff" d="M117.128 142.6h40.398v20.16a2.244 2.244 0 0 1-2.244 2.24h-35.909a2.244 2.244 0 0 1-2.245-2.24z"/><path fill="#94A3B8" d="M153.037 148.199h-31.42a1.12 1.12 0 1 1 0-2.24h31.42a1.12 1.12 0 1 1 0 2.24"/><path fill="#CBD5E1" d="M144.06 152.679h-22.443a1.12 1.12 0 0 1-1.122-1.119 1.12 1.12 0 0 1 1.122-1.119h22.443a1.12 1.12 0 1 1 0 2.238"/><path fill="#0093E5" d="M137.327 157.159h-15.71a1.12 1.12 0 0 1-1.122-1.119 1.12 1.12 0 0 1 1.122-1.119h15.71c.62 0 1.123.501 1.123 1.119a1.12 1.12 0 0 1-1.123 1.119"/><path fill="#FFC800" d="m122.036 159.456.382.737.853.117-.617.575.145.811-.763-.384-.762.384.145-.811-.617-.575.853-.117zM126.188 159.456l.381.737.854.118-.618.574.146.811-.763-.384-.763.384.147-.811-.618-.574.853-.118zM130.341 159.456l.381.737.853.118-.617.574.145.811-.762-.384-.763.384.145-.811-.617-.574.853-.118zM134.493 159.456l.382.737.852.118-.618.574.147.811-.763-.384-.763.384.146-.811-.618-.574.854-.118zM139.878 160.311l-.852-.118-.381-.737-.381.737-.853.118.617.574-.146.811.763-.383.763.383-.146-.811zm-1.139.814-.094-.047-.095.047-.388.194.072-.397.02-.113-.083-.078-.294-.273.415-.058.107-.015.05-.097.195-.376.194.376.05.097.107.015.415.058-.294.273-.083.078.02.113.072.397-.388-.194z"/><path fill="#94A3B8" d="M137.327 127.051a4.92 4.92 0 0 1-4.92-4.911 4.921 4.921 0 0 1 9.84 0 4.92 4.92 0 0 1-4.92 4.911m0-8.774a3.87 3.87 0 0 0-3.869 3.863 3.87 3.87 0 0 0 7.74 0 3.87 3.87 0 0 0-3.871-3.863"/><path fill="#fff" d="M144.126 134.37h-13.597c-1.993 0-3.455-1.869-2.972-3.798l1.822-7.274a1.53 1.53 0 0 1 1.486-1.158h12.925c.703 0 1.315.478 1.486 1.158l1.822 7.274c.484 1.929-.979 3.798-2.972 3.798"/><path fill="#94A3B8" d="M139.409 126.391h.001a1.47 1.47 0 0 1-.001 2.078l-2.083 2.079-2.081-2.078a1.465 1.465 0 0 1 .001-2.076h.001a1.47 1.47 0 0 1 2.078-.001h.001a1.474 1.474 0 0 1 2.082-.002z"/></g><path fill="#64748B" d="M112.333 21a4 4 0 0 1 4-4h148a4 4 0 0 1 4 4v22h-156z"/><path fill="#fff" d="M132.333 30a7 7 0 1 0-14 0 7 7 0 0 0 14 0"/><path fill="#64748B" d="M127.859 26.719a4.063 4.063 0 0 0-2.525-.875c-.744 0-1.427.194-2.024.536a.04.04 0 0 0-.018.032v3.514a2.04 2.04 0 0 0 .817 1.634c.024.018.058 0 .058-.03v-1.604c0-.662.554-1.197 1.224-1.165.627.03 1.109.571 1.109 1.199v1.57c0 .03.035.047.059.03a2.04 2.04 0 0 0-.059-3.307 2.03 2.03 0 0 0-1.166-.367c-.41 0-.792.12-1.111.328a.036.036 0 0 1-.056-.03v-1.22c0-.015.009-.029.023-.034a3.2 3.2 0 0 1 3.185.526 3.2 3.2 0 0 1 0 4.944 3.2 3.2 0 0 1-2.041.736h-1.883a.036.036 0 0 1-.026-.062l.312-.312a.035.035 0 0 0-.008-.057 3 3 0 0 1-.436-.305 3.218 3.218 0 0 1-1.046-1.597 3.2 3.2 0 0 1 .171-2.21v-1.43a.037.037 0 0 0-.064-.026 4.07 4.07 0 0 0-1.103 2.79 4.06 4.06 0 0 0 1.171 2.862v.051l-1.108 1.108c-.023.023-.007.062.025.062h3.995a4.06 4.06 0 0 0 2.526-.874q.382-.302.683-.682a4.07 4.07 0 0 0 .875-2.526c0-1.302-.609-2.46-1.558-3.208z"/><path fill="#fff" d="M139.254 29.726h-3.039v-2.6h-.882v6.03h.882v-2.604h3.039v2.604h.885v-6.03h-.885zM144.148 28.828q-.49-.32-1.186-.32c-.463 0-.834.099-1.169.297a2.04 2.04 0 0 0-.782.842q-.28.546-.281 1.286 0 .7.285 1.229t.797.825a2.35 2.35 0 0 0 1.192.295c.454 0 .843-.11 1.203-.332q.54-.333.805-.94l-.864-.272q-.169.347-.471.534-.302.186-.716.186-.628 0-.961-.408-.276-.34-.322-.907h3.394q.05-.813-.192-1.403a1.94 1.94 0 0 0-.732-.911m-2.148.869q.333-.415.996-.415.599 0 .892.377.22.285.28.8h-2.47q.07-.473.302-.762M146.646 27h-.882v6.157h.882zM150.804 28.82q-.467-.312-1.107-.313c-.427 0-.793.104-1.087.313a2 2 0 0 0-.256.223v-.41h-.785v6.534h.887v-2.334q.076.07.16.133.444.316 1.097.316c.436 0 .791-.104 1.099-.314q.461-.314.713-.856.25-.542.251-1.221c0-.452-.085-.862-.253-1.22a2.05 2.05 0 0 0-.719-.85zm-.101 2.88a1.3 1.3 0 0 1-.413.577q-.278.213-.699.213c-.281 0-.526-.068-.709-.205a1.18 1.18 0 0 1-.401-.565 2.5 2.5 0 0 1-.127-.83q0-.468.129-.83.129-.36.397-.56.268-.202.681-.201.438 0 .722.213.282.214.42.573.137.36.137.804c0 .296-.045.57-.137.811M157.165 28.52q-.455 0-.823.2a1.5 1.5 0 0 0-.561.53 1.3 1.3 0 0 0-.498-.526 1.6 1.6 0 0 0-.827-.204c-.323 0-.586.067-.832.201a1.55 1.55 0 0 0-.476.4v-.488h-.785v4.524h.886V30.33q0-.46.255-.746a.86.86 0 0 1 .673-.285c.279 0 .506.094.673.281q.25.281.251.775l-.004 2.802h.882l.003-2.826q0-.344.129-.572a.87.87 0 0 1 .338-.344.94.94 0 0 1 .461-.115q.414 0 .667.274.253.275.253.764l-.004 2.819h.882l.004-3.028q0-.73-.405-1.168-.405-.44-1.144-.44zM163.022 29.37a1.32 1.32 0 0 0-.664-.655 2.55 2.55 0 0 0-1.066-.208q-.789 0-1.263.344a1.7 1.7 0 0 0-.644.926l.823.25q.119-.381.417-.546.3-.166.659-.166.57 0 .804.258.204.225.223.659l-.519.072q-.424.058-.808.126a7 7 0 0 0-.688.155q-.35.112-.59.295a1.2 1.2 0 0 0-.364.442 1.4 1.4 0 0 0-.122.603q0 .367.175.676.174.308.516.494.342.187.849.187.636 0 1.074-.254.327-.19.567-.528v.656h.781V30.37q0-.285-.025-.531a1.4 1.4 0 0 0-.135-.469m-.81 2.3q-.051.221-.215.426-.165.206-.435.337a1.46 1.46 0 0 1-.645.132q-.283 0-.465-.087a.6.6 0 0 1-.27-.237.6.6 0 0 1-.088-.325c0-.117.027-.222.082-.305a.7.7 0 0 1 .224-.214q.14-.088.323-.15a4 4 0 0 1 .491-.115q.276-.049.618-.099l.471-.07-.009.255a1.5 1.5 0 0 1-.082.452M165.194 27.377h-.886v1.256h-.873v.704h.873v2.04q0 .368.01.66.01.29.158.57.164.315.489.462.325.146.739.159a3.8 3.8 0 0 0 .844-.072v-.74a3.2 3.2 0 0 1-.778.027.6.6 0 0 1-.483-.295.7.7 0 0 1-.087-.34 16 16 0 0 1-.006-.473v-1.997h1.354v-.704h-1.354zM170.626 31.142h.439q.051-.812-.192-1.403a1.94 1.94 0 0 0-.732-.91q-.489-.322-1.185-.322c-.464 0-.834.1-1.169.298a2.04 2.04 0 0 0-.783.842q-.28.546-.28 1.286 0 .7.285 1.229t.797.825 1.192.295c.453 0 .842-.11 1.202-.332q.541-.333.806-.94l-.865-.272q-.168.347-.47.534-.303.186-.716.186-.629 0-.962-.408-.274-.34-.322-.907zm-2.633-1.445q.334-.415.996-.415.6 0 .893.377.22.285.28.8h-2.47q.069-.473.301-.762"/><path stroke="#fff" stroke-linecap="round" stroke-linejoin="round" d="M257.333 28.2h5m-.555 0v4.2c0 .3-.278.6-.556.6h-2.777c-.278 0-.556-.3-.556-.6v-4.2m.833 0v-.6c0-.3.278-.6.556-.6h1.111c.278 0 .556.3.556.6v.6m-1.667 1.5v1.8m1.111-1.8v1.8"/><mask id="path-70-inside-1_8012_17248" fill="#fff"><path d="M112.333 43h156v82h-156z"/></mask><path fill="#fff" d="M112.333 43h156v82h-156z"/><path fill="#D1D5DB" d="M268.333 125v.5h.5v-.5zm-156 0h-.5v.5h.5zm156-82h-.5v82h1V43zm0 82v-.5h-156v1h156zm-156 0h.5V43h-1v82z" mask="url(#path-70-inside-1_8012_17248)"/><path fill="#94A3B8" d="M180.333 53a2 2 0 0 1 2-2h58a4 4 0 0 1 4 4v8h-62a2 2 0 0 1-2-2z"/><path fill="#fff" d="M201.023 57.59c-.27 1.56-1.28 2.57-2.94 2.57-2.07 0-3.29-1.63-3.29-3.7 0-2.08 1.22-3.72 3.29-3.72 1.55 0 2.58.95 2.89 2.43l-1.15.06c-.21-.95-.84-1.49-1.75-1.49-1.5 0-2.14 1.25-2.14 2.72 0 1.46.65 2.7 2.14 2.7.96 0 1.6-.59 1.79-1.63zm3.39 2.53c-1.53 0-2.53-1.08-2.53-2.77s1-2.77 2.53-2.77 2.53 1.08 2.53 2.77-1 2.77-2.53 2.77m-1.41-2.77c0 1.15.51 1.84 1.41 1.84s1.41-.69 1.41-1.84-.51-1.84-1.41-1.84-1.41.69-1.41 1.84m9.38 2.65h-1l-.01-.85c-.28.68-.89.97-1.57.97-1.17 0-1.78-.85-1.78-2.01V54.7h1.08v3.08c0 .93.27 1.43.98 1.43.75 0 1.23-.5 1.23-1.43V54.7h1.07zm1.509 1.5v-6.8h1l.03.79c.29-.59.85-.91 1.61-.91 1.56 0 2.28 1.28 2.28 2.77s-.72 2.77-2.28 2.77c-.72 0-1.26-.29-1.56-.84v2.22zm.98-4.15c0 .94.42 1.84 1.4 1.84 1 0 1.41-.89 1.41-1.84s-.42-1.84-1.41-1.84c-.98 0-1.4.9-1.4 1.84m7.353 2.77c-1.53 0-2.53-1.08-2.53-2.77s1-2.77 2.53-2.77 2.53 1.08 2.53 2.77-1 2.77-2.53 2.77m-1.41-2.77c0 1.15.51 1.84 1.41 1.84s1.41-.69 1.41-1.84-.51-1.84-1.41-1.84-1.41.69-1.41 1.84m5.069-2.65h.97l.03.91c.28-.72.89-1.03 1.61-1.03 1.2 0 1.81.85 1.81 2.01V60h-1.08v-3.08c0-.93-.28-1.43-1.01-1.43-.77 0-1.25.5-1.25 1.43V60h-1.08z"/><path fill="#E2E8F0" d="M262.333 57a6 6 0 1 1-12 0 6 6 0 0 1 12 0"/><mask id="mask0_8012_17248" width="13" height="12" x="250" y="51" maskUnits="userSpaceOnUse" style="mask-type:alpha"><path fill="#DFF3FF" d="M262.333 57a6 6 0 1 1-12 0 6 6 0 0 1 12 0"/></mask><g fill="#64748B" mask="url(#mask0_8012_17248)"><path d="M260.333 61.5a4 4 0 1 1-7.999.001 4 4 0 0 1 7.999-.001"/><path d="M258.333 55.5a2 2 0 1 1-4 0 2 2 0 0 1 4 0"/></g><path fill="#64748B" d="M130.333 113a6 6 0 1 0-12 0 6 6 0 0 0 12 0"/><path fill="#fff" d="M126.498 110.187a3.48 3.48 0 0 0-2.165-.749 3.46 3.46 0 0 0-1.734.459.03.03 0 0 0-.016.027v3.013a1.75 1.75 0 0 0 .7 1.4c.021.015.05 0 .05-.025v-1.375c0-.568.475-1.026 1.05-.999.537.026.95.49.95 1.028v1.345c0 .026.03.041.05.026a1.75 1.75 0 0 0 .7-1.399 1.75 1.75 0 0 0-1.75-1.75c-.351 0-.678.103-.952.281-.02.014-.048-.001-.048-.026v-1.045a.03.03 0 0 1 .02-.029 2.755 2.755 0 0 1 2.73.45 2.74 2.74 0 0 1 .897 2.869 2.76 2.76 0 0 1-.897 1.369 2.744 2.744 0 0 1-1.75.631h-1.613a.03.03 0 0 1-.022-.053l.267-.268c.015-.014.011-.039-.007-.049a2.6 2.6 0 0 1-.374-.261 2.7 2.7 0 0 1-.75-.973 2.734 2.734 0 0 1 0-2.29v-1.226c0-.028-.035-.043-.054-.022a3.48 3.48 0 0 0-.946 2.392 3.49 3.49 0 0 0 1.004 2.453v.044l-.95.949a.032.032 0 0 0 .022.054h3.424a3.5 3.5 0 0 0 2.165-.75q.327-.259.585-.585c.469-.595.75-1.347.75-2.165a3.49 3.49 0 0 0-1.335-2.749z"/><path fill="#F1F5F9" d="M136.333 73a4 4 0 0 1 4-4h69a2 2 0 0 1 2 2v46a2 2 0 0 1-2 2h-73z"/><path fill="#EDF3FF" d="M136.333 73.334a4 4 0 0 1 4-4h68.501a2 2 0 0 1 2 2V117a2 2 0 0 1-2 2h-72.501z"/><rect width="58" height="2" x="141.333" y="72" fill="#64748B" rx="1"/><rect width="65" height="38" x="141.333" y="77" fill="#fff" rx="1"/><path fill="#64748B" d="M202.048 79.667a.39.39 0 0 0-.126-.283.44.44 0 0 0-.303-.117h-4.571a.44.44 0 0 0-.303.117.39.39 0 0 0-.126.283v.409c.213.029.411.12.564.264a.9.9 0 0 1 .293.66.9.9 0 0 1-.293.66 1.02 1.02 0 0 1-.564.264v.41c0 .105.045.207.126.282.08.075.189.117.303.117h4.571a.44.44 0 0 0 .303-.117.39.39 0 0 0 .126-.283v-.41a1.02 1.02 0 0 1-.564-.263.9.9 0 0 1-.292-.614l-.001-.046c0-.248.105-.485.293-.66.153-.143.351-.235.564-.264zm-1.958.439a.15.15 0 0 1 .202 0 .13.13 0 0 1 0 .188l-1.715 1.6a.15.15 0 0 1-.202 0 .13.13 0 0 1 0-.188zm.103 1.56c.079 0 .143.06.143.134s-.064.133-.143.133h-.002c-.079 0-.143-.06-.143-.133s.064-.133.143-.133zm-1.714-1.6.029.003a.136.136 0 0 1 .114.131.136.136 0 0 1-.114.13l-.029.003h-.003c-.079 0-.143-.06-.143-.133s.064-.133.143-.133zm3.854.134c0 .074-.063.133-.142.133a.74.74 0 0 0-.505.196.65.65 0 0 0-.21.471l.004.066a.65.65 0 0 0 .206.405.74.74 0 0 0 .505.196c.079 0 .142.06.142.133v.533a.65.65 0 0 1-.209.472.74.74 0 0 1-.505.195h-4.571a.74.74 0 0 1-.505-.195.65.65 0 0 1-.21-.472V81.8l.003-.027a.14.14 0 0 1 .14-.106.74.74 0 0 0 .505-.196.65.65 0 0 0 .21-.471.65.65 0 0 0-.21-.471.74.74 0 0 0-.505-.196c-.079 0-.143-.06-.143-.133v-.533c0-.177.076-.347.21-.472a.74.74 0 0 1 .505-.195h4.571c.19 0 .371.07.505.195a.65.65 0 0 1 .209.472z"/><rect width="39" height="2" x="144.333" y="80" fill="#CBD5E1" rx="1"/><path fill="#0093E5" d="M159.673 89.9v1h-3.16l-.27 2.01c.34-.41.98-.64 1.61-.64 1.35 0 2.3 1.01 2.3 2.41 0 1.46-1.06 2.48-2.56 2.48-1.47 0-2.57-.83-2.67-2.03l1.12-.07c.12.7.77 1.1 1.53 1.1.86 0 1.45-.61 1.45-1.47 0-.91-.6-1.49-1.52-1.49-.61 0-1.14.28-1.33.75h-1.15l.55-4.05zm4.467 7.26c-1.79 0-2.89-1.44-2.89-3.7 0-2.27 1.1-3.72 2.89-3.72s2.89 1.45 2.89 3.72c0 2.26-1.1 3.7-2.89 3.7m-1.75-3.7c0 1.74.62 2.7 1.75 2.7s1.75-.96 1.75-2.7c0-1.75-.62-2.72-1.75-2.72s-1.75.97-1.75 2.72m11.147-3.72h1.16l-5.18 7.38h-1.16zm-5.56 1.89c0-.98.67-1.74 1.51-1.74s1.51.76 1.51 1.74-.67 1.74-1.51 1.74-1.51-.76-1.51-1.74m.86 0c0 .58.25.94.65.94s.66-.36.66-.94-.26-.94-.66-.94-.65.36-.65.94m3.18 3.63c0-.98.66-1.74 1.51-1.74.84 0 1.5.76 1.5 1.74s-.66 1.74-1.5 1.74c-.85 0-1.51-.76-1.51-1.74m.86 0c0 .58.24.94.65.94.4 0 .65-.36.65-.94s-.25-.94-.65-.94c-.41 0-.65.36-.65.94m8.811 1.9c-2.07 0-3.32-1.41-3.32-3.7 0-2.31 1.25-3.72 3.32-3.72 2.08 0 3.32 1.41 3.32 3.72 0 2.29-1.24 3.7-3.32 3.7m-2.18-3.7c0 1.68.81 2.7 2.18 2.7s2.18-1.02 2.18-2.7c0-1.7-.81-2.72-2.18-2.72s-2.18 1.02-2.18 2.72m7.141-1.99c0-.98.49-1.57 1.58-1.57h.9v.88h-.83c-.33 0-.57.26-.57.69v.3h2.05v-.3c0-.98.49-1.57 1.58-1.57h.9v.88h-.83c-.33 0-.57.26-.57.69v.3h1.33v.89h-1.33V97h-1.08v-4.34h-2.05V97h-1.08v-4.34h-.73v-.89h.73z"/><rect width="28" height="9" x="175.333" y="104" fill="#0093E5" rx="1"/><rect width="28" height="9" x="144.333" y="104" fill="#CBD5E1" rx="1"/><path fill="#EFF8FF" d="M185.678 108.795c-.135.78-.64 1.285-1.47 1.285-1.035 0-1.645-.815-1.645-1.85 0-1.04.61-1.86 1.645-1.86.775 0 1.29.475 1.445 1.215l-.575.03c-.105-.475-.42-.745-.875-.745-.75 0-1.07.625-1.07 1.36 0 .73.325 1.35 1.07 1.35.48 0 .8-.295.895-.815zm1.695 1.265c-.765 0-1.265-.54-1.265-1.385s.5-1.385 1.265-1.385 1.265.54 1.265 1.385-.5 1.385-1.265 1.385m-.705-1.385c0 .575.255.92.705.92s.705-.345.705-.92-.255-.92-.705-.92-.705.345-.705.92m2.535 2.075v-3.4h.5l.015.395c.145-.295.425-.455.805-.455.78 0 1.14.64 1.14 1.385s-.36 1.385-1.14 1.385c-.36 0-.63-.145-.78-.42v1.11zm.49-2.075c0 .47.21.92.7.92.5 0 .705-.445.705-.92s-.21-.92-.705-.92c-.49 0-.7.45-.7.92m2.169-1.325h.545l.745 2.08.725-2.08h.54l-1.06 2.96c-.11.3-.31.44-.64.44h-.395v-.435h.315c.14 0 .215-.05.265-.175l.085-.22h-.165z"/><rect width="15" height="3" x="150.333" y="107" fill="#64748B" rx="1.5"/><mask id="path-91-inside-2_8012_17248" fill="#fff"><path d="M112.333 125h156v22a4 4 0 0 1-4 4h-148a4 4 0 0 1-4-4z"/></mask><path fill="#fff" d="M112.333 125h156v22a4 4 0 0 1-4 4h-148a4 4 0 0 1-4-4z"/><path fill="#D1D5DB" d="M112.333 125h156zm156.5 22a4.5 4.5 0 0 1-4.5 4.5h-148a4.5 4.5 0 0 1-4.5-4.5h1a3.5 3.5 0 0 0 3.5 3.5h148a3.5 3.5 0 0 0 3.5-3.5zm-152.5 4.5a4.5 4.5 0 0 1-4.5-4.5v-22h1v22a3.5 3.5 0 0 0 3.5 3.5zm152.5-26.5v22a4.5 4.5 0 0 1-4.5 4.5v-1a3.5 3.5 0 0 0 3.5-3.5v-22z" mask="url(#path-91-inside-2_8012_17248)"/><path stroke="#94A3B8" stroke-linecap="round" stroke-linejoin="round" d="M128.333 137.5h3m-1.5-1.5v3m1 1.75v3.75a1 1 0 0 1-1 1h-7a1 1 0 0 1-1-1v-7a1 1 0 0 1 1-1h3.75m4.25 6-1.543-1.543a.996.996 0 0 0-1.414 0l-4.543 4.543m2.5-6a1 1 0 1 1-2 0 1 1 0 0 1 2 0"/><rect width="40" height="2" x="140.333" y="140" fill="#D9D9D9" rx="1"/><path stroke="#64748B" stroke-linecap="round" stroke-linejoin="round" d="m251.597 141-1.264-4 8 4m-6.736 0-1.264 4 8-4m-6.736 0h6.736"/><rect width="24" height="24" x="244.333" y="153" fill="#64748B" rx="12"/><path fill="#fff" d="M260.833 160c.398 0 .78.165 1.061.46.281.294.439.693.439 1.109v10.039a.4.4 0 0 1-.063.218.4.4 0 0 1-.168.144.365.365 0 0 1-.409-.085l-2.14-2.239a.73.73 0 0 0-.53-.23h-7.19c-.397 0-.779-.165-1.06-.46a1.6 1.6 0 0 1-.44-1.109v-6.278c0-.416.159-.815.44-1.109s.663-.46 1.06-.46z"/><defs><linearGradient id="paint0_linear_8012_17248" x1="46.34" x2="46.34" y1="41" y2="97" gradientUnits="userSpaceOnUse"><stop stop-color="#CBD5E1"/><stop offset="1" stop-color="#94A3B8"/></linearGradient><clipPath id="clip0_8012_17248"><path fill="#fff" d="M18.334 41h56v56h-56z"/></clipPath></defs></svg>