<svg width="24" height="24" viewBox="0 0 24 24" fill="none" xmlns="http://www.w3.org/2000/svg">
<path d="M11.2001 20.2711L12.8001 21.5955C12.9576 21.7259 13.1447 21.8294 13.3506 21.9C13.5565 21.9705 13.7772 22.0069 14.0001 22.0069C14.2229 22.0069 14.4436 21.9705 14.6495 21.9C14.8554 21.8294 15.0425 21.7259 15.2001 21.5955C15.3576 21.465 15.4826 21.3102 15.5679 21.1397C15.6532 20.9693 15.6971 20.7866 15.6971 20.6022C15.6971 20.4177 15.6532 20.235 15.5679 20.0646C15.4826 19.8942 15.3576 19.7393 15.2001 19.6089M13.6001 18.2845L15.6001 19.94C15.9183 20.2034 16.35 20.3514 16.8001 20.3514C17.2501 20.3514 17.6818 20.2034 18.0001 19.94C18.3183 19.6766 18.4971 19.3193 18.4971 18.9467C18.4971 18.5742 18.3183 18.2169 18.0001 17.9534L14.8961 15.3842C14.446 15.0121 13.8361 14.8032 13.2001 14.8032C12.564 14.8032 11.9541 15.0121 11.5041 15.3842L10.8001 15.9669C10.4818 16.2303 10.0501 16.3783 9.60005 16.3783C9.14996 16.3783 8.71831 16.2303 8.40005 15.9669C8.08179 15.7034 7.903 15.3462 7.903 14.9736C7.903 14.601 8.08179 14.2438 8.40005 13.9803L10.6481 12.1196C11.3778 11.5171 12.3296 11.1333 13.3526 11.0289C14.3756 10.9246 15.4114 11.1057 16.2961 11.5435L16.6721 11.7289C17.0127 11.8991 17.4177 11.9581 17.8081 11.8944L19.2001 11.6627M19.2001 11.6627L20.0001 18.2845H18.4001M19.2001 11.6627C19.1987 11.3007 18.8338 10.5 19.122 9.98383C19.2973 9.66994 19.55 9.4093 19.8547 9.22829L20.0044 9.13584C20.4619 8.86305 20.7956 8.41454 20.9322 7.88875C21.0688 7.36297 20.9972 6.80289 20.7329 6.33144L20.5134 5.94109C20.2483 5.47013 19.8126 5.12665 19.3017 4.98606C18.7909 4.84547 18.2467 4.91924 17.7887 5.19119L17.639 5.27337C17.3355 5.45369 16.9913 5.54863 16.6409 5.54863C16.2905 5.54863 15.9463 5.45369 15.6429 5.27337L15.2137 5.01656C14.9106 4.83642 14.6588 4.57739 14.4836 4.26547C14.3084 3.95355 14.216 3.5997 14.2157 3.23941V3.05451C14.2157 2.50962 14.0054 1.98705 13.631 1.60175C13.2567 1.21646 12.749 1 12.2196 1L11.7804 1C11.251 1 10.7433 1.21646 10.369 1.60175C9.99463 1.98705 9.78433 2.50962 9.78433 3.05451V3.23941C9.78397 3.59969 9.69157 3.95355 9.51639 4.26547C9.34121 4.57739 9.08942 4.83642 8.78628 5.01656L8.35712 5.27337C8.05367 5.45369 7.70946 5.54863 7.35907 5.54862C7.00868 5.54862 6.66446 5.45369 6.36102 5.27337L6.21131 5.19119C5.75327 4.91924 5.2091 4.84546 4.69827 4.98606C4.18743 5.12665 3.75166 5.47013 3.48663 5.94109L3.26706 6.34171C3.00284 6.81316 2.93116 7.37324 3.06775 7.89903C3.20435 8.42481 3.53806 8.87332 3.99563 9.14611L4.14534 9.22829C4.44995 9.4093 4.70269 9.66994 4.87796 9.98382C5.24014 10.6325 4.80145 11.3007 4.80005 11.6627M4.80005 11.6627L4.00005 18.2845L9.20005 22.5887C9.51831 22.8522 9.94996 23.0002 10.4001 23.0002C10.8501 23.0002 11.2818 22.8522 11.6001 22.5887C11.9183 22.3253 12.0971 21.968 12.0971 21.5955C12.0971 21.2229 11.9183 20.8656 11.6001 20.6022M4.80005 11.6627H11.2001M9.00585 11.2725C9.00585 9.57052 10.3464 8.19077 12 8.19077C13.5644 8.19077 14.8486 9.42561 14.9826 10.9999" stroke="black" stroke-width="1.5" stroke-linecap="round" stroke-linejoin="round"/>
</svg>
