<svg width="24" height="24" viewBox="0 0 24 24" fill="none" xmlns="http://www.w3.org/2000/svg">
<path d="M21.2 8.4L21.6538 7.80288C21.6373 7.7903 21.6202 7.77841 21.6027 7.76725L21.2 8.4ZM2.58579 21.4142L3.11612 20.8839V20.8839L2.58579 21.4142ZM2.8 8.4L2.39734 7.76725C2.38115 7.77756 2.36536 7.78848 2.35 7.8L2.8 8.4ZM10.8 2.4L10.35 1.8C10.3334 1.81247 10.3173 1.82563 10.3017 1.83944L10.8 2.4ZM13.2 2.4L13.6983 1.83944C13.6827 1.82563 13.6666 1.81247 13.65 1.8L13.2 2.4ZM14.5017 4.56056C14.8113 4.83575 15.2854 4.80786 15.5606 4.49827C15.8357 4.18869 15.8079 3.71463 15.4983 3.43944L15 4L14.5017 4.56056ZM8.50173 3.43944C8.19214 3.71463 8.16425 4.18869 8.43944 4.49827C8.71463 4.80786 9.18869 4.83575 9.49827 4.56056L9 4L8.50173 3.43944ZM13.03 15.7L13.4282 16.3356L13.4322 16.333L13.03 15.7ZM12 15.996V15.246V15.996ZM10.97 15.7L10.5677 16.333L10.5718 16.3356L10.97 15.7ZM8.75 6.5C8.33579 6.5 8 6.83579 8 7.25C8 7.66421 8.33579 8 8.75 8V7.25V6.5ZM15.25 8C15.6642 8 16 7.66421 16 7.25C16 6.83579 15.6642 6.5 15.25 6.5V7.25V8ZM8.75 9.5C8.33579 9.5 8 9.83579 8 10.25C8 10.6642 8.33579 11 8.75 11V10.25V9.5ZM15.25 11C15.6642 11 16 10.6642 16 10.25C16 9.83579 15.6642 9.5 15.25 9.5V10.25V11ZM21.2 8.4L20.7462 8.99712C21.0641 9.2387 21.25 9.60995 21.25 10H22H22.75C22.75 9.13005 22.3359 8.3213 21.6538 7.80288L21.2 8.4ZM22 10H21.25V20H22H22.75V10H22ZM22 20H21.25C21.25 20.3315 21.1183 20.6495 20.8839 20.8839L21.4142 21.4142L21.9445 21.9445C22.4603 21.4288 22.75 20.7293 22.75 20H22ZM21.4142 21.4142L20.8839 20.8839C20.6495 21.1183 20.3315 21.25 20 21.25V22V22.75C20.7293 22.75 21.4288 22.4603 21.9445 21.9445L21.4142 21.4142ZM20 22V21.25H4V22V22.75H20V22ZM4 22V21.25C3.66848 21.25 3.35054 21.1183 3.11612 20.8839L2.58579 21.4142L2.05546 21.9445C2.57118 22.4603 3.27065 22.75 4 22.75V22ZM2.58579 21.4142L3.11612 20.8839C2.8817 20.6495 2.75 20.3315 2.75 20H2H1.25C1.25 20.7293 1.53973 21.4288 2.05546 21.9445L2.58579 21.4142ZM2 20H2.75V10H2H1.25V20H2ZM2 10H2.75C2.75 9.80594 2.79518 9.61455 2.88197 9.44098L2.21115 9.10557L1.54033 8.77016C1.3494 9.15202 1.25 9.57308 1.25 10H2ZM2.21115 9.10557L2.88197 9.44098C2.96875 9.26741 3.09476 9.11643 3.25 9L2.8 8.4L2.35 7.8C2.00846 8.05615 1.73125 8.38831 1.54033 8.77016L2.21115 9.10557ZM10.8 2.4L11.25 3C11.4664 2.83772 11.7295 2.75 12 2.75V2V1.25C11.405 1.25 10.826 1.44299 10.35 1.8L10.8 2.4ZM12 2V2.75C12.2705 2.75 12.5336 2.83772 12.75 3L13.2 2.4L13.65 1.8C13.174 1.44299 12.595 1.25 12 1.25V2ZM13.2 2.4L12.7017 2.96056L14.5017 4.56056L15 4L15.4983 3.43944L13.6983 1.83944L13.2 2.4ZM9 4L9.49827 4.56056L11.2983 2.96056L10.8 2.4L10.3017 1.83944L8.50173 3.43944L9 4ZM2.8 8.4L3.20266 9.03275L5.40266 7.63275L5 7L4.59734 6.36725L2.39734 7.76725L2.8 8.4ZM19 7L18.5973 7.63275L20.7973 9.03275L21.2 8.4L21.6027 7.76725L19.4027 6.36725L19 7ZM22 10L21.5978 9.36699L12.6278 15.067L13.03 15.7L13.4322 16.333L22.4022 10.633L22 10ZM13.03 15.7L12.6318 15.0644C12.4424 15.1831 12.2235 15.246 12 15.246V15.996V16.746C12.5052 16.746 13.0001 16.6038 13.4282 16.3356L13.03 15.7ZM12 15.996V15.246C11.7765 15.246 11.5576 15.1831 11.3682 15.0644L10.97 15.7L10.5718 16.3356C10.9999 16.6038 11.4948 16.746 12 16.746V15.996ZM10.97 15.7L11.3722 15.067L2.40225 9.36699L2 10L1.59775 10.633L10.5678 16.333L10.97 15.7ZM19 6H18.25V12H19H19.75V6H19ZM5 12H5.75V6H5H4.25V12H5ZM7 4V4.75H17V4V3.25H7V4ZM5 6H5.75C5.75 5.30964 6.30964 4.75 7 4.75V4V3.25C5.48122 3.25 4.25 4.48122 4.25 6H5ZM19 6H19.75C19.75 4.48122 18.5188 3.25 17 3.25V4V4.75C17.6904 4.75 18.25 5.30964 18.25 6H19ZM8.75 7.25V8H15.25V7.25V6.5H8.75V7.25ZM8.75 10.25V11H15.25V10.25V9.5H8.75V10.25Z" fill="black"/>
</svg>
