<svg xmlns="http://www.w3.org/2000/svg" width="287" height="194" fill="none" viewBox="0 0 287 194"><rect width="286" height="194" x=".667" fill="#fff" rx="8"/><rect width="262" height="172" x="12.666" y="11" fill="#F1F5F9" rx="4"/><g opacity=".25"><rect width="10" height="10" x="18.666" y="18" fill="#CBD5E1" rx="5"/><rect width="24" height="6" x="30.666" y="20" fill="#CBD5E1" rx="3"/><path fill="#fff" d="M195.108 18H92.225c-1.137 0-2.058 1.12-2.058 2.5v5c0 1.38.921 2.5 2.058 2.5h102.883c1.137 0 2.059-1.12 2.059-2.5v-5c0-1.38-.922-2.5-2.059-2.5"/><path fill="#F0F2F7" d="M194.988 25.935a.362.362 0 0 1-.582 0l-2.327-2.828a.58.58 0 0 1 0-.707.362.362 0 0 1 .582 0l2.327 2.828a.58.58 0 0 1 0 .707"/><path fill="#F0F2F7" d="M192.078 24.9c1.136 0 2.058-1.12 2.058-2.502 0-1.38-.922-2.5-2.058-2.5-1.137 0-2.058 1.12-2.058 2.5 0 1.381.921 2.501 2.058 2.501"/><path fill="#fff" d="M192.078 24.148c.795 0 1.44-.783 1.44-1.75 0-.966-.645-1.75-1.44-1.75-.796 0-1.44.784-1.44 1.75 0 .967.644 1.75 1.44 1.75"/><rect width="36" height="12" x="232.667" y="17" fill="#0093E5" rx="4"/><rect width="13.5" height="2" x="243.917" y="22" fill="#D9D9D9" rx="1"/></g><g opacity=".25"><g clip-path="url(#clip0_8012_16909)"><path fill="url(#paint0_linear_8012_16909)" d="M43.166 49.75a8.75 8.75 0 1 1-17.5 0 8.75 8.75 0 0 1 17.5 0m14.788 14.185a1.75 1.75 0 0 0-2.02.326L42.95 80.746l-9.31-9.702a1.75 1.75 0 0 0-2.205.217L18.674 86.5v7a3.5 3.5 0 0 0 3.5 3.5h49a3.5 3.5 0 0 0 3.5-3.5V77.75z"/></g><rect width="96" height="8" x="86.666" y="43" fill="#94A3B8" rx="4"/><rect width="144" height="6" x="86.666" y="57" fill="#fff" rx="3"/><rect width="144" height="6" x="86.666" y="69" fill="#fff" rx="3"/><rect width="48" height="8" x="86.666" y="87" fill="#94A3B8" rx="4"/><rect width="18" height="2" x="101.667" y="92" fill="#D9D9D9" rx="1"/></g><g opacity=".25"><path fill="#fff" d="M20.91 109h35.91a2.244 2.244 0 0 1 2.244 2.24v31.36H18.667v-31.36A2.244 2.244 0 0 1 20.91 109M18.667 142.6h40.397v20.16A2.244 2.244 0 0 1 56.82 165H20.91a2.244 2.244 0 0 1-2.244-2.24z"/><path fill="#94A3B8" d="M54.575 148.199h-31.42a1.12 1.12 0 1 1 0-2.24h31.42a1.12 1.12 0 1 1 0 2.24"/><path fill="#fff" d="M47.842 152.679H23.155a1.12 1.12 0 0 1-1.122-1.119 1.12 1.12 0 0 1 1.122-1.119h24.687a1.12 1.12 0 1 1 0 2.238"/><path fill="#0093E5" d="M38.865 157.16h-15.71a1.12 1.12 0 1 1 0-2.239h15.71a1.12 1.12 0 1 1 0 2.239"/><path fill="#FFC800" d="m23.575 159.456.381.737.853.117-.617.575.145.811-.762-.384-.763.384.145-.811-.617-.575.853-.117zM27.727 159.456l.382.737.852.118-.618.574.146.811-.762-.384-.764.384.147-.811-.618-.574.854-.118zM31.88 159.456l.38.737.853.118-.617.574.145.811-.762-.384-.763.384.145-.811-.616-.574.852-.118zM36.03 159.456l.383.737.852.118-.618.574.147.811-.763-.384-.764.384.147-.811-.617-.574.853-.118zM41.416 160.311l-.852-.118-.381-.737-.381.737-.853.118.617.574-.146.811.763-.383.763.383-.146-.811zm-1.139.814a.21.21 0 0 0-.188 0l-.389.194.072-.397a.21.21 0 0 0-.063-.191l-.294-.273.415-.058a.21.21 0 0 0 .158-.112l.195-.376.194.376c.032.06.09.103.158.112l.416.058-.294.273a.21.21 0 0 0-.064.191l.072.397z"/><path fill="#fff" d="M38.883 115.383h4.521l.423 20.832H41.74l-1.233-9.207-1.624-8.624zM38.883 115.383H34.36l-.422 20.832h2.087l1.233-9.207 1.625-8.624z"/><path fill="#94A3B8" d="M43.405 114.877h-9.046a.253.253 0 1 0 0 .506h9.046a.253.253 0 1 0 0-.506M36.008 136.215h-2.091a.253.253 0 1 0 0 .507h2.09a.253.253 0 1 0 0-.507M43.815 136.215h-2.09a.253.253 0 1 0 0 .507h2.09a.253.253 0 1 0 0-.507"/><path fill="#fff" d="M70.308 109h35.909a2.244 2.244 0 0 1 2.245 2.24v31.36H68.064v-31.36a2.244 2.244 0 0 1 2.244-2.24M68.064 142.6h40.398v20.16a2.244 2.244 0 0 1-2.245 2.24H70.308a2.244 2.244 0 0 1-2.244-2.24z"/><path fill="#94A3B8" d="M103.973 148.199h-31.42a1.12 1.12 0 1 1 0-2.24h31.42a1.121 1.121 0 0 1 0 2.24"/><path fill="#fff" d="M101.728 152.679H72.552a1.12 1.12 0 0 1-1.121-1.119 1.12 1.12 0 0 1 1.121-1.119h29.176a1.12 1.12 0 0 1 1.122 1.119 1.12 1.12 0 0 1-1.122 1.119"/><path fill="#0093E5" d="M88.262 157.16h-15.71a1.12 1.12 0 1 1 0-2.239h15.71a1.12 1.12 0 1 1 0 2.239"/><path fill="#FFC800" d="m72.971 159.456.382.737.853.117-.617.575.145.811-.763-.384-.761.384.145-.811-.617-.575.853-.117zM77.124 159.456l.38.737.855.118-.618.574.146.811-.763-.384-.763.384.146-.811-.618-.574.854-.118zM81.277 159.456l.38.737.853.118-.616.574.145.811-.762-.384-.763.384.145-.811-.617-.574.853-.118zM86.663 160.311l-.853-.118-.381-.737-.381.737-.853.118.617.574-.146.811.763-.383.763.383-.146-.811zm-1.14.814-.095-.047-.095.047-.388.194.072-.397.02-.113-.083-.078-.294-.273.415-.058.107-.015.05-.097.195-.376.194.376.05.097.107.015.415.058-.293.273-.084.078.02.113.072.397-.388-.194zM90.814 160.311l-.853-.118-.38-.737-.382.737-.852.118.617.574-.147.811.763-.383.763.383-.146-.811zm-1.14.814-.094-.047-.094.047-.388.194.072-.397.02-.113-.084-.078-.293-.273.415-.058.107-.015.05-.097.194-.376.195.376.05.097.107.015.415.058-.294.273-.084.078.02.113.072.397-.388-.194z"/><path fill="#fff" d="m101.476 122.395-1.397 1.393a1.124 1.124 0 0 1-1.586 0l-2.405-2.4s-1.04 3.112-1.04 6.592 1.04 7.079 1.04 7.079c0 .618-.503 1.12-1.122 1.12H81.575a1.12 1.12 0 0 1-1.123-1.12s1.04-4.379 1.04-7.339-1.04-6.345-1.04-6.345l-2.418 2.413a1.123 1.123 0 0 1-1.587 0l-1.395-1.392a1.12 1.12 0 0 1 0-1.585l2.944-2.938a8.4 8.4 0 0 1 5.928-2.449h8.682c2.225 0 4.357.881 5.929 2.451l2.942 2.936a1.12 1.12 0 0 1 0 1.585z"/><path fill="#fff" d="M84.904 115.421a3.364 3.364 0 0 0 3.367 3.361 3.364 3.364 0 0 0 3.367-3.361h-6.734"/><path fill="#fff" d="M90.966 115.421a2.694 2.694 0 0 1-2.695 2.691 2.694 2.694 0 0 1-2.695-2.691h5.391zM119.706 109h35.909a2.244 2.244 0 0 1 2.244 2.24v31.36h-40.398v-31.36a2.244 2.244 0 0 1 2.245-2.24M117.461 142.6h40.398v20.16a2.244 2.244 0 0 1-2.244 2.24h-35.909a2.244 2.244 0 0 1-2.245-2.24z"/><path fill="#94A3B8" d="M153.37 148.199h-31.42a1.12 1.12 0 1 1 0-2.24h31.42a1.12 1.12 0 1 1 0 2.24"/><path fill="#fff" d="M144.393 152.679H121.95a1.12 1.12 0 0 1-1.122-1.119 1.12 1.12 0 0 1 1.122-1.119h22.443a1.12 1.12 0 1 1 0 2.238"/><path fill="#0093E5" d="M137.66 157.16h-15.71a1.12 1.12 0 0 1-1.122-1.12 1.12 1.12 0 0 1 1.122-1.119h15.71c.62 0 1.123.501 1.123 1.119 0 .619-.503 1.12-1.123 1.12"/><path fill="#FFC800" d="m122.369 159.456.382.737.853.117-.617.575.145.811-.763-.384-.762.384.145-.811-.617-.575.853-.117zM126.521 159.456l.381.737.854.118-.618.574.146.811-.763-.384-.763.384.147-.811-.618-.574.853-.118zM130.674 159.456l.381.737.853.118-.617.574.145.811-.762-.384-.763.384.145-.811-.617-.574.853-.118zM134.826 159.456l.382.737.852.118-.618.574.147.811-.763-.384-.763.384.146-.811-.618-.574.854-.118zM140.211 160.311l-.852-.118-.381-.737-.381.737-.853.118.617.574-.146.811.763-.383.763.383-.146-.811zm-1.139.814-.094-.047-.095.047-.388.194.072-.397.02-.113-.083-.078-.294-.273.415-.058.107-.015.05-.097.195-.376.194.376.05.097.107.015.415.058-.294.273-.083.078.02.113.072.397-.388-.194z"/><path fill="#94A3B8" d="M137.66 127.051a4.92 4.92 0 0 1-4.92-4.911 4.921 4.921 0 0 1 9.84 0 4.92 4.92 0 0 1-4.92 4.911m0-8.774a3.87 3.87 0 0 0-3.869 3.863 3.87 3.87 0 0 0 7.74 0 3.87 3.87 0 0 0-3.871-3.863"/><path fill="#fff" d="M144.459 134.37h-13.597a3.06 3.06 0 0 1-2.972-3.799l1.822-7.273a1.53 1.53 0 0 1 1.486-1.158h12.925c.703 0 1.315.478 1.486 1.158l1.822 7.273c.484 1.93-.979 3.799-2.972 3.799"/><path fill="#94A3B8" d="M139.742 126.391h.001a1.47 1.47 0 0 1-.001 2.078l-2.083 2.079-2.081-2.078a1.465 1.465 0 0 1 .001-2.076h.001a1.47 1.47 0 0 1 2.078-.001h.001a1.474 1.474 0 0 1 2.082-.002z"/></g><path fill="#64748B" d="M112.667 21a4 4 0 0 1 4-4h148a4 4 0 0 1 4 4v22h-156z"/><path fill="#fff" d="M132.786 30c0-3.866-3.161-7-7.06-7s-7.059 3.134-7.059 7 3.16 7 7.059 7 7.06-3.134 7.06-7"/><path fill="#64748B" d="M128.274 26.719a4.128 4.128 0 0 0-2.548-.875c-.75 0-1.438.194-2.04.536a.04.04 0 0 0-.019.032v3.514a2.02 2.02 0 0 0 .603 1.444q.104.103.221.19c.024.018.059 0 .059-.03v-1.604c0-.662.559-1.197 1.234-1.165.633.03 1.119.571 1.119 1.199v1.57c0 .03.035.047.059.03a2.05 2.05 0 0 0 .824-1.633c0-.693-.35-1.306-.883-1.674a2.06 2.06 0 0 0-1.177-.367c-.413 0-.798.12-1.12.328a.036.036 0 0 1-.056-.03v-1.22c0-.015.009-.029.023-.034a3.288 3.288 0 0 1 2.33.01c.322.125.62.3.883.516a3.19 3.19 0 0 1 1.054 3.347 3.2 3.2 0 0 1-1.054 1.597 3.25 3.25 0 0 1-2.06.736h-1.898c-.034 0-.05-.04-.026-.062l.315-.312a.036.036 0 0 0-.008-.057 3.1 3.1 0 0 1-.669-.51 3.2 3.2 0 0 1-.827-1.392 3.162 3.162 0 0 1 .173-2.21v-1.43c0-.033-.042-.05-.064-.026a4.04 4.04 0 0 0-1.113 2.79 4.05 4.05 0 0 0 1.181 2.862v.051l-1.118 1.108c-.023.023-.006.062.026.062h4.029a4.12 4.12 0 0 0 3.236-1.556 4.063 4.063 0 0 0-.688-5.734z"/><path fill="#fff" d="M138.456 29.518h-3.038v-2.6h-.882v6.03h.882v-2.605h3.038v2.605h.886v-6.03h-.886zM143.35 28.62q-.489-.32-1.185-.32c-.464 0-.834.099-1.169.297a2.04 2.04 0 0 0-.783.842q-.28.544-.28 1.285 0 .7.285 1.23t.797.825q.513.294 1.192.295c.453 0 .842-.11 1.202-.332a2.03 2.03 0 0 0 .806-.94l-.865-.273q-.168.348-.47.534-.303.187-.716.187-.629 0-.962-.409-.274-.338-.322-.906h3.394q.051-.813-.192-1.403a1.93 1.93 0 0 0-.732-.911zm-2.148.868q.334-.414.996-.414.6 0 .893.377.22.284.28.8h-2.47q.069-.472.301-.763M145.849 26.792h-.882v6.156h.882zM150.007 28.611q-.468-.311-1.108-.312c-.427 0-.793.104-1.087.312a2 2 0 0 0-.255.224v-.41h-.785v6.533h.886v-2.333q.077.07.16.133.443.316 1.098.316c.436 0 .791-.105 1.098-.314a2.05 2.05 0 0 0 .713-.856q.252-.543.252-1.221 0-.681-.253-1.22a2.05 2.05 0 0 0-.719-.85zm-.102 2.882a1.27 1.27 0 0 1-.413.576q-.276.213-.698.213c-.281 0-.526-.068-.709-.205a1.17 1.17 0 0 1-.401-.566 2.5 2.5 0 0 1-.127-.829q0-.469.129-.83.128-.36.396-.56.269-.202.682-.202.438 0 .721.214.284.213.42.573.138.36.138.804c0 .296-.046.57-.138.81zM156.368 28.312q-.456 0-.823.2a1.5 1.5 0 0 0-.562.53 1.3 1.3 0 0 0-.497-.527 1.6 1.6 0 0 0-.828-.203 1.67 1.67 0 0 0-.831.2 1.55 1.55 0 0 0-.476.401v-.488h-.786v4.523h.887v-2.827q0-.46.255-.745a.86.86 0 0 1 .673-.285c.278 0 .506.094.673.281q.25.281.251.775l-.004 2.802h.881l.004-2.827q0-.344.128-.571a.87.87 0 0 1 .338-.344.95.95 0 0 1 .462-.115q.414 0 .667.274t.253.764l-.005 2.818h.882l.005-3.027q0-.73-.406-1.168-.405-.44-1.143-.44zM162.224 29.162a1.3 1.3 0 0 0-.664-.655 2.55 2.55 0 0 0-1.065-.208q-.789 0-1.264.344-.474.343-.643.925l.823.251q.117-.38.417-.547.3-.165.658-.165.57 0 .804.258.204.225.224.659l-.52.072q-.423.058-.808.126a7 7 0 0 0-.687.155q-.35.112-.591.295-.24.182-.363.441a1.4 1.4 0 0 0-.123.603q0 .37.175.677t.517.494q.342.186.849.186.636 0 1.073-.253.327-.19.568-.529v.656h.781v-2.785q0-.285-.025-.531a1.4 1.4 0 0 0-.136-.47m-.81 2.3q-.05.221-.215.426-.164.206-.434.337t-.646.132q-.282 0-.464-.088a.6.6 0 0 1-.27-.236.6.6 0 0 1-.088-.325c0-.117.027-.222.082-.305a.7.7 0 0 1 .224-.214q.14-.089.323-.15.215-.069.491-.115.276-.049.618-.1.219-.03.47-.069l-.008.255a1.5 1.5 0 0 1-.083.452M164.397 27.169h-.886v1.256h-.874v.704h.874v2.04q0 .368.01.659.01.29.158.572a1 1 0 0 0 .489.46q.325.148.739.16t.844-.072v-.74a3.2 3.2 0 0 1-.778.027.6.6 0 0 1-.484-.296.7.7 0 0 1-.086-.339 16 16 0 0 1-.006-.473V29.13h1.354v-.704h-1.354zM169.829 30.934h.439q.05-.813-.192-1.403a1.94 1.94 0 0 0-.732-.911q-.49-.32-1.185-.32c-.464 0-.834.099-1.169.297a2.03 2.03 0 0 0-.783.842q-.28.544-.28 1.285 0 .7.284 1.23.286.53.797.825.513.294 1.193.295c.453 0 .842-.11 1.202-.332a2.03 2.03 0 0 0 .806-.94l-.865-.273q-.168.348-.471.534a1.33 1.33 0 0 1-.715.187q-.629 0-.962-.409-.274-.338-.322-.906zm-2.633-1.446q.334-.414.996-.414.599 0 .892.377.22.284.281.8h-2.471q.07-.472.302-.763"/><path stroke="#fff" stroke-linecap="round" stroke-linejoin="round" d="M257.667 28.2h5m-.556 0v4.2c0 .3-.278.6-.556.6h-2.777c-.278 0-.556-.3-.556-.6v-4.2m.833 0v-.6c0-.3.278-.6.556-.6h1.111c.278 0 .556.3.556.6v.6m-1.667 1.5v1.8m1.111-1.8v1.8"/><mask id="path-70-inside-1_8012_16909" fill="#fff"><path d="M112.667 43h156v82h-156z"/></mask><path fill="#fff" d="M112.667 43h156v82h-156z"/><path fill="#D1D5DB" d="M268.667 125v.5h.5v-.5zm-156 0h-.5v.5h.5zm156-82h-.5v82h1V43zm0 82v-.5h-156v1h156zm-156 0h.5V43h-1v82z" mask="url(#path-70-inside-1_8012_16909)"/><path fill="#94A3B8" d="M222.667 51a2 2 0 0 1 2-2h16a4 4 0 0 1 4 4v20h-20a2 2 0 0 1-2-2z"/><path fill="#F8FAFC" d="M224.667 53.25a2.25 2.25 0 0 1 2.25-2.25h13.5a2.25 2.25 0 0 1 2.25 2.25V64.5a2.25 2.25 0 0 1-2.25 2.25h-13.5a2.25 2.25 0 0 1-2.25-2.25zm1.125 10.125V64.5a1.124 1.124 0 0 0 1.125 1.125h13.5a1.124 1.124 0 0 0 1.125-1.125v-3.937l-4.25-2.19a.56.56 0 0 0-.649.104l-4.173 4.174-2.993-1.994a.56.56 0 0 0-.709.07zm5.625-7.312a1.686 1.686 0 0 0-1.688-1.688 1.685 1.685 0 0 0-1.687 1.688 1.685 1.685 0 0 0 1.687 1.687 1.685 1.685 0 0 0 1.688-1.687"/><rect width="18" height="2" x="224.667" y="68.75" fill="#fff" rx="1"/><path fill="#fff" d="M262.667 67a6 6 0 1 1-12 0 6 6 0 0 1 12 0"/><mask id="mask0_8012_16909" width="13" height="12" x="250" y="61" maskUnits="userSpaceOnUse" style="mask-type:alpha"><path fill="#fff" d="M262.667 67a6 6 0 1 1-12 0 6 6 0 0 1 12 0"/></mask><g fill="#64748B" mask="url(#mask0_8012_16909)"><path d="M260.667 71.5a4 4 0 1 1-8 0 4 4 0 0 1 8 0"/><path d="M258.667 65.5a2 2 0 1 1-4 0 2 2 0 0 1 4 0"/></g><path fill="#64748B" d="M130.667 113a6 6 0 1 0-12 0 6 6 0 0 0 12 0"/><path fill="#fff" d="M126.831 110.187a3.48 3.48 0 0 0-2.165-.749 3.46 3.46 0 0 0-1.734.459.03.03 0 0 0-.016.027v3.013a1.75 1.75 0 0 0 .7 1.4c.021.015.05 0 .05-.025v-1.375c0-.568.475-1.026 1.05-.999.537.026.95.49.95 1.028v1.345c0 .026.03.041.05.026a1.75 1.75 0 0 0 .7-1.399 1.75 1.75 0 0 0-1.75-1.75c-.351 0-.678.103-.952.281-.02.014-.048-.001-.048-.026v-1.045a.03.03 0 0 1 .02-.029 2.755 2.755 0 0 1 2.73.45 2.74 2.74 0 0 1 .897 2.869 2.76 2.76 0 0 1-.897 1.369 2.744 2.744 0 0 1-1.75.631h-1.613a.03.03 0 0 1-.022-.053l.267-.268c.015-.014.011-.039-.007-.049a2.6 2.6 0 0 1-.374-.261 2.7 2.7 0 0 1-.75-.973 2.734 2.734 0 0 1 0-2.29v-1.226c0-.028-.035-.043-.054-.022a3.48 3.48 0 0 0-.946 2.392 3.49 3.49 0 0 0 1.004 2.453v.044l-.95.949a.032.032 0 0 0 .022.054h3.424a3.5 3.5 0 0 0 2.165-.75q.327-.259.585-.585c.469-.595.75-1.347.75-2.165a3.49 3.49 0 0 0-1.335-2.749z"/><path fill="#F1F5F9" d="M136.667 83a4 4 0 0 1 4-4h101a2 2 0 0 1 2 2v36a2 2 0 0 1-2 2h-105z"/><path fill="#fff" d="M140.667 85a2 2 0 0 1 2-2h25a2 2 0 0 1 2 2v28a2 2 0 0 1-2 2h-25a2 2 0 0 1-2-2z"/><path fill="#64748B" d="M142.667 88.125A3.125 3.125 0 0 1 145.792 85h18.75a3.124 3.124 0 0 1 3.125 3.125v15.625a3.126 3.126 0 0 1-3.125 3.125h-18.75a3.125 3.125 0 0 1-3.125-3.125zm1.562 14.062v1.563a1.564 1.564 0 0 0 1.563 1.562h18.75a1.56 1.56 0 0 0 1.562-1.562v-5.469l-5.902-3.042a.78.78 0 0 0-.901.145l-5.797 5.797-4.156-2.769a.78.78 0 0 0-.985.097zm7.813-10.156a2.34 2.34 0 0 0-2.344-2.344 2.345 2.345 0 0 0-1.658 4.002 2.345 2.345 0 0 0 4.002-1.658"/><rect width="25" height="2" x="142.667" y="108.875" fill="#64748B" rx="1"/><path fill="#fff" d="M175.667 85a2 2 0 0 1 2-2h25a2 2 0 0 1 2 2v28a2 2 0 0 1-2 2h-25a2 2 0 0 1-2-2z"/><path fill="#64748B" d="M177.667 88.125A3.125 3.125 0 0 1 180.792 85h18.75a3.124 3.124 0 0 1 3.125 3.125v15.625a3.126 3.126 0 0 1-3.125 3.125h-18.75a3.125 3.125 0 0 1-3.125-3.125zm1.562 14.062v1.563a1.564 1.564 0 0 0 1.563 1.562h18.75a1.56 1.56 0 0 0 1.562-1.562v-5.469l-5.902-3.042a.78.78 0 0 0-.901.145l-5.797 5.797-4.156-2.769a.78.78 0 0 0-.985.097zm7.813-10.156a2.34 2.34 0 0 0-2.344-2.344 2.345 2.345 0 0 0-1.658 4.002 2.345 2.345 0 0 0 4.002-1.658"/><rect width="25" height="2" x="177.667" y="108.875" fill="#64748B" rx="1"/><path fill="#fff" d="M210.667 85a2 2 0 0 1 2-2h25a2 2 0 0 1 2 2v28a2 2 0 0 1-2 2h-25a2 2 0 0 1-2-2z"/><path fill="#64748B" d="M212.667 88.125A3.125 3.125 0 0 1 215.792 85h18.75a3.124 3.124 0 0 1 3.125 3.125v15.625a3.126 3.126 0 0 1-3.125 3.125h-18.75a3.125 3.125 0 0 1-3.125-3.125zm1.562 14.062v1.563a1.564 1.564 0 0 0 1.563 1.562h18.75a1.56 1.56 0 0 0 1.562-1.562v-5.469l-5.902-3.042a.78.78 0 0 0-.901.145l-5.797 5.797-4.156-2.769a.78.78 0 0 0-.985.097zm7.813-10.156a2.34 2.34 0 0 0-2.344-2.344 2.345 2.345 0 0 0-1.658 4.002 2.345 2.345 0 0 0 4.002-1.658"/><rect width="25" height="2" x="212.667" y="108.875" fill="#64748B" rx="1"/><mask id="path-91-inside-2_8012_16909" fill="#fff"><path d="M112.667 125h156v22a4 4 0 0 1-4 4h-148a4 4 0 0 1-4-4z"/></mask><path fill="#fff" d="M112.667 125h156v22a4 4 0 0 1-4 4h-148a4 4 0 0 1-4-4z"/><path fill="#fff" d="M112.667 125h156zm156.5 22a4.5 4.5 0 0 1-4.5 4.5h-148a4.5 4.5 0 0 1-4.5-4.5h1a3.5 3.5 0 0 0 3.5 3.5h148a3.5 3.5 0 0 0 3.5-3.5zm-152.5 4.5a4.5 4.5 0 0 1-4.5-4.5v-22h1v22a3.5 3.5 0 0 0 3.5 3.5zm152.5-26.5v22a4.5 4.5 0 0 1-4.5 4.5v-1a3.5 3.5 0 0 0 3.5-3.5v-22z" mask="url(#path-91-inside-2_8012_16909)"/><g clip-path="url(#clip1_8012_16909)"><path stroke="#94A3B8" stroke-linecap="round" stroke-linejoin="round" d="M128.667 137.5h3m-1.5-1.5v3m1 1.75v3.75a1 1 0 0 1-1 1h-7a1 1 0 0 1-1-1v-7a1 1 0 0 1 1-1h3.75m4.25 6-1.543-1.543a1 1 0 0 0-1.414 0l-4.543 4.543m2.5-6a1 1 0 1 1-2 0 1 1 0 0 1 2 0"/></g><rect width="40" height="2" x="140.667" y="140" fill="#D9D9D9" rx="1"/><path stroke="#fff" stroke-linecap="round" stroke-linejoin="round" d="m251.93 141-1.263-4 8 4m-6.737 0-1.263 4 8-4m-6.737 0h6.737"/><rect width="24" height="24" x="244.667" y="153" fill="#64748B" rx="12"/><path fill="#fff" d="M261.167 160c.397 0 .779.165 1.06.46.281.294.44.693.44 1.109v10.039a.4.4 0 0 1-.064.218.4.4 0 0 1-.168.144.365.365 0 0 1-.409-.085l-2.14-2.239a.73.73 0 0 0-.53-.23h-7.189c-.398 0-.78-.165-1.061-.46a1.6 1.6 0 0 1-.439-1.109v-6.278c0-.416.158-.815.439-1.109s.663-.46 1.061-.46z"/><defs><clipPath id="clip0_8012_16909"><path fill="#fff" d="M18.667 41h56v56h-56z"/></clipPath><clipPath id="clip1_8012_16909"><path fill="#fff" d="M120.667 135h12v12h-12z"/></clipPath><linearGradient id="paint0_linear_8012_16909" x1="46.673" x2="46.673" y1="41" y2="97" gradientUnits="userSpaceOnUse"><stop stop-color="#fff"/><stop offset="1" stop-color="#94A3B8"/></linearGradient></defs></svg>