<svg width="24" height="24" viewBox="0 0 24 24" fill="none" xmlns="http://www.w3.org/2000/svg">
<path d="M19.6371 21C19.6371 18.9961 18.8294 17.0744 17.3917 15.6574C15.954 14.2405 14.0041 13.4444 11.9709 13.4444M11.9709 13.4444C9.93767 13.4444 7.98775 14.2405 6.55006 15.6574C5.11237 17.0744 4.30469 18.9961 4.30469 21M11.9709 13.4444C14.6171 13.4444 16.7622 11.3302 16.7622 8.72222C16.7622 6.11421 14.6171 4 11.9709 4C9.32467 4 7.17951 6.11421 7.17951 8.72222C7.17951 11.3302 9.32467 13.4444 11.9709 13.4444ZM4.5 9C4.5 4.85786 7.85786 1.5 12 1.5C16.1421 1.5 19.5 4.85786 19.5 9M19 11L20 10V7L19 6L19.1922 7C19.3993 8.0357 19.3993 8.9643 19.1922 10L19 11ZM5 11L4 10V7L5 6L4.80469 7C4.59755 8.0357 4.59755 8.94868 4.80469 9.98438L5 11Z" stroke="black" stroke-width="1.5" stroke-linejoin="round"/>
</svg>
