<svg xmlns="http://www.w3.org/2000/svg" width="24" height="24" fill="none" viewBox="0 0 24 24"><path stroke="#000" stroke-linecap="round" stroke-linejoin="round" stroke-width="1.5" d="M8.68 4.128a2.35 2.35 0 0 1 .76-1.517 2.363 2.363 0 0 1 3.174 0c.434.394.706.935.761 1.517a2.34 2.34 0 0 0 1.17 1.828 2.37 2.37 0 0 0 2.175.095 2.366 2.366 0 0 1 3.017.964 2.343 2.343 0 0 1-.668 3.086 2.35 2.35 0 0 0-1.004 1.924M9.44 21.438a2.35 2.35 0 0 1-.762-1.516 2.35 2.35 0 0 0-1.17-1.829A2.37 2.37 0 0 0 5.333 18a2.367 2.367 0 0 1-3.017-.964 2.343 2.343 0 0 1 .67-3.086 2.35 2.35 0 0 0 1.003-1.924A2.34 2.34 0 0 0 2.985 10.1a2.35 2.35 0 0 1-.667-3.084 2.366 2.366 0 0 1 3.015-.966 2.366 2.366 0 0 0 2.984-.866c.203-.319.327-.681.36-1.057M22 14.709l-5.681 3.481a1.3 1.3 0 0 1-1.27 0l-5.687-3.48m5.747-2.714a3.93 3.93 0 0 0-.79-2.122 3.87 3.87 0 0 0-1.826-1.32 3.83 3.83 0 0 0-2.244-.074 4.2 4.2 0 0 0-2.493 1.905l-.686 1.2m0 0L6.513 9.49m.557 2.096 2.075-.562m1.481 1.862h10.11c.698 0 1.264.51 1.264 1.14v6.835C22 21.49 21.434 22 20.736 22h-10.11c-.698 0-1.264-.51-1.264-1.14v-6.834c0-.63.566-1.14 1.264-1.14"/></svg>