<svg xmlns="http://www.w3.org/2000/svg" width="286" height="194" fill="none" viewBox="0 0 286 194"><rect width="286" height="194" fill="#fff" rx="8"/><rect width="262" height="172" x="12" y="11" fill="#F1F5F9" rx="4"/><g opacity=".25"><rect width="10" height="10" x="18" y="18" fill="#CBD5E1" rx="5"/><rect width="24" height="6" x="30" y="20" fill="#CBD5E1" rx="3"/><path fill="#fff" d="M194.442 18H91.558c-1.137 0-2.058 1.12-2.058 2.5v5c0 1.38.921 2.5 2.058 2.5h102.884c1.137 0 2.058-1.12 2.058-2.5v-5c0-1.38-.921-2.5-2.058-2.5"/><path fill="#F0F2F7" d="M194.322 25.935a.362.362 0 0 1-.582 0l-2.328-2.828a.58.58 0 0 1 0-.707.362.362 0 0 1 .582 0l2.328 2.828a.58.58 0 0 1 0 .707"/><path fill="#F0F2F7" d="M191.411 24.9c1.137 0 2.058-1.12 2.058-2.502 0-1.38-.921-2.5-2.058-2.5s-2.058 1.12-2.058 2.5c0 1.381.922 2.501 2.058 2.501"/><path fill="#fff" d="M191.411 24.148c.796 0 1.44-.783 1.44-1.75 0-.966-.644-1.75-1.44-1.75s-1.44.784-1.44 1.75c0 .967.645 1.75 1.44 1.75"/><rect width="36" height="12" x="232" y="17" fill="#0093E5" rx="4"/><rect width="13.5" height="2" x="243.25" y="22" fill="#D9D9D9" rx="1"/></g><g opacity=".25"><g clip-path="url(#clip0_8012_17075)"><path fill="url(#paint0_linear_8012_17075)" d="M42.5 49.75a8.75 8.75 0 1 1-17.5 0 8.75 8.75 0 0 1 17.5 0m14.787 14.185a1.75 1.75 0 0 0-2.02.326L42.284 80.746l-9.31-9.702a1.75 1.75 0 0 0-2.205.217L18.007 86.5v7a3.5 3.5 0 0 0 3.5 3.5h49a3.5 3.5 0 0 0 3.5-3.5V77.75z"/></g><rect width="96" height="8" x="86" y="43" fill="#94A3B8" rx="4"/><rect width="144" height="6" x="86" y="57" fill="#CBD5E1" rx="3"/><rect width="144" height="6" x="86" y="69" fill="#CBD5E1" rx="3"/><rect width="48" height="8" x="86" y="87" fill="#94A3B8" rx="4"/><rect width="18" height="2" x="101" y="92" fill="#D9D9D9" rx="1"/></g><g opacity=".25"><path fill="#CBD5E1" d="M20.244 109h35.91a2.244 2.244 0 0 1 2.244 2.24v31.36H18v-31.36a2.244 2.244 0 0 1 2.244-2.24"/><path fill="#fff" d="M18 142.6h40.398v20.16a2.244 2.244 0 0 1-2.245 2.24H20.244A2.244 2.244 0 0 1 18 162.76z"/><path fill="#94A3B8" d="M53.909 148.199h-31.42a1.12 1.12 0 1 1 0-2.24h31.42a1.12 1.12 0 1 1 0 2.24"/><path fill="#CBD5E1" d="M47.176 152.679H22.488a1.12 1.12 0 0 1-1.121-1.119 1.12 1.12 0 0 1 1.121-1.119h24.688a1.12 1.12 0 1 1 0 2.238"/><path fill="#0093E5" d="M38.198 157.159h-15.71a1.12 1.12 0 0 1-1.121-1.119 1.12 1.12 0 0 1 1.121-1.119h15.71a1.12 1.12 0 1 1 0 2.238"/><path fill="#FFC800" d="m22.909 159.456.38.737.853.117-.617.575.146.811-.762-.384-.763.384.145-.811-.617-.575.852-.117zM27.06 159.456l.382.737.853.118-.618.574.146.811-.763-.384-.763.384.146-.811-.618-.574.854-.118zM31.213 159.456l.38.737.853.118-.616.574.145.811-.762-.384-.763.384.145-.811-.617-.574.853-.118zM35.364 159.456l.382.737.853.118-.618.574.146.811-.763-.384-.763.384.146-.811-.617-.574.853-.118zM40.75 160.311l-.853-.118-.38-.737-.382.737-.852.118.617.574-.147.811.763-.383.763.383-.146-.811zm-1.14.814a.21.21 0 0 0-.188 0l-.388.194.072-.397a.21.21 0 0 0-.064-.191l-.293-.273.415-.058a.21.21 0 0 0 .158-.112l.194-.376.195.376c.032.06.09.103.158.112l.415.058-.294.273a.21.21 0 0 0-.063.191l.072.397z"/><path fill="#fff" d="M38.216 115.383h4.522l.422 20.832h-2.086l-1.234-9.207-1.624-8.624z"/><path fill="#fff" d="M38.217 115.383h-4.523l-.422 20.832h2.087l1.232-9.207 1.626-8.624z"/><path fill="#94A3B8" d="M42.738 114.877h-9.045a.253.253 0 1 0 0 .506h9.045a.253.253 0 1 0 0-.506M35.341 136.215h-2.09a.253.253 0 1 0 0 .507h2.09a.253.253 0 1 0 0-.507M43.149 136.215h-2.091a.253.253 0 1 0 0 .507h2.09a.253.253 0 1 0 0-.507"/><path fill="#CBD5E1" d="M69.642 109h35.909a2.244 2.244 0 0 1 2.244 2.24v31.36H67.397v-31.36a2.244 2.244 0 0 1 2.245-2.24"/><path fill="#fff" d="M67.398 142.6h40.397v20.16a2.244 2.244 0 0 1-2.244 2.24h-35.91a2.244 2.244 0 0 1-2.244-2.24z"/><path fill="#94A3B8" d="M103.306 148.199h-31.42a1.12 1.12 0 1 1 0-2.24h31.42a1.12 1.12 0 1 1 0 2.24"/><path fill="#CBD5E1" d="M101.062 152.679H71.886a1.12 1.12 0 0 1-1.122-1.119 1.12 1.12 0 0 1 1.122-1.119h29.176a1.12 1.12 0 1 1 0 2.238"/><path fill="#0093E5" d="M87.596 157.159h-15.71a1.12 1.12 0 0 1-1.122-1.119 1.12 1.12 0 0 1 1.122-1.119h15.71a1.12 1.12 0 1 1 0 2.238"/><path fill="#FFC800" d="m72.305 159.456.382.737.853.117-.617.575.145.811-.763-.384-.762.384.145-.811-.617-.575.853-.117zM76.457 159.456l.381.737.854.118-.618.574.147.811-.764-.384-.763.384.147-.811-.618-.574.853-.118zM80.61 159.456l.381.737.853.118-.617.574.145.811-.762-.384-.763.384.145-.811-.617-.574.853-.118zM85.996 160.311l-.853-.118-.38-.737-.382.737-.852.118.617.574-.147.811.763-.383.763.383-.146-.811zm-1.14.814-.095-.047-.094.047-.388.194.072-.397.02-.113-.084-.078-.294-.273.416-.058.107-.015.05-.097.194-.376.195.376.05.097.107.015.415.058-.294.273-.084.078.02.113.072.397-.388-.194zM90.147 160.311l-.852-.118-.381-.737-.381.737-.853.118.617.574-.146.811.763-.383.763.383-.146-.811zm-1.139.814-.094-.047-.095.047-.388.194.072-.397.02-.113-.083-.078-.294-.273.415-.058.107-.015.05-.097.195-.376.194.376.05.097.107.015.415.058-.294.273-.083.078.02.113.072.397-.388-.194z"/><path fill="#fff" d="m100.81 122.395-1.398 1.393a1.124 1.124 0 0 1-1.586 0l-2.405-2.4s-1.04 3.112-1.04 6.592 1.04 7.079 1.04 7.079c0 .618-.502 1.12-1.121 1.12H80.908c-.62 0-1.123-.501-1.123-1.12 0 0 1.04-4.379 1.04-7.339s-1.04-6.345-1.04-6.345l-2.417 2.413a1.123 1.123 0 0 1-1.588 0l-1.395-1.392a1.12 1.12 0 0 1 0-1.585l2.945-2.938a8.4 8.4 0 0 1 5.927-2.449h8.683c2.224 0 4.356.881 5.929 2.451l2.942 2.936a1.12 1.12 0 0 1 0 1.585z"/><path fill="#CBD5E1" d="M84.237 115.421a3.364 3.364 0 0 0 3.367 3.361 3.364 3.364 0 0 0 3.367-3.361h-6.733"/><path fill="#fff" d="M90.299 115.421a2.694 2.694 0 0 1-2.695 2.691 2.694 2.694 0 0 1-2.695-2.691z"/><path fill="#CBD5E1" d="M119.039 109h35.909a2.243 2.243 0 0 1 2.244 2.24v31.36h-40.397v-31.36a2.244 2.244 0 0 1 2.244-2.24"/><path fill="#fff" d="M116.795 142.6h40.397v20.16a2.243 2.243 0 0 1-2.244 2.24h-35.909a2.244 2.244 0 0 1-2.244-2.24z"/><path fill="#94A3B8" d="M152.704 148.199h-31.421a1.12 1.12 0 1 1 0-2.24h31.421a1.12 1.12 0 1 1 0 2.24"/><path fill="#CBD5E1" d="M143.726 152.679h-22.443a1.12 1.12 0 1 1 0-2.238h22.443a1.12 1.12 0 0 1 1.122 1.119 1.12 1.12 0 0 1-1.122 1.119"/><path fill="#0093E5" d="M136.993 157.159h-15.71a1.12 1.12 0 1 1 0-2.238h15.71a1.12 1.12 0 1 1 0 2.238"/><path fill="#FFC800" d="m121.702 159.456.382.737.853.117-.617.575.145.811-.763-.384-.762.384.146-.811-.617-.575.852-.117zM125.855 159.456l.381.737.854.118-.618.574.146.811-.763-.384-.763.384.146-.811-.618-.574.854-.118zM130.008 159.456l.381.737.852.118-.616.574.145.811-.762-.384-.763.384.145-.811-.617-.574.853-.118zM134.159 159.456l.382.737.853.118-.618.574.146.811-.763-.384-.763.384.146-.811-.618-.574.854-.118zM139.545 160.311l-.853-.118-.381-.737-.381.737-.852.118.616.574-.146.811.763-.383.763.383-.146-.811zm-1.139.814-.095-.047-.094.047-.388.194.072-.397.02-.113-.084-.078-.294-.273.416-.058.107-.015.049-.097.195-.376.195.376.049.097.108.015.415.058-.294.273-.084.078.02.113.072.397-.388-.194z"/><path fill="#94A3B8" d="M136.994 127.051c-2.713 0-4.921-2.204-4.921-4.911s2.207-4.911 4.921-4.911a4.92 4.92 0 0 1 4.92 4.911c0 2.707-2.208 4.911-4.92 4.911m0-8.774a3.87 3.87 0 0 0-3.87 3.863 3.87 3.87 0 0 0 7.74 0 3.87 3.87 0 0 0-3.87-3.863"/><path fill="#fff" d="M143.793 134.37h-13.597c-1.993 0-3.456-1.869-2.972-3.798l1.822-7.274a1.53 1.53 0 0 1 1.486-1.158h12.924c.703 0 1.315.478 1.486 1.158l1.823 7.274c.483 1.929-.979 3.798-2.972 3.798"/><path fill="#94A3B8" d="M139.075 126.391h.002a1.47 1.47 0 0 1-.002 2.078l-2.082 2.079-2.082-2.078a1.467 1.467 0 0 1 .001-2.076h.001a1.47 1.47 0 0 1 2.079-.001h.001a1.473 1.473 0 0 1 2.081-.002z"/></g><path fill="#64748B" d="M112 21a4 4 0 0 1 4-4h148a4 4 0 0 1 4 4v22H112z"/><path fill="#fff" d="M132 30a7 7 0 1 0-14 0 7 7 0 0 0 14 0"/><path fill="#64748B" d="M127.526 26.719a4.064 4.064 0 0 0-2.526-.875 4.04 4.04 0 0 0-2.023.536.04.04 0 0 0-.019.032v3.514a2.04 2.04 0 0 0 .817 1.634c.024.018.058 0 .058-.03v-1.604c0-.662.555-1.197 1.225-1.165.627.03 1.109.571 1.109 1.199v1.57c0 .03.034.047.058.03a2.04 2.04 0 0 0 .817-1.633A2.04 2.04 0 0 0 125 27.886c-.41 0-.791.12-1.11.328a.037.037 0 0 1-.057-.03v-1.22c0-.015.01-.029.024-.034a3.2 3.2 0 0 1 2.31.01c.319.125.614.3.875.516a3.2 3.2 0 0 1 0 4.944 3.2 3.2 0 0 1-2.042.736h-1.883c-.032 0-.048-.04-.025-.062l.312-.312a.036.036 0 0 0-.008-.057 3 3 0 0 1-.663-.51 3.184 3.184 0 0 1-.941-2.267c0-.476.105-.928.292-1.335v-1.43c0-.033-.041-.05-.063-.026a4.06 4.06 0 0 0-1.104 2.79 4.07 4.07 0 0 0 1.172 2.862v.051l-1.109 1.108c-.022.023-.006.062.026.062h3.995a4.06 4.06 0 0 0 2.526-.874q.38-.302.682-.682a4.06 4.06 0 0 0 .875-2.526c0-1.302-.609-2.46-1.557-3.208z"/><path fill="#fff" d="M138.92 29.726h-3.038v-2.6H135v6.03h.882v-2.604h3.038v2.604h.886v-6.03h-.886zM143.814 28.828q-.49-.32-1.185-.32c-.464 0-.834.099-1.169.297a2.04 2.04 0 0 0-.783.842q-.28.546-.28 1.286 0 .7.285 1.229t.797.825 1.192.295c.453 0 .842-.11 1.202-.332a2.03 2.03 0 0 0 .806-.94l-.865-.272q-.168.347-.47.534-.303.186-.716.186-.629 0-.962-.408-.274-.34-.322-.907h3.394q.051-.813-.192-1.403a1.93 1.93 0 0 0-.732-.911m-2.148.869q.334-.415.996-.415.6 0 .892.377.22.285.281.8h-2.47q.069-.473.301-.762M146.313 27h-.882v6.157h.882zM150.47 28.82q-.467-.312-1.107-.313c-.427 0-.793.104-1.087.313a2 2 0 0 0-.255.223v-.41h-.785v6.534h.886v-2.334q.076.07.16.133.444.316 1.097.316c.437 0 .791-.104 1.099-.314a2.05 2.05 0 0 0 .713-.856q.25-.542.251-1.221c0-.452-.084-.862-.252-1.22a2.04 2.04 0 0 0-.72-.85zm-.101 2.88a1.3 1.3 0 0 1-.413.577q-.276.213-.698.213c-.281 0-.527-.068-.709-.205a1.17 1.17 0 0 1-.401-.565 2.5 2.5 0 0 1-.127-.83q0-.468.128-.83.129-.36.397-.56.268-.202.682-.201.439 0 .721.213.284.214.42.573.138.36.137.804c0 .296-.045.57-.137.811M156.832 28.52q-.456 0-.823.2a1.5 1.5 0 0 0-.562.53 1.3 1.3 0 0 0-.498-.526 1.6 1.6 0 0 0-.827-.204 1.67 1.67 0 0 0-.831.201 1.6 1.6 0 0 0-.477.4v-.488h-.785v4.524h.887V30.33q0-.46.255-.746a.86.86 0 0 1 .673-.285q.419 0 .673.281.25.281.251.775l-.005 2.802h.882l.004-2.826q0-.344.128-.572a.87.87 0 0 1 .338-.344.95.95 0 0 1 .462-.115q.414 0 .667.274.253.275.253.764l-.005 2.819h.882l.005-3.028q0-.73-.406-1.168-.405-.44-1.143-.44zM162.688 29.37a1.3 1.3 0 0 0-.664-.655 2.54 2.54 0 0 0-1.065-.208q-.79 0-1.264.344t-.643.926l.822.25q.118-.381.418-.546t.658-.166q.57 0 .804.258.204.225.224.659l-.52.072q-.424.058-.808.126a7 7 0 0 0-.687.155 2 2 0 0 0-.591.295q-.24.183-.363.442a1.4 1.4 0 0 0-.123.603q0 .367.175.676.175.308.517.494.342.187.848.187.637 0 1.074-.254.327-.19.568-.528v.656h.781V30.37q0-.285-.025-.531a1.4 1.4 0 0 0-.136-.469m-.81 2.3q-.05.221-.215.426-.165.206-.434.337-.27.132-.646.132-.282 0-.464-.087a.6.6 0 0 1-.27-.237.62.62 0 0 1-.006-.63.7.7 0 0 1 .223-.214 1.6 1.6 0 0 1 .324-.15q.214-.069.491-.115.276-.049.618-.099l.47-.07-.008.255a1.5 1.5 0 0 1-.083.452M164.861 27.377h-.887v1.256h-.873v.704h.873v2.04q0 .368.011.66.011.29.157.57.165.315.49.462.325.146.739.159a3.8 3.8 0 0 0 .844-.072v-.74a3.2 3.2 0 0 1-.778.027.6.6 0 0 1-.484-.295.7.7 0 0 1-.086-.34 13 13 0 0 1-.006-.473v-1.997h1.354v-.704h-1.354zM170.293 31.142h.439q.05-.812-.192-1.403a1.94 1.94 0 0 0-.732-.91q-.49-.322-1.186-.322c-.463 0-.833.1-1.169.298a2.04 2.04 0 0 0-.782.842q-.28.546-.28 1.286 0 .7.284 1.229.285.53.797.825t1.192.295c.454 0 .843-.11 1.203-.332a2.03 2.03 0 0 0 .806-.94l-.865-.272q-.168.347-.471.534a1.33 1.33 0 0 1-.715.186q-.63 0-.962-.408-.275-.34-.322-.907zm-2.633-1.445q.333-.415.996-.415.599 0 .892.377.221.285.28.8h-2.47q.07-.473.302-.762"/><path stroke="#fff" stroke-linecap="round" stroke-linejoin="round" d="M257 28.2h5m-.556 0v4.2c0 .3-.277.6-.555.6h-2.778c-.278 0-.555-.3-.555-.6v-4.2m.833 0v-.6c0-.3.278-.6.555-.6h1.112c.277 0 .555.3.555.6v.6m-1.667 1.5v1.8m1.112-1.8v1.8"/><mask id="path-70-inside-1_8012_17075" fill="#fff"><path d="M112 43h156v82H112z"/></mask><path fill="#fff" d="M112 43h156v82H112z"/><path fill="#D1D5DB" d="M268 125v.5h.5v-.5zm-156 0h-.5v.5h.5zm156-82h-.5v82h1V43zm0 82v-.5H112v1h156zm-156 0h.5V43h-1v82z" mask="url(#path-70-inside-1_8012_17075)"/><path fill="#94A3B8" d="M166 53a2 2 0 0 1 2-2h72a4 4 0 0 1 4 4v8h-76a2 2 0 0 1-2-2z"/><path fill="#fff" d="M182.472 52.9v1h-2.17V60h-1.1v-6.1h-2.17v-1zm.92 1.8h.99l.03.98c.18-.67.58-.98 1.26-.98h.5v.88h-.51c-.83 0-1.19.45-1.19 1.33V60h-1.08zm3.578 1.59c.21-1.07 1.05-1.71 2.27-1.71 1.45 0 2.24.8 2.24 2.25v1.97c0 .26.11.35.32.35h.22V60h-.34c-.48.01-1.14-.07-1.19-.81-.23.5-.82.93-1.7.93-1.06 0-1.91-.57-1.91-1.51 0-1.06.79-1.37 2.01-1.61l1.51-.29c-.01-.85-.39-1.25-1.16-1.25-.61 0-1.01.31-1.16.9zm1.03 2.3c0 .38.33.7 1.02.7.79 0 1.4-.57 1.4-1.71v-.05l-1.12.2c-.72.13-1.3.19-1.3.86m8.441-2.03c-.1-.66-.62-1.05-1.22-1.05-.9 0-1.41.69-1.41 1.84s.51 1.84 1.41 1.84c.63 0 1.14-.41 1.25-1.14l1.13.06c-.16 1.24-1.16 2.01-2.38 2.01-1.53 0-2.53-1.08-2.53-2.77s1-2.77 2.53-2.77c1.18 0 2.2.73 2.34 1.92zm2.195-3.66h1.08v4.4l2.33-2.6h1.37l-2.07 2.22 2.17 3.08h-1.26l-1.62-2.4-.92 1V60h-1.08zm11.565 7.26c-2.07 0-3.32-1.41-3.32-3.7 0-2.31 1.25-3.72 3.32-3.72 2.08 0 3.32 1.41 3.32 3.72 0 2.29-1.24 3.7-3.32 3.7m-2.18-3.7c0 1.68.81 2.7 2.18 2.7s2.18-1.02 2.18-2.7c0-1.7-.81-2.72-2.18-2.72s-2.18 1.02-2.18 2.72m6.523-1.76h.99l.03.98c.18-.67.58-.98 1.26-.98h.5v.88h-.51c-.83 0-1.19.45-1.19 1.33V60h-1.08zm8.194-1.8V60h-1l-.03-.75c-.3.54-.92.87-1.65.87-1.38 0-2.24-1.07-2.24-2.77s.86-2.77 2.24-2.77c.7 0 1.3.31 1.6.82v-2.5zm-3.81 4.45c0 1.13.56 1.84 1.41 1.84.86 0 1.4-.71 1.4-1.84 0-1.15-.54-1.87-1.4-1.87s-1.41.72-1.41 1.87m4.993 0c0-1.69 1-2.77 2.53-2.77 1.26 0 2.34.84 2.4 2.73v.35h-3.79c.06.97.56 1.54 1.39 1.54.52 0 .99-.3 1.21-.8l1.12.08c-.32 1.01-1.25 1.64-2.33 1.64-1.53 0-2.53-1.08-2.53-2.77m1.15-.5h2.65c-.13-1-.68-1.35-1.27-1.35-.77 0-1.26.5-1.38 1.35m4.922-2.15h.99l.03.98c.18-.67.58-.98 1.26-.98h.5v.88h-.51c-.83 0-1.19.45-1.19 1.33V60h-1.08z"/><path fill="#E2E8F0" d="M262 57a6 6 0 1 1-12 0 6 6 0 0 1 12 0"/><mask id="mask0_8012_17075" width="12" height="12" x="250" y="51" maskUnits="userSpaceOnUse" style="mask-type:alpha"><path fill="#DFF3FF" d="M262 57a6 6 0 1 1-12 0 6 6 0 0 1 12 0"/></mask><g fill="#64748B" mask="url(#mask0_8012_17075)"><path d="M260 61.5a4 4 0 1 1-8 0 4 4 0 0 1 8 0"/><path d="M258 55.5a2 2 0 1 1-4 0 2 2 0 0 1 4 0"/></g><path fill="#64748B" d="M130 113a6 6 0 1 0-12 0 6 6 0 0 0 12 0"/><path fill="#fff" d="M126.165 110.187a3.484 3.484 0 0 0-2.165-.749c-.638 0-1.223.166-1.735.459q-.015.009-.015.027v3.013a1.744 1.744 0 0 0 .7 1.4c.02.015.05 0 .05-.025v-1.375c0-.568.475-1.026 1.049-.999.538.026.951.49.951 1.028v1.345c0 .026.029.041.05.026a1.76 1.76 0 0 0 .7-1.399 1.75 1.75 0 0 0-1.75-1.75c-.351 0-.678.103-.952.281a.03.03 0 0 1-.048-.026v-1.045a.03.03 0 0 1 .02-.029 2.755 2.755 0 0 1 2.73.45 2.744 2.744 0 0 1 0 4.238 2.748 2.748 0 0 1-1.75.631h-1.614c-.028 0-.042-.034-.022-.053l.268-.268a.03.03 0 0 0-.007-.049 2.9 2.9 0 0 1-.568-.436 2.8 2.8 0 0 1-.703-1.194 2.74 2.74 0 0 1 .146-1.894v-1.226c0-.028-.035-.043-.054-.022a3.48 3.48 0 0 0-.946 2.392 3.49 3.49 0 0 0 1.004 2.453v.044l-.95.949c-.019.02-.005.054.022.054H124a3.48 3.48 0 0 0 2.165-.75 3.48 3.48 0 0 0 1.335-2.75 3.49 3.49 0 0 0-1.335-2.749z"/><path fill="#F1F5F9" d="M136 73a4 4 0 0 1 4-4h69a2 2 0 0 1 2 2v46a2 2 0 0 1-2 2h-73z"/><path fill="#EDF3FF" d="M136 73.334a4 4 0 0 1 4-4h68.501a2 2 0 0 1 2 2V117a2 2 0 0 1-2 2H136z"/><rect width="58" height="2" x="141" y="72" fill="#64748B" rx="1"/><rect width="65" height="38" x="141" y="77" fill="#fff" rx="1"/><rect width="39" height="2" x="144" y="80" fill="#CBD5E1" rx="1"/><rect width="24" height="2" x="144" y="97" fill="#CBD5E1" rx="1"/><rect width="12" height="2" x="170" y="97" fill="#CBD5E1" rx="1"/><rect width="16" height="2" x="144" y="103" fill="#CBD5E1" rx="1"/><rect width="16" height="2" x="144" y="110" fill="#CBD5E1" rx="1"/><g clip-path="url(#clip1_8012_17075)"><path fill="#64748B" d="M201.923 104.342a3.7 3.7 0 0 0-.957-.675.18.18 0 0 1-.101-.158v-3.418a.18.18 0 0 0-.089-.155l-1.333-.773-5.421-3.14a.18.18 0 0 0-.178 0l-5.422 3.138-1.333.775a.18.18 0 0 0-.089.155v7.822a.18.18 0 0 0 .089.155l6.755 3.911a.18.18 0 0 0 .178 0l3.152-1.825a.18.18 0 0 1 .214.027l1.763 1.728c.069.068.18.068.249 0l2.523-2.471a3.55 3.55 0 0 0 0-5.094zm-7.901-6.67 3.732 2.16a.178.178 0 0 1 0 .309l-3.732 2.16a.18.18 0 0 1-.178 0l-3.731-2.16a.178.178 0 0 1 0-.309l3.731-2.16a.18.18 0 0 1 .178 0m-5.333 3.293 4.444 2.572a.18.18 0 0 1 .089.155v5.968a.178.178 0 0 1-.266.155l-4.445-2.573a.18.18 0 0 1-.089-.155v-5.967c0-.137.148-.223.267-.155m5.955 8.695v-5.968a.18.18 0 0 1 .089-.155l4.445-2.572a.178.178 0 0 1 .266.155v2.169q-.06-.003-.12-.002c-.941 0-1.883.352-2.601 1.055l-.047.046a3.55 3.55 0 0 0-.506 4.476.18.18 0 0 1-.057.255l-1.202.696a.178.178 0 0 1-.267-.155m6.285-1.247-1.529 1.498a.177.177 0 0 1-.249 0l-.579-.569-.902-.883a2 2 0 0 1-.146-.159 2.11 2.11 0 0 1 .146-2.891l.046-.047a2.28 2.28 0 0 1 1.608-.649l.12.002a2.28 2.28 0 0 1 1.423.588l.062.059a2.12 2.12 0 0 1 0 3.051m-.708-2.293c.898 1.226-.464 2.594-1.687 1.693a.2.2 0 0 1-.044-.044c-.898-1.226.464-2.594 1.687-1.693a.2.2 0 0 1 .044.044"/></g><rect width="28" height="9" x="175" y="84" fill="#0093E5" rx="1"/><rect width="27.5" height="8.5" x="144.25" y="84.25" stroke="#CBD5E1" stroke-width=".5" rx=".75"/><path fill="#EFF8FF" d="M180.845 88.82c.085.445.395.74.915.74.415 0 .69-.16.69-.48-.005-.325-.285-.52-.94-.685-.64-.155-1.155-.45-1.155-1.025 0-.615.5-1 1.22-1 .775 0 1.295.48 1.37 1.155l-.56.03c-.06-.415-.37-.685-.82-.685-.375 0-.65.195-.645.505.005.39.475.5.89.61.69.175 1.205.505 1.205 1.055 0 .665-.605 1.02-1.285 1.02-.81 0-1.39-.475-1.45-1.205zm2.671-.145c0-.845.5-1.385 1.265-1.385.63 0 1.17.42 1.2 1.365v.175h-1.895c.03.485.28.77.695.77.26 0 .495-.15.605-.4l.56.04c-.16.505-.625.82-1.165.82-.765 0-1.265-.54-1.265-1.385m.575-.25h1.325c-.065-.5-.34-.675-.635-.675-.385 0-.63.25-.69.675m2.409-.28c.105-.535.525-.855 1.135-.855.725 0 1.12.4 1.12 1.125v.985c0 .13.055.175.16.175h.11V90h-.17c-.24.005-.57-.035-.595-.405-.115.25-.41.465-.85.465-.53 0-.955-.285-.955-.755 0-.53.395-.685 1.005-.805l.755-.145c-.005-.425-.195-.625-.58-.625-.305 0-.505.155-.58.45zm.515 1.15c0 .19.165.35.51.35.395 0 .7-.285.7-.855v-.025l-.56.1c-.36.065-.65.095-.65.43m2.51-1.945h.495l.015.49c.09-.335.29-.49.63-.49h.25v.44h-.255c-.415 0-.595.225-.595.665V90h-.54zm3.512.93a.6.6 0 0 0-.61-.525c-.45 0-.705.345-.705.92s.255.92.705.92c.315 0 .57-.205.625-.57l.565.03c-.08.62-.58 1.005-1.19 1.005-.765 0-1.265-.54-1.265-1.385s.5-1.385 1.265-1.385c.59 0 1.1.365 1.17.96zm1.098-1.83h.54v1.255c.155-.295.455-.415.775-.415.595 0 .895.44.895 1.005V90h-.54v-1.515c0-.465-.14-.715-.505-.715-.385 0-.625.25-.625.715V90h-.54z"/><rect width="15" height="3" x="150" y="87" fill="#64748B" rx="1.5"/><mask id="path-94-inside-2_8012_17075" fill="#fff"><path d="M112 125h156v22a4 4 0 0 1-4 4H116a4 4 0 0 1-4-4z"/></mask><path fill="#fff" d="M112 125h156v22a4 4 0 0 1-4 4H116a4 4 0 0 1-4-4z"/><path fill="#D1D5DB" d="M112 125h156zm156.5 22a4.5 4.5 0 0 1-4.5 4.5H116a4.5 4.5 0 0 1-4.5-4.5h1a3.5 3.5 0 0 0 3.5 3.5h148a3.5 3.5 0 0 0 3.5-3.5zM116 151.5a4.5 4.5 0 0 1-4.5-4.5v-22h1v22a3.5 3.5 0 0 0 3.5 3.5zM268.5 125v22a4.5 4.5 0 0 1-4.5 4.5v-1a3.5 3.5 0 0 0 3.5-3.5v-22z" mask="url(#path-94-inside-2_8012_17075)"/><path stroke="#94A3B8" stroke-linecap="round" stroke-linejoin="round" d="M128 137.5h3m-1.5-1.5v3m1 1.75v3.75a.997.997 0 0 1-1 1h-7a.997.997 0 0 1-1-1v-7a.997.997 0 0 1 1-1h3.75m4.25 6-1.543-1.543a1 1 0 0 0-1.414 0L123 145.5m2.5-6a1 1 0 1 1-2 0 1 1 0 0 1 2 0"/><rect width="40" height="2" x="140" y="140" fill="#D9D9D9" rx="1"/><path stroke="#64748B" stroke-linecap="round" stroke-linejoin="round" d="M251.263 141 250 137l8 4m-6.737 0L250 145l8-4m-6.737 0H258"/><rect width="24" height="24" x="244" y="153" fill="#64748B" rx="12"/><path fill="#fff" d="M260.5 160c.398 0 .779.165 1.061.46.281.294.439.693.439 1.109v10.039a.4.4 0 0 1-.063.218.4.4 0 0 1-.169.144.35.35 0 0 1-.217.022.37.37 0 0 1-.192-.107l-2.139-2.239a.74.74 0 0 0-.53-.23h-7.19c-.398 0-.779-.165-1.061-.46a1.6 1.6 0 0 1-.439-1.109v-6.278c0-.416.158-.815.439-1.109s.663-.46 1.061-.46z"/><defs><clipPath id="clip0_8012_17075"><path fill="#fff" d="M18 41h56v56H18z"/></clipPath><clipPath id="clip1_8012_17075"><path fill="#fff" d="M187 96h16v16h-16z"/></clipPath><linearGradient id="paint0_linear_8012_17075" x1="46.007" x2="46.007" y1="41" y2="97" gradientUnits="userSpaceOnUse"><stop stop-color="#CBD5E1"/><stop offset="1" stop-color="#94A3B8"/></linearGradient></defs></svg>