<svg xmlns="http://www.w3.org/2000/svg" width="287" height="194" fill="none" viewBox="0 0 287 194"><rect width="286" height="194" x=".333" fill="#fff" rx="8"/><rect width="262" height="172" x="12.334" y="11" fill="#F1F5F9" rx="4"/><g opacity=".25"><rect width="10" height="10" x="18.334" y="18" fill="#CBD5E1" rx="5"/><rect width="24" height="6" x="30.334" y="20" fill="#CBD5E1" rx="3"/><path fill="#fff" d="M194.775 18H91.892c-1.137 0-2.058 1.12-2.058 2.5v5c0 1.38.921 2.5 2.058 2.5h102.883c1.137 0 2.058-1.12 2.058-2.5v-5c0-1.38-.921-2.5-2.058-2.5"/><path fill="#F0F2F7" d="M194.655 25.935a.362.362 0 0 1-.582 0l-2.327-2.828a.58.58 0 0 1 0-.707.362.362 0 0 1 .582 0l2.327 2.828a.58.58 0 0 1 0 .707"/><path fill="#F0F2F7" d="M191.745 24.9c1.136 0 2.058-1.12 2.058-2.502 0-1.38-.922-2.5-2.058-2.5-1.137 0-2.058 1.12-2.058 2.5 0 1.381.921 2.501 2.058 2.501"/><path fill="#fff" d="M191.745 24.148c.795 0 1.44-.783 1.44-1.75 0-.966-.645-1.75-1.44-1.75-.796 0-1.44.784-1.44 1.75 0 .967.644 1.75 1.44 1.75"/><rect width="36" height="12" x="232.333" y="17" fill="#0093E5" rx="4"/><rect width="13.5" height="2" x="243.583" y="22" fill="#D9D9D9" rx="1"/></g><g opacity=".25"><g clip-path="url(#clip0_8012_10568)"><path fill="url(#paint0_linear_8012_10568)" d="M42.833 49.75a8.75 8.75 0 1 1-17.5 0 8.75 8.75 0 0 1 17.5 0m14.788 14.185a1.75 1.75 0 0 0-2.02.326L42.616 80.746l-9.31-9.702a1.75 1.75 0 0 0-2.205.217L18.341 86.5v7a3.5 3.5 0 0 0 3.5 3.5h49a3.5 3.5 0 0 0 3.5-3.5V77.75z"/></g><rect width="96" height="8" x="86.334" y="43" fill="#94A3B8" rx="4"/><rect width="144" height="6" x="86.334" y="57" fill="#CBD5E1" rx="3"/><rect width="144" height="6" x="86.334" y="69" fill="#CBD5E1" rx="3"/><rect width="48" height="8" x="86.334" y="87" fill="#94A3B8" rx="4"/><rect width="18" height="2" x="101.333" y="92" fill="#D9D9D9" rx="1"/></g><g opacity=".25"><path fill="#CBD5E1" d="M75.982 109h35.909a2.244 2.244 0 0 1 2.244 2.24v31.36H73.737v-31.36a2.244 2.244 0 0 1 2.245-2.24"/><path fill="#fff" d="M73.737 142.6h40.398v20.16a2.244 2.244 0 0 1-2.244 2.24h-35.91a2.244 2.244 0 0 1-2.244-2.24z"/><path fill="#94A3B8" d="M109.646 148.199h-31.42a1.12 1.12 0 1 1 0-2.24h31.42a1.121 1.121 0 0 1 0 2.24"/><path fill="#CBD5E1" d="M102.913 152.679H78.226a1.12 1.12 0 0 1-1.122-1.119 1.12 1.12 0 0 1 1.122-1.119h24.687a1.12 1.12 0 0 1 1.122 1.119 1.12 1.12 0 0 1-1.122 1.119"/><path fill="#0093E5" d="M93.936 157.159h-15.71a1.12 1.12 0 0 1-1.122-1.119 1.12 1.12 0 0 1 1.122-1.119h15.71a1.12 1.12 0 1 1 0 2.238"/><path fill="#FFC800" d="m78.646 159.456.38.737.853.117-.616.575.145.811-.762-.384-.763.384.145-.811-.617-.575.853-.117zM82.797 159.456l.382.737.853.118-.618.574.146.811-.763-.384-.763.384.146-.811-.618-.574.854-.118zM86.95 159.456l.381.737.853.118-.617.574.145.811-.762-.384-.763.384.145-.811-.617-.574.853-.118zM91.101 159.456l.382.737.853.118-.618.574.146.811-.763-.384-.763.384.147-.811-.617-.574.852-.118zM96.487 160.311l-.852-.118-.381-.737-.381.737-.853.118.617.574-.146.811.763-.383.763.383-.147-.811zm-1.139.814a.21.21 0 0 0-.189 0l-.388.194.072-.397a.21.21 0 0 0-.064-.191l-.293-.273.415-.058a.21.21 0 0 0 .158-.112l.195-.376.194.376c.032.06.09.103.158.112l.415.058-.293.273a.21.21 0 0 0-.064.191l.072.397z"/><path fill="#fff" d="M93.954 115.383h4.521l.422 20.832h-2.086l-1.233-9.207-1.624-8.624zM93.954 115.383H89.43l-.422 20.832h2.087l1.233-9.207 1.625-8.624z"/><path fill="#94A3B8" d="M98.476 114.877H89.43a.253.253 0 1 0 0 .506h9.045a.253.253 0 1 0 0-.506M91.078 136.215h-2.09a.253.253 0 1 0 0 .507h2.09a.253.253 0 1 0 0-.507M98.886 136.215h-2.09a.253.253 0 1 0 0 .507h2.09a.253.253 0 1 0 0-.507"/><path fill="#CBD5E1" d="M125.379 109h35.909a2.244 2.244 0 0 1 2.244 2.24v31.36h-40.397v-31.36a2.244 2.244 0 0 1 2.244-2.24"/><path fill="#fff" d="M123.135 142.6h40.397v20.16a2.244 2.244 0 0 1-2.244 2.24h-35.909a2.244 2.244 0 0 1-2.244-2.24z"/><path fill="#94A3B8" d="M159.043 148.199h-31.42a1.12 1.12 0 1 1 0-2.24h31.42a1.12 1.12 0 1 1 0 2.24"/><path fill="#CBD5E1" d="M156.799 152.679h-29.176a1.12 1.12 0 0 1-1.122-1.119 1.12 1.12 0 0 1 1.122-1.119h29.176a1.12 1.12 0 0 1 1.122 1.119 1.12 1.12 0 0 1-1.122 1.119"/><path fill="#0093E5" d="M143.333 157.159h-15.71a1.12 1.12 0 0 1-1.122-1.119 1.12 1.12 0 0 1 1.122-1.119h15.71a1.12 1.12 0 1 1 0 2.238"/><path fill="#FFC800" d="m128.042 159.456.382.737.853.117-.617.575.145.811-.763-.384-.762.384.145-.811-.616-.575.852-.117zM132.195 159.456l.381.737.854.118-.618.574.146.811-.763-.384-.763.384.146-.811-.618-.574.854-.118zM136.348 159.456l.381.737.852.118-.617.574.145.811-.761-.384-.763.384.145-.811-.617-.574.852-.118zM141.733 160.311l-.852-.118-.381-.737-.381.737-.853.118.617.574-.146.811.763-.383.763.383-.146-.811zm-1.14.814-.094-.047-.095.047-.388.194.072-.397.02-.113-.084-.078-.293-.273.415-.058.107-.015.05-.097.194-.376.195.376.049.097.108.015.415.058-.294.273-.083.078.02.113.072.397-.388-.194zM145.885 160.311l-.853-.118-.381-.737-.381.737-.853.118.617.574-.146.811.763-.383.763.383-.146-.811zm-1.14.814-.094-.047-.094.047-.388.194.072-.397.02-.113-.084-.078-.294-.273.415-.058.108-.015.049-.097.195-.376.195.376.049.097.107.015.415.058-.293.273-.084.078.02.113.072.397-.388-.194z"/><path fill="#fff" d="m156.547 122.395-1.397 1.393a1.124 1.124 0 0 1-1.587 0l-2.404-2.4s-1.041 3.112-1.041 6.592 1.041 7.079 1.041 7.079c0 .618-.503 1.12-1.122 1.12h-13.392a1.12 1.12 0 0 1-1.122-1.12s1.04-4.379 1.04-7.339-1.04-6.345-1.04-6.345l-2.418 2.413a1.123 1.123 0 0 1-1.587 0l-1.396-1.392a1.12 1.12 0 0 1 0-1.585l2.945-2.938a8.4 8.4 0 0 1 5.928-2.449h8.682a8.4 8.4 0 0 1 5.929 2.451l2.942 2.936a1.12 1.12 0 0 1 0 1.585z"/><path fill="#CBD5E1" d="M139.975 115.421a3.364 3.364 0 0 0 3.367 3.361 3.364 3.364 0 0 0 3.367-3.361h-6.734"/><path fill="#fff" d="M146.036 115.421a2.694 2.694 0 0 1-2.695 2.691 2.694 2.694 0 0 1-2.695-2.691h5.391z"/><path fill="#CBD5E1" d="M174.777 109h35.908a2.244 2.244 0 0 1 2.245 2.24v31.36h-40.398v-31.36a2.244 2.244 0 0 1 2.245-2.24"/><path fill="#fff" d="M172.532 142.6h40.398v20.16a2.244 2.244 0 0 1-2.245 2.24h-35.908a2.244 2.244 0 0 1-2.245-2.24z"/><path fill="#94A3B8" d="M208.441 148.199H177.02a1.12 1.12 0 1 1 0-2.24h31.421a1.12 1.12 0 1 1 0 2.24"/><path fill="#CBD5E1" d="M199.464 152.679H177.02a1.12 1.12 0 1 1 0-2.238h22.444a1.12 1.12 0 1 1 0 2.238"/><path fill="#0093E5" d="M192.731 157.159H177.02a1.12 1.12 0 1 1 0-2.238h15.711a1.12 1.12 0 1 1 0 2.238"/><path fill="#FFC800" d="m177.44 159.456.382.737.852.117-.616.575.145.811-.763-.384-.762.384.145-.811-.617-.575.853-.117zM181.592 159.456l.381.737.854.118-.618.574.146.811-.763-.384-.763.384.146-.811-.618-.574.854-.118zM185.745 159.456l.381.737.853.118-.617.574.145.811-.762-.384-.763.384.145-.811-.617-.574.853-.118zM189.896 159.456l.383.737.852.118-.618.574.146.811-.763-.384-.763.384.147-.811-.618-.574.853-.118zM195.282 160.311l-.853-.118-.38-.737-.381.737-.853.118.617.574-.146.811.763-.383.763.383-.147-.811zm-1.139.814-.094-.047-.095.047-.388.194.072-.397.02-.113-.084-.078-.293-.273.415-.058.107-.015.05-.097.194-.376.195.376.049.097.108.015.415.058-.294.273-.083.078.02.113.072.397-.388-.194z"/><path fill="#94A3B8" d="M192.731 127.051a4.92 4.92 0 0 1-4.92-4.911 4.921 4.921 0 0 1 9.84 0c0 2.707-2.208 4.911-4.92 4.911m0-8.774a3.87 3.87 0 0 0-3.87 3.863 3.87 3.87 0 0 0 7.74 0 3.87 3.87 0 0 0-3.87-3.863"/><path fill="#fff" d="M199.53 134.37h-13.597c-1.993 0-3.455-1.869-2.972-3.798l1.822-7.274a1.53 1.53 0 0 1 1.486-1.158h12.925c.703 0 1.315.478 1.486 1.158l1.822 7.274c.483 1.929-.979 3.798-2.972 3.798"/><path fill="#94A3B8" d="M194.813 126.391h.001a1.47 1.47 0 0 1-.001 2.078l-2.083 2.079-2.082-2.078a1.466 1.466 0 0 1 .002-2.076h.001a1.47 1.47 0 0 1 2.078-.001h.001a1.474 1.474 0 0 1 2.082-.002z"/></g><rect width="152" height="92" x="116.333" y="59" fill="#64748B" rx="4"/><g clip-path="url(#clip1_8012_10568)"><path fill="url(#paint1_linear_8012_10568)" d="M141.583 77.875a6.876 6.876 0 1 1-13.752 0 6.876 6.876 0 0 1 13.752 0m11.619 11.146a1.38 1.38 0 0 0-1.587.255l-10.202 12.953-7.315-7.623a1.375 1.375 0 0 0-1.733.17l-10.026 11.974v5.5c0 .729.29 1.429.805 1.945a2.76 2.76 0 0 0 1.945.805h38.5a2.75 2.75 0 0 0 2.75-2.75V99.875z"/></g><rect width="80" height="12" x="178.333" y="71" fill="#CBD5E1" rx="6"/><path fill="#64748B" d="M181.333 93.086c.111 1.25 1.135 2.137 2.694 2.252v.912h.782v-.912c1.702-.134 2.758-1.078 2.758-2.475 0-1.192-.71-1.882-2.217-2.271l-.541-.14V87.6c.841.083 1.409.536 1.552 1.212h1.103c-.125-1.2-1.155-2.06-2.655-2.156v-.906h-.782v.925c-1.455.172-2.453 1.104-2.453 2.367 0 1.09.725 1.862 1.996 2.188l.457.121v3.023c-.861-.127-1.455-.6-1.598-1.288zm2.544-2.877c-.783-.198-1.2-.619-1.2-1.212 0-.708.528-1.231 1.35-1.371v2.621zm1.193 1.404c.965.242 1.389.644 1.389 1.326 0 .823-.62 1.372-1.65 1.455v-2.847l.261.065"/><rect width="48" height="8" x="192.333" y="87" fill="#CBD5E1" rx="4"/><rect width="32" height="6" x="178.333" y="106" fill="#CBD5E1" rx="3"/><path fill="#FEE2E2" d="M226.415 104.919a.46.46 0 0 1 .102.51.5.5 0 0 1-.102.152l-7.5 7.501a.47.47 0 0 1-.663-.664l7.5-7.499a.46.46 0 0 1 .331-.138.46.46 0 0 1 .332.138m-6.707 2.581a1.125 1.125 0 1 1 .002-2.25 1.125 1.125 0 0 1-.002 2.25m0 .75a1.876 1.876 0 1 0 0-3.751 1.876 1.876 0 0 0 0 3.751m5.25 4.5a1.125 1.125 0 1 1 .002-2.25 1.125 1.125 0 0 1-.002 2.25m0 .75a1.876 1.876 0 1 0 0-3.751 1.876 1.876 0 0 0 0 3.751"/><rect width="32" height="6" x="230.333" y="106" fill="#FEE2E2" rx="3"/><rect width="64" height="12" x="122.333" y="127" fill="#CBD5E1" rx="4"/><rect width="16" height="2" x="146.333" y="132" fill="#fff" rx="1"/><rect width="64" height="12" x="198.333" y="127" fill="#0093E5" rx="4"/><rect width="16" height="2" x="222.333" y="132" fill="#D9D9D9" rx="1"/><rect width="24" height="24" x="104.333" y="47" fill="#F59E0B" rx="4"/><g clip-path="url(#clip2_8012_10568)"><path fill="#fff" d="M116.333 67a2 2 0 0 0 2-2h-4a2 2 0 0 0 2 2m.995-14.901a1 1 0 0 0-.253-.77 1 1 0 0 0-1.737.77A5 5 0 0 0 111.333 57c0 1.098-.5 6-2 7h14c-1.5-1-2-5.902-2-7 0-2.42-1.72-4.44-4.005-4.901"/></g><rect width="24" height="24" x="244.333" y="153" fill="#94A3B8" rx="12"/><path fill="#fff" d="M260.833 160c.398 0 .78.165 1.061.46.281.294.439.693.439 1.109v10.039a.4.4 0 0 1-.063.218.4.4 0 0 1-.168.144.365.365 0 0 1-.409-.085l-2.14-2.239a.73.73 0 0 0-.53-.23h-7.19c-.397 0-.779-.165-1.06-.46a1.6 1.6 0 0 1-.44-1.109v-6.278c0-.416.159-.815.44-1.109s.663-.46 1.06-.46z"/><path fill="#fff" fill-opacity=".01" d="M97.334 100h6v6h-6z" opacity=".5"/><path fill="#fff" d="m264.333 63.5-1.5 1.5 1.5 1.5-.5.5-1.5-1.5-1.5 1.5-.5-.5 1.5-1.5-1.5-1.5.5-.5 1.5 1.5 1.5-1.5z"/><defs><clipPath id="clip0_8012_10568"><path fill="#fff" d="M18.334 41h56v56h-56z"/></clipPath><clipPath id="clip1_8012_10568"><path fill="#fff" d="M122.333 71h44v44h-44z"/></clipPath><clipPath id="clip2_8012_10568"><path fill="#fff" d="M108.333 51h16v16h-16z"/></clipPath><linearGradient id="paint0_linear_8012_10568" x1="46.34" x2="46.34" y1="41" y2="97" gradientUnits="userSpaceOnUse"><stop stop-color="#CBD5E1"/><stop offset="1" stop-color="#94A3B8"/></linearGradient><linearGradient id="paint1_linear_8012_10568" x1="144.339" x2="144.339" y1="71" y2="115" gradientUnits="userSpaceOnUse"><stop stop-color="#CBD5E1"/><stop offset="1" stop-color="#F1F5F9"/></linearGradient></defs></svg>