<svg width="32" height="32" viewBox="0 0 32 32" fill="none" xmlns="http://www.w3.org/2000/svg">
<path d="M15.5511 7.70372C17.6521 5.1301 17.2041 5.71467 18.7766 1.83341C18.8788 1.599 19.0455 1.39709 19.2582 1.25033C19.4709 1.10357 19.7211 1.01774 19.9808 1.00247C20.2404 0.987194 20.4993 1.04308 20.7283 1.16386C20.9574 1.28464 21.1476 1.46554 21.2777 1.6863L29.6817 15.9507C29.8118 16.1715 29.8766 16.4234 29.8688 16.6782C29.861 16.933 29.7809 17.1806 29.6376 17.3933C29.4943 17.606 29.2933 17.7754 29.0573 17.8826C28.8212 17.9897 28.5594 18.0303 28.3012 17.9998C24.0849 17.3937 19.7852 18.2559 16.1509 20.4363L8.87276 24.5541C8.22933 24.9181 7.46469 25.0168 6.74704 24.8283C6.0294 24.6399 5.41753 24.1798 5.04605 23.5493L2.2447 18.7945C1.87322 18.1639 1.77255 17.4146 1.96485 16.7114C2.15714 16.0081 2.62664 15.4085 3.27007 15.0445L5.04605 13.8434M10.0858 23.8678C11.9042 26.9542 14.695 29.3794 18.0394 30.7793C18.7227 31.0653 19.4939 31.0736 20.1834 30.8024C20.8729 30.5312 21.4242 30.0027 21.716 29.3332C22.0079 28.6636 22.0164 27.9079 21.7396 27.2322C21.4629 26.5566 20.9235 26.0163 20.2403 25.7303C18.0107 24.797 16.1501 23.1802 14.9379 21.1226M8.12214 15.0445L12.5118 22.4952M11.139 6.88016L7.35716 10.5862M7.35716 6.88016H7.36346M11.139 10.5862H11.1453M15.5511 8.73317C15.5511 12.1445 12.7291 14.9098 9.24807 14.9098C5.767 14.9098 2.94504 12.1445 2.94504 8.73317C2.94504 5.32188 5.767 2.55649 9.24807 2.55649C12.7291 2.55649 15.5511 5.32188 15.5511 8.73317Z" stroke="#314158" stroke-width="1.5" stroke-linecap="round" stroke-linejoin="round"/>
</svg>
