<svg xmlns="http://www.w3.org/2000/svg" width="286" height="194" fill="none" viewBox="0 0 286 194"><rect width="286" height="194" fill="#fff" rx="8"/><rect width="262" height="172" x="12" y="11" fill="#F1F5F9" rx="4"/><mask id="path-3-inside-1_8012_10841" fill="#fff"><path d="M24 55h238v112a4 4 0 0 1-4 4H28a4 4 0 0 1-4-4z"/></mask><path fill="#fff" d="M24 55h238v112a4 4 0 0 1-4 4H28a4 4 0 0 1-4-4z"/><path fill="#CBD5E1" d="M24 55h238zm238.5 112a4.5 4.5 0 0 1-4.5 4.5H28a4.5 4.5 0 0 1-4.5-4.5h1a3.5 3.5 0 0 0 3.5 3.5h230a3.5 3.5 0 0 0 3.5-3.5zM28 171.5a4.5 4.5 0 0 1-4.5-4.5V55h1v112a3.5 3.5 0 0 0 3.5 3.5zM262.5 55v112a4.5 4.5 0 0 1-4.5 4.5v-1a3.5 3.5 0 0 0 3.5-3.5V55z" mask="url(#path-3-inside-1_8012_10841)"/><g clip-path="url(#clip0_8012_10841)"><path fill="url(#paint0_linear_8012_10841)" d="M61.25 92.375a9.375 9.375 0 1 1-18.75 0 9.375 9.375 0 0 1 18.75 0m15.844 15.199a1.87 1.87 0 0 0-2.164.349l-13.913 17.662-9.975-10.395a1.87 1.87 0 0 0-2.362.233L35.007 131.75v7.5a3.75 3.75 0 0 0 3.75 3.75h52.5a3.76 3.76 0 0 0 2.652-1.098 3.76 3.76 0 0 0 1.098-2.652v-16.875z"/></g><rect width="96" height="12" x="107" y="83" fill="#CBD5E1" rx="6"/><rect width="144" height="6" x="107" y="101" fill="#CBD5E1" rx="3"/><rect width="144" height="6" x="107" y="113" fill="#CBD5E1" rx="3"/><rect width="48" height="12" x="107" y="131" fill="#CBD5E1" rx="4"/><rect width="18" height="2" x="122" y="136" fill="#fff" rx="1"/><path fill="#64748B" d="M24 27a4 4 0 0 1 4-4h230a4 4 0 0 1 4 4v28H24z"/><rect width="14" height="14" x="28" y="32" fill="#475569" rx="4"/><path fill="#fff" d="M37.06 41.226q-.504 0-.852-.222a1.4 1.4 0 0 1-.527-.654q-.18-.432-.18-1.044 0-.534.09-.99.094-.462.3-.804.204-.348.528-.54.33-.198.798-.198.587 0 .918.288.33.282.456.756l-.642.054a.75.75 0 0 0-.24-.372q-.163-.138-.492-.138a.89.89 0 0 0-.774.42q-.282.42-.3 1.284l-.114-.024a1.112 1.112 0 0 1 .612-.648q.24-.108.546-.108.426 0 .744.18.324.174.498.498.18.324.18.756 0 .468-.199.81a1.33 1.33 0 0 1-.545.516q-.348.18-.805.18m.006-.576a.84.84 0 0 0 .63-.246q.247-.252.247-.684a.96.96 0 0 0-.108-.468.7.7 0 0 0-.294-.312.85.85 0 0 0-.432-.108q-.27 0-.48.108a.8.8 0 0 0-.33.312.9.9 0 0 0-.12.468q0 .27.107.48.109.21.306.33.204.12.474.12M33.12 41.226q-.528 0-.918-.27t-.6-.768-.21-1.182.21-1.182q.216-.504.6-.774.39-.276.918-.276.534 0 .918.276.39.27.6.768.216.498.216 1.188 0 .684-.21 1.182t-.6.768-.924.27m0-.594q.51 0 .786-.42t.276-1.206q0-.528-.126-.894-.12-.366-.36-.552a.88.88 0 0 0-.576-.192.9.9 0 0 0-.576.192q-.234.186-.36.552-.12.366-.12.894 0 .786.276 1.206a.88.88 0 0 0 .78.42"/><rect width="14" height="14" x="46" y="32" fill="#475569" rx="4"/><path fill="#fff" d="M54.16 41.226q-.486 0-.858-.144a1.3 1.3 0 0 1-.582-.426 1.15 1.15 0 0 1-.204-.69q0-.468.282-.774t.756-.408l.012.12a1.23 1.23 0 0 1-.618-.33q-.228-.24-.228-.63 0-.342.174-.606a1.17 1.17 0 0 1 .492-.414q.324-.15.774-.15.444 0 .768.15t.492.414q.174.264.174.606 0 .39-.228.63a1.26 1.26 0 0 1-.618.33l.012-.12q.48.102.762.408t.282.774q0 .408-.21.69-.204.282-.576.426a2.4 2.4 0 0 1-.858.144m0-.594q.444 0 .702-.18.264-.186.264-.552a.7.7 0 0 0-.24-.558q-.234-.21-.726-.21t-.732.21a.7.7 0 0 0-.24.558q0 .366.264.552.264.18.708.18m0-2.034q.366 0 .564-.15.204-.156.204-.474a.55.55 0 0 0-.198-.444q-.192-.168-.57-.168t-.576.168a.55.55 0 0 0-.198.444q0 .318.204.474.204.15.57.15M51.096 41.13v-3.036h-.9v-.522h.366q.24 0 .39-.06a.4.4 0 0 0 .216-.216q.066-.156.066-.426h.51v4.26z"/><rect width="14" height="14" x="64" y="32" fill="#475569" rx="4"/><path fill="#fff" d="M72.824 41.226q-.528 0-.918-.27t-.6-.768-.21-1.182.21-1.182q.216-.504.6-.774.39-.276.918-.276.534 0 .918.276.39.27.6.768.216.498.216 1.188 0 .684-.21 1.182t-.6.768-.924.27m0-.594q.51 0 .786-.42t.276-1.206q0-.528-.126-.894-.12-.366-.36-.552a.88.88 0 0 0-.576-.192.9.9 0 0 0-.576.192q-.234.186-.36.552-.12.366-.12.894 0 .786.276 1.206a.88.88 0 0 0 .78.42M67.441 41.13q0-.48.144-.858t.492-.702.96-.648q.294-.15.468-.276a.9.9 0 0 0 .258-.27.7.7 0 0 0 .078-.336.64.64 0 0 0-.09-.348.57.57 0 0 0-.252-.234.9.9 0 0 0-.426-.09q-.408 0-.648.222-.234.216-.294.624l-.672-.042q.072-.642.486-1.02.42-.378 1.128-.378.456 0 .774.162.324.156.492.438.174.282.174.654 0 .324-.108.558a1.25 1.25 0 0 1-.36.438 4.6 4.6 0 0 1-.684.426q-.552.294-.834.582-.282.282-.3.504h2.286v.594z"/><rect width="14" height="14" x="82" y="32" fill="#475569" rx="4"/><path fill="#fff" d="M90.848 41.226q-.486 0-.858-.144a1.3 1.3 0 0 1-.582-.426 1.15 1.15 0 0 1-.204-.69q0-.468.282-.774t.756-.408l.012.12a1.23 1.23 0 0 1-.618-.33q-.228-.24-.228-.63 0-.342.174-.606a1.17 1.17 0 0 1 .492-.414q.324-.15.774-.15.444 0 .768.15t.492.414q.174.264.174.606 0 .39-.228.63a1.26 1.26 0 0 1-.618.33l.012-.12q.48.102.762.408t.282.774q0 .408-.21.69-.204.282-.576.426a2.4 2.4 0 0 1-.858.144m0-.594q.444 0 .702-.18.264-.186.264-.552a.7.7 0 0 0-.24-.558q-.234-.21-.726-.21t-.732.21a.7.7 0 0 0-.24.558q0 .366.264.552.264.18.708.18m0-2.034q.366 0 .564-.15.204-.156.204-.474a.55.55 0 0 0-.198-.444q-.192-.168-.57-.168t-.576.168a.55.55 0 0 0-.198.444q0 .318.204.474.204.15.57.15M87.074 41.226q-.738 0-1.14-.342a1.22 1.22 0 0 1-.426-.9l.666-.036q.036.366.276.528.246.156.624.156.252 0 .462-.066a.7.7 0 0 0 .342-.228.64.64 0 0 0 .132-.42q0-.384-.258-.564-.258-.186-.684-.186h-.354v-.564h.354q.342 0 .57-.138t.228-.48q0-.3-.192-.456-.192-.162-.588-.162-.384 0-.582.15a.6.6 0 0 0-.234.408l-.666-.036a1.18 1.18 0 0 1 .438-.81q.384-.306 1.044-.306.456 0 .78.144.324.138.498.402t.174.618a.85.85 0 0 1-.252.636q-.246.246-.726.336v-.108q.522.066.822.372.3.3.3.768 0 .402-.204.696a1.27 1.27 0 0 1-.564.438q-.36.15-.84.15M104.391 36.74h2.778v.6h-2.118v1.23h2.046v.588h-2.046V40.4h2.166v.6h-2.826zm5.715 1.08h.756l-1.104 1.56L110.91 41h-.756l-.786-1.164L108.57 41h-.75l1.158-1.626-1.104-1.554h.75l.744 1.092zm3.274 1.116a.72.72 0 0 0-.732-.63c-.54 0-.846.414-.846 1.104s.306 1.104.846 1.104c.378 0 .684-.246.75-.684l.678.036c-.096.744-.696 1.206-1.428 1.206-.918 0-1.518-.648-1.518-1.662s.6-1.662 1.518-1.662c.708 0 1.32.438 1.404 1.152zm1.246-1.116h.648V41h-.648zm-.012-.468v-.612h.672v.612zm1.672-.252h.648v.72h.846v.528h-.846v1.734c0 .258.126.39.366.39h.474V41h-.534c-.618 0-.954-.318-.954-.918v-1.734h-.48v-.528h.48zm1.887 2.31c0-1.014.6-1.662 1.518-1.662.756 0 1.404.504 1.44 1.638v.21h-2.274c.036.582.336.924.834.924.312 0 .594-.18.726-.48l.672.048c-.192.606-.75.984-1.398.984-.918 0-1.518-.648-1.518-1.662m.69-.3h1.59c-.078-.6-.408-.81-.762-.81-.462 0-.756.3-.828.81m5.754-2.37V41h-.6l-.018-.45c-.18.324-.552.522-.99.522-.828 0-1.344-.642-1.344-1.662s.516-1.662 1.344-1.662c.42 0 .78.186.96.492v-1.5zm-2.286 2.67c0 .678.336 1.104.846 1.104.516 0 .84-.426.84-1.104 0-.69-.324-1.122-.84-1.122s-.846.432-.846 1.122m4.977-2.31h.648v.72h.846v.528h-.846v1.734c0 .258.126.39.366.39h.474V41h-.534c-.618 0-.954-.318-.954-.918v-1.734h-.48v-.528h.48zm3.404 3.972c-.918 0-1.518-.648-1.518-1.662s.6-1.662 1.518-1.662 1.518.648 1.518 1.662-.6 1.662-1.518 1.662m-.846-1.662c0 .69.306 1.104.846 1.104s.846-.414.846-1.104-.306-1.104-.846-1.104-.846.414-.846 1.104m4.536-1.59h.648V41h-.648zm-.012-.468v-.612h.672v.612zm1.477.468h.582l.018.546c.168-.432.534-.618.966-.618.72 0 1.086.51 1.086 1.206V41h-.648v-1.848c0-.558-.168-.858-.606-.858-.462 0-.75.3-.75.858V41h-.648zm3.746-.72h.648v.72h.846v.528h-.846v1.734c0 .258.126.39.366.39h.474V41h-.534c-.618 0-.954-.318-.954-.918v-1.734h-.48v-.528h.48zm2.154.72h.594l.018.588c.108-.402.348-.588.756-.588h.3v.528h-.306c-.498 0-.714.27-.714.798V41h-.648zm3.482 3.252c-.918 0-1.518-.648-1.518-1.662s.6-1.662 1.518-1.662 1.518.648 1.518 1.662-.6 1.662-1.518 1.662m-.846-1.662c0 .69.306 1.104.846 1.104s.846-.414.846-1.104-.306-1.104-.846-1.104-.846.414-.846 1.104m5.843-2.67V41h-.6l-.018-.45c-.18.324-.552.522-.99.522-.828 0-1.344-.642-1.344-1.662s.516-1.662 1.344-1.662c.42 0 .78.186.96.492v-1.5zm-2.286 2.67c0 .678.336 1.104.846 1.104.516 0 .84-.426.84-1.104 0-.69-.324-1.122-.84-1.122s-.846.432-.846 1.122m5.692 1.59h-.6l-.006-.51c-.168.408-.534.582-.942.582-.702 0-1.068-.51-1.068-1.206V37.82h.648v1.848c0 .558.162.858.588.858.45 0 .738-.3.738-.858V37.82h.642zm2.97-2.064a.72.72 0 0 0-.732-.63c-.54 0-.846.414-.846 1.104s.306 1.104.846 1.104c.378 0 .684-.246.75-.684l.678.036c-.096.744-.696 1.206-1.428 1.206-.918 0-1.518-.648-1.518-1.662s.6-1.662 1.518-1.662c.708 0 1.32.438 1.404 1.152zm1.166.474c0-1.014.6-1.662 1.518-1.662.756 0 1.404.504 1.44 1.638v.21h-2.274c.036.582.336.924.834.924.312 0 .594-.18.726-.48l.672.048c-.192.606-.75.984-1.398.984-.918 0-1.518-.648-1.518-1.662m.69-.3h1.59c-.078-.6-.408-.81-.762-.81-.462 0-.756.3-.828.81m6.295-.288c-.066-.336-.384-.534-.708-.534s-.582.162-.576.438c.006.288.372.402.696.462.792.144 1.302.36 1.302.984s-.63.9-1.302.9c-.816 0-1.398-.408-1.446-1.074l.666-.042c.06.354.336.576.774.576.276 0 .636-.096.636-.39 0-.342-.402-.378-.744-.456-.672-.144-1.254-.324-1.254-.936 0-.624.504-1.002 1.296-1.002.69 0 1.218.402 1.326 1.038zm2.759 2.25c-.918 0-1.518-.648-1.518-1.662s.6-1.662 1.518-1.662 1.518.648 1.518 1.662-.6 1.662-1.518 1.662m-.846-1.662c0 .69.306 1.104.846 1.104s.846-.414.846-1.104-.306-1.104-.846-1.104-.846.414-.846 1.104m3.042-1.59h.582l.024.516c.15-.372.474-.588.9-.588.456 0 .786.24.924.66.144-.432.474-.66.954-.66.642 0 1.026.432 1.026 1.206V41h-.642v-1.848c0-.558-.198-.858-.558-.858-.45 0-.696.306-.696.858V41h-.612v-1.848c0-.552-.204-.858-.558-.858-.444 0-.696.312-.696.858V41h-.648zm5.04 1.59c0-1.014.6-1.662 1.518-1.662.756 0 1.404.504 1.44 1.638v.21h-2.274c.036.582.336.924.834.924.312 0 .594-.18.726-.48l.672.048c-.192.606-.75.984-1.398.984-.918 0-1.518-.648-1.518-1.662m.69-.3h1.59c-.078-.6-.408-.81-.762-.81-.462 0-.756.3-.828.81m3.143-2.01h.648v.72h.846v.528h-.846v1.734c0 .258.126.39.366.39h.474V41h-.534c-.618 0-.954-.318-.954-.918v-1.734h-.48v-.528h.48zm2.154-.36h.648v1.506c.186-.354.546-.498.93-.498.714 0 1.074.528 1.074 1.206V41h-.648v-1.818c0-.558-.168-.858-.606-.858-.462 0-.75.3-.75.858V41h-.648zm3.551 1.08h.648V41h-.648zm-.012-.468v-.612h.672v.612zm1.477.468h.582l.018.546c.168-.432.534-.618.966-.618.72 0 1.086.51 1.086 1.206V41h-.648v-1.848c0-.558-.168-.858-.606-.858-.462 0-.75.3-.75.858V41h-.648zm4.681 3.018c-.822 0-1.398-.624-1.398-1.53 0-.924.57-1.56 1.392-1.56.426 0 .78.21.93.564v-.492H192v2.844c0 .84-.6 1.308-1.47 1.308-.696 0-1.224-.36-1.386-.918l.666-.042c.114.264.366.42.726.42.516 0 .816-.222.816-.654v-.462c-.15.318-.504.522-.9.522m-.726-1.536c0 .618.318 1.002.828 1.002.492 0 .81-.384.816-1.002.012-.612-.306-.996-.816-.996s-.828.384-.828.996"/><path fill="#FBBF24" d="M216.08 39a2.25 2.25 0 0 0-1.038-1.895.75.75 0 0 1-.327-.797 2.25 2.25 0 0 0-.604-2.084 2.26 2.26 0 0 0-1.946-.631l-.139.027a.75.75 0 0 1-.726-.235l-.071-.093a2.25 2.25 0 0 0-1.754-1.034l-.141-.004a2.25 2.25 0 0 0-1.896 1.038.75.75 0 0 1-.796.328 2.25 2.25 0 0 0-2.689 2.683.75.75 0 0 1-.331.796A2.25 2.25 0 0 0 202.576 39l.004.142a2.26 2.26 0 0 0 1.042 1.76c.267.169.4.487.331.795a2.254 2.254 0 0 0 1.571 2.65c.364.105.749.117 1.118.034l.116-.017a.75.75 0 0 1 .681.346l.08.117a2.25 2.25 0 0 0 3.717-.117l.07-.093a.75.75 0 0 1 .725-.237l.139.027a2.25 2.25 0 0 0 1.942-.634c.268-.268.463-.6.568-.963.106-.364.118-.749.035-1.118a.75.75 0 0 1 .327-.797A2.25 2.25 0 0 0 216.08 39m-5.027-2.78a.75.75 0 0 1 1.061 1.06l-4.5 4.5a.75.75 0 0 1-1.061-1.06zm.538 4.28.077.004a.75.75 0 0 1 0 1.492l-.077.004h-.007a.75.75 0 0 1 0-1.5zm-4.5-4.5.077.004a.75.75 0 0 1 0 1.492l-.077.004h-.007a.75.75 0 0 1 0-1.5zm10.489 3a3.74 3.74 0 0 1-1.326 2.86 3.756 3.756 0 0 1-2.684 3.924c-.445.13-.908.174-1.367.135a3.74 3.74 0 0 1-2.866 1.333 3.75 3.75 0 0 1-2.865-1.332 3.75 3.75 0 0 1-2.971-1.08 3.736 3.736 0 0 1-1.087-2.97 3.75 3.75 0 0 1-1.331-2.634l-.007-.236a3.75 3.75 0 0 1 1.338-2.871 3.75 3.75 0 0 1 2.693-3.916 3.8 3.8 0 0 1 1.367-.134 3.74 3.74 0 0 1 2.86-1.325l.236.007a3.75 3.75 0 0 1 2.624 1.318 3.747 3.747 0 0 1 4.06 4.06A3.75 3.75 0 0 1 217.58 39"/><rect width="32" height="12" x="226" y="33" fill="#0093E5" rx="2"/><rect width="12" height="2" x="236" y="38" fill="#D9D9D9" rx="1"/><defs><linearGradient id="paint0_linear_8012_10841" x1="65.007" x2="65.007" y1="83" y2="143" gradientUnits="userSpaceOnUse"><stop stop-color="#CBD5E1"/><stop offset="1" stop-color="#CBD5E1"/></linearGradient><clipPath id="clip0_8012_10841"><path fill="#fff" d="M35 83h60v60H35z"/></clipPath></defs></svg>