<svg xmlns="http://www.w3.org/2000/svg" width="286" height="194" fill="none" viewBox="0 0 286 194"><rect width="286" height="194" fill="#fff" rx="8"/><rect width="262" height="172" x="12" y="11" fill="#F1F5F9" rx="4"/><path fill="#94A3B8" d="M154.344 53.083c1.202 0 2.354.479 3.204 1.33a4.55 4.55 0 0 1 1.327 3.212v68.125H50.125V57.625c0-1.205.477-2.36 1.327-3.211a4.53 4.53 0 0 1 3.204-1.33zM54.656 44a13.58 13.58 0 0 0-9.612 3.99 13.64 13.64 0 0 0-3.981 9.635v77.208h126.875V57.625c0-3.614-1.433-7.08-3.982-9.634A13.58 13.58 0 0 0 154.344 44zM32 139.375h145c0 3.614-1.432 7.079-3.982 9.634a13.57 13.57 0 0 1-9.612 3.991H45.594a13.58 13.58 0 0 1-9.613-3.991A13.64 13.64 0 0 1 32 139.375"/><rect width="28.871" height="29.333" x="58.5" y="75.5" fill="#fff" rx="3.5"/><rect width="28.871" height="29.333" x="58.5" y="75.5" stroke="#CBD5E1" rx="3.5"/><path fill="#94A3B8" d="M80.617 82.338 76.602 81a3.666 3.666 0 1 1-7.333 0l-4.015 1.338a1.83 1.83 0 0 0-1.229 2.044l.532 3.181a.916.916 0 0 0 .908.77h1.97V97.5c0 1.008.825 1.833 1.834 1.833h7.333a1.834 1.834 0 0 0 1.834-1.833v-9.167h1.97a.916.916 0 0 0 .908-.77l.532-3.18a1.834 1.834 0 0 0-1.229-2.045"/><rect width="32" height="4" x="93.871" y="81.167" fill="#94A3B8" rx="2"/><rect width="24" height="2" x="93.871" y="87.167" fill="#CBD5E1" rx="1"/><rect width="24" height="2" x="93.871" y="91.167" fill="#CBD5E1" rx="1"/><rect width="12" height="4" x="93.871" y="95.167" fill="#0093E5" rx="2"/><rect width="4.5" height=".667" x="97.621" y="96.833" fill="#D9D9D9" rx=".333"/><path fill="#94A3B8" fill-rule="evenodd" d="M151.536 91.333c.123 0 .241.053.328.147a.52.52 0 0 1 .136.353v4.8c0 .328-.06.654-.177.957a2.5 2.5 0 0 1-.503.81 2.3 2.3 0 0 1-.753.543c-.282.125-.583.19-.888.19h-9.093l3.108 3.346a.52.52 0 0 1 .136.354c0 .133-.049.26-.136.354a.45.45 0 0 1-.329.146.45.45 0 0 1-.329-.146l-3.9-4.2a.52.52 0 0 1-.101-.546.5.5 0 0 1 .101-.162l3.714-4a.45.45 0 0 1 .329-.146.45.45 0 0 1 .329.146.52.52 0 0 1 .136.354c0 .133-.049.26-.136.354l-2.922 3.146h9.093c.369 0 .723-.158.985-.44a1.56 1.56 0 0 0 .407-1.06v-4.8a.52.52 0 0 1 .136-.353.45.45 0 0 1 .329-.147" clip-rule="evenodd"/><path fill="#64748B" d="M195.167 90V78.333A2.333 2.333 0 0 1 197.5 76h11.667a2.333 2.333 0 0 1 0 4.667h-6.034l1.262 1.262.725.668a20.4 20.4 0 0 0 13.384 5.067A18.67 18.67 0 0 0 231.7 82.2a18.67 18.67 0 0 0 5.467-13.2 2.333 2.333 0 1 1 4.666 0A23.34 23.34 0 0 1 235 85.5a23.34 23.34 0 0 1-16.5 6.833h-.009a25.08 25.08 0 0 1-16.45-6.23l-.918-.847-1.29-1.29V90a2.333 2.333 0 1 1-4.666 0m0-21A23.333 23.333 0 0 1 218.5 45.667h.009l1.21.034a25.08 25.08 0 0 1 15.239 6.195l.919.848 1.29 1.29V48a2.333 2.333 0 1 1 4.666 0v11.667A2.333 2.333 0 0 1 239.5 62h-11.667a2.334 2.334 0 0 1 0-4.667h6.034l-1.262-1.262-.725-.668a20.42 20.42 0 0 0-13.387-5.07A18.667 18.667 0 0 0 199.833 69a2.333 2.333 0 1 1-4.666 0"/><path fill="#94A3B8" d="M184.5 108.833c0-2.342.896-4.589 2.49-6.246 1.594-1.656 3.756-2.587 6.01-2.587h51c2.254 0 4.416.931 6.01 2.587s2.49 3.904 2.49 6.246v22.084h-68zm48.875 4.417c-.564 0-1.104.233-1.503.647a2.26 2.26 0 0 0-.622 1.561v4.417c0 .586.224 1.147.622 1.562.399.414.939.646 1.503.646h8.5c.564 0 1.104-.232 1.503-.646s.622-.976.622-1.562v-4.417c0-.585-.224-1.147-.622-1.561a2.09 2.09 0 0 0-1.503-.647zm-48.875 26.5v4.417c0 2.342.896 4.589 2.49 6.246 1.594 1.656 3.756 2.587 6.01 2.587h51c2.254 0 4.416-.931 6.01-2.587s2.49-3.904 2.49-6.246v-4.417z"/></svg>