<svg width="32" height="32" viewBox="0 0 32 32" fill="none" xmlns="http://www.w3.org/2000/svg">
<path d="M4 16C4 18.3734 4.70379 20.6935 6.02236 22.6668C7.34094 24.6402 9.21509 26.1783 11.4078 27.0866C13.6005 27.9948 16.0133 28.2324 18.3411 27.7694C20.6689 27.3064 22.8071 26.1635 24.4853 24.4853C26.1635 22.8071 27.3064 20.6689 27.7694 18.3411C28.2324 16.0133 27.9948 13.6005 27.0866 11.4078C26.1783 9.21509 24.6402 7.34094 22.6668 6.02236C20.6935 4.70379 18.3734 4 16 4C12.6453 4.01262 9.42529 5.32163 7.01333 7.65333L4 10.6667M4 10.6667V4M4 10.6667H10.6667" stroke="#314158" stroke-width="1.5" stroke-linecap="round" stroke-linejoin="round"/>
<path d="M20 12.4445H14C13.4696 12.4445 12.9609 12.6318 12.5858 12.9652C12.2107 13.2986 12 13.7508 12 14.2223C12 14.6938 12.2107 15.146 12.5858 15.4794C12.9609 15.8128 13.4696 16.0001 14 16.0001H18C18.5304 16.0001 19.0391 16.1874 19.4142 16.5208C19.7893 16.8542 20 17.3064 20 17.7779C20 18.2494 19.7893 18.7015 19.4142 19.0349C19.0391 19.3683 18.5304 19.5556 18 19.5556H12M16 21.3334V10.6667" stroke="#314158" stroke-width="1.5" stroke-linecap="round" stroke-linejoin="round"/>
</svg>
