<svg xmlns="http://www.w3.org/2000/svg" width="287" height="194" fill="none" viewBox="0 0 287 194"><rect width="286" height="194" x=".667" fill="#fff" rx="8"/><rect width="262" height="172" x="12.666" y="11" fill="#F1F5F9" rx="4"/><g opacity=".25"><rect width="10" height="10" x="18.666" y="18" fill="#CBD5E1" rx="5"/><rect width="24" height="6" x="30.666" y="20" fill="#CBD5E1" rx="3"/><path fill="#fff" d="M195.108 18H92.225c-1.137 0-2.058 1.12-2.058 2.5v5c0 1.38.921 2.5 2.058 2.5h102.883c1.137 0 2.059-1.12 2.059-2.5v-5c0-1.38-.922-2.5-2.059-2.5"/><path fill="#F0F2F7" d="M194.988 25.935a.362.362 0 0 1-.582 0l-2.327-2.828a.58.58 0 0 1 0-.707.362.362 0 0 1 .582 0l2.327 2.828a.58.58 0 0 1 0 .707"/><path fill="#F0F2F7" d="M192.078 24.9c1.136 0 2.058-1.12 2.058-2.502 0-1.38-.922-2.5-2.058-2.5-1.137 0-2.058 1.12-2.058 2.5 0 1.381.921 2.501 2.058 2.501"/><path fill="#fff" d="M192.078 24.148c.795 0 1.44-.783 1.44-1.75 0-.966-.645-1.75-1.44-1.75-.796 0-1.44.784-1.44 1.75 0 .967.644 1.75 1.44 1.75"/><rect width="36" height="12" x="232.667" y="17" fill="#0093E5" rx="4"/><rect width="13.5" height="2" x="243.917" y="22" fill="#D9D9D9" rx="1"/></g><g opacity=".25"><g clip-path="url(#clip0_8012_10718)"><path fill="url(#paint0_linear_8012_10718)" d="M43.166 49.75a8.75 8.75 0 1 1-17.5 0 8.75 8.75 0 0 1 17.5 0m14.788 14.185a1.75 1.75 0 0 0-2.02.326L42.95 80.746l-9.31-9.702a1.75 1.75 0 0 0-2.205.217L18.674 86.5v7a3.5 3.5 0 0 0 3.5 3.5h49a3.5 3.5 0 0 0 3.5-3.5V77.75z"/></g><rect width="96" height="8" x="86.666" y="43" fill="#94A3B8" rx="4"/><rect width="144" height="6" x="86.666" y="57" fill="#CBD5E1" rx="3"/><rect width="144" height="6" x="86.666" y="69" fill="#CBD5E1" rx="3"/><rect width="48" height="8" x="86.666" y="87" fill="#94A3B8" rx="4"/><rect width="18" height="2" x="101.667" y="92" fill="#D9D9D9" rx="1"/></g><g opacity=".25"><path fill="#CBD5E1" d="M76.315 109h35.909a2.244 2.244 0 0 1 2.244 2.24v31.36H74.07v-31.36a2.244 2.244 0 0 1 2.245-2.24"/><path fill="#fff" d="M74.07 142.6h40.398v20.16a2.244 2.244 0 0 1-2.244 2.24h-35.91a2.244 2.244 0 0 1-2.244-2.24z"/><path fill="#94A3B8" d="M109.979 148.199h-31.42a1.12 1.12 0 1 1 0-2.24h31.42a1.121 1.121 0 0 1 0 2.24"/><path fill="#CBD5E1" d="M103.246 152.679H78.559a1.12 1.12 0 0 1-1.122-1.119 1.12 1.12 0 0 1 1.122-1.119h24.687a1.12 1.12 0 0 1 1.122 1.119 1.12 1.12 0 0 1-1.122 1.119"/><path fill="#0093E5" d="M94.269 157.159h-15.71a1.12 1.12 0 0 1-1.122-1.119 1.12 1.12 0 0 1 1.122-1.119h15.71a1.12 1.12 0 1 1 0 2.238"/><path fill="#FFC800" d="m78.979 159.456.38.737.854.117-.617.575.145.811-.762-.384-.763.384.145-.811-.617-.575.853-.117zM83.13 159.456l.382.737.853.118-.618.574.146.811-.763-.384-.763.384.146-.811-.618-.574.854-.118zM87.283 159.456l.381.737.853.118-.617.574.145.811-.762-.384-.763.384.145-.811-.617-.574.853-.118zM91.434 159.456l.382.737.853.118-.618.574.146.811-.763-.384-.763.384.146-.811-.616-.574.852-.118zM96.82 160.311l-.852-.118-.381-.737-.381.737-.853.118.617.574-.146.811.763-.383.763.383-.147-.811zm-1.139.814a.21.21 0 0 0-.189 0l-.388.194.072-.397a.21.21 0 0 0-.064-.191l-.293-.273.415-.058a.21.21 0 0 0 .158-.112l.195-.376.194.376c.032.06.09.103.158.112l.415.058-.293.273a.21.21 0 0 0-.064.191l.072.397z"/><path fill="#fff" d="M94.287 115.383h4.521l.422 20.832h-2.086l-1.233-9.207-1.624-8.624z"/><path fill="#fff" d="M94.287 115.383h-4.523l-.422 20.832h2.087l1.233-9.207 1.625-8.624z"/><path fill="#94A3B8" d="M98.809 114.877h-9.046a.253.253 0 1 0 0 .506h9.045a.253.253 0 1 0 0-.506M91.411 136.215h-2.09a.253.253 0 1 0 0 .507h2.09a.253.253 0 1 0 0-.507M99.22 136.215h-2.092a.253.253 0 1 0 0 .507h2.091a.253.253 0 1 0 0-.507"/><path fill="#CBD5E1" d="M125.712 109h35.909a2.244 2.244 0 0 1 2.244 2.24v31.36h-40.397v-31.36a2.244 2.244 0 0 1 2.244-2.24"/><path fill="#fff" d="M123.468 142.6h40.397v20.16a2.244 2.244 0 0 1-2.244 2.24h-35.909a2.244 2.244 0 0 1-2.244-2.24z"/><path fill="#94A3B8" d="M159.376 148.199h-31.42a1.12 1.12 0 1 1 0-2.24h31.42a1.12 1.12 0 1 1 0 2.24"/><path fill="#CBD5E1" d="M157.132 152.679h-29.176a1.12 1.12 0 0 1-1.122-1.119 1.12 1.12 0 0 1 1.122-1.119h29.176a1.12 1.12 0 0 1 1.122 1.119 1.12 1.12 0 0 1-1.122 1.119"/><path fill="#0093E5" d="M143.666 157.159h-15.71a1.12 1.12 0 0 1-1.122-1.119 1.12 1.12 0 0 1 1.122-1.119h15.71a1.12 1.12 0 1 1 0 2.238"/><path fill="#FFC800" d="m128.375 159.456.382.737.853.117-.617.575.145.811-.763-.384-.762.384.145-.811-.616-.575.852-.117zM132.528 159.456l.381.737.854.118-.618.574.146.811-.763-.384-.763.384.146-.811-.618-.574.854-.118zM136.681 159.456l.381.737.852.118-.617.574.145.811-.761-.384-.763.384.145-.811-.617-.574.852-.118zM142.066 160.311l-.852-.118-.381-.737-.381.737-.853.118.617.574-.146.811.763-.383.763.383-.146-.811zm-1.14.814-.094-.047-.095.047-.388.194.072-.397.02-.113-.084-.078-.293-.273.415-.058.107-.015.05-.097.194-.376.195.376.049.097.108.015.415.058-.294.273-.083.078.02.113.072.397-.388-.194zM146.218 160.311l-.853-.118-.381-.737-.381.737-.853.118.617.574-.146.811.763-.383.763.383-.146-.811zm-1.14.814-.094-.047-.094.047-.388.194.072-.397.02-.113-.084-.078-.294-.273.415-.058.108-.015.049-.097.195-.376.195.376.049.097.107.015.415.058-.293.273-.084.078.02.113.072.397-.388-.194z"/><path fill="#fff" d="m156.88 122.395-1.397 1.393a1.124 1.124 0 0 1-1.587 0l-2.404-2.4s-1.041 3.112-1.041 6.592 1.041 7.079 1.041 7.079c0 .618-.503 1.12-1.122 1.12h-13.391a1.12 1.12 0 0 1-1.123-1.12s1.04-4.379 1.04-7.339-1.04-6.345-1.04-6.345l-2.418 2.413a1.123 1.123 0 0 1-1.587 0l-1.395-1.392a1.12 1.12 0 0 1 0-1.585l2.944-2.938a8.4 8.4 0 0 1 5.928-2.449h8.682a8.4 8.4 0 0 1 5.929 2.451l2.942 2.936a1.12 1.12 0 0 1 0 1.585z"/><path fill="#CBD5E1" d="M140.308 115.421a3.364 3.364 0 0 0 3.367 3.361 3.364 3.364 0 0 0 3.367-3.361h-6.734"/><path fill="#fff" d="M146.369 115.421a2.694 2.694 0 0 1-2.695 2.691 2.694 2.694 0 0 1-2.695-2.691h5.391z"/><path fill="#CBD5E1" d="M175.11 109h35.908a2.244 2.244 0 0 1 2.245 2.24v31.36h-40.398v-31.36a2.244 2.244 0 0 1 2.245-2.24"/><path fill="#fff" d="M172.865 142.6h40.398v20.16a2.244 2.244 0 0 1-2.245 2.24H175.11a2.244 2.244 0 0 1-2.245-2.24z"/><path fill="#94A3B8" d="M208.774 148.199h-31.421a1.12 1.12 0 1 1 0-2.24h31.421a1.12 1.12 0 1 1 0 2.24"/><path fill="#CBD5E1" d="M199.797 152.679h-22.444a1.12 1.12 0 1 1 0-2.238h22.444a1.12 1.12 0 1 1 0 2.238"/><path fill="#0093E5" d="M193.064 157.159h-15.711a1.12 1.12 0 1 1 0-2.238h15.711a1.12 1.12 0 1 1 0 2.238"/><path fill="#FFC800" d="m177.773 159.456.382.737.852.117-.616.575.145.811-.763-.384-.762.384.145-.811-.617-.575.853-.117zM181.925 159.456l.381.737.854.118-.618.574.146.811-.763-.384-.763.384.146-.811-.618-.574.854-.118zM186.078 159.456l.381.737.853.118-.617.574.145.811-.762-.384-.763.384.145-.811-.617-.574.853-.118zM190.229 159.456l.383.737.852.118-.618.574.146.811-.763-.384-.763.384.147-.811-.618-.574.853-.118zM195.615 160.311l-.853-.118-.38-.737-.381.737-.853.118.617.574-.146.811.763-.383.763.383-.147-.811zm-1.139.814-.094-.047-.095.047-.388.194.072-.397.02-.113-.084-.078-.293-.273.415-.058.107-.015.05-.097.194-.376.195.376.05.097.107.015.415.058-.294.273-.083.078.02.113.072.397-.388-.194z"/><path fill="#94A3B8" d="M193.064 127.051a4.92 4.92 0 0 1-4.92-4.911 4.921 4.921 0 0 1 9.84 0c0 2.707-2.208 4.911-4.92 4.911m0-8.774a3.87 3.87 0 0 0-3.87 3.863 3.87 3.87 0 0 0 7.74 0 3.87 3.87 0 0 0-3.87-3.863"/><path fill="#fff" d="M199.863 134.37h-13.597c-1.993 0-3.455-1.869-2.972-3.798l1.822-7.274a1.53 1.53 0 0 1 1.486-1.158h12.925c.703 0 1.315.478 1.486 1.158l1.822 7.274c.483 1.929-.979 3.798-2.972 3.798"/><path fill="#94A3B8" d="M195.146 126.391h.001a1.47 1.47 0 0 1-.001 2.078l-2.083 2.079-2.082-2.078a1.466 1.466 0 0 1 .002-2.076h.001a1.47 1.47 0 0 1 2.078-.001h.001a1.474 1.474 0 0 1 2.082-.002z"/></g><rect width="128" height="40" x="24.666" y="131" fill="#64748B" rx="20"/><circle cx="44.666" cy="151" r="14" fill="#fff"/><mask id="mask0_8012_10718" width="29" height="28" x="30" y="137" maskUnits="userSpaceOnUse" style="mask-type:alpha"><circle cx="44.666" cy="151" r="14" fill="#fff"/></mask><path fill="#94A3B8" d="m52.348 143.172-4.015-1.339a3.667 3.667 0 1 1-7.333 0l-4.015 1.339a1.83 1.83 0 0 0-1.228 2.044l.531 3.181a.92.92 0 0 0 .908.77h1.97v9.166c0 1.009.826 1.834 1.834 1.834h7.333a1.833 1.833 0 0 0 1.834-1.834v-9.166h1.97a.92.92 0 0 0 .908-.77l.532-3.181a1.83 1.83 0 0 0-1.229-2.044"/><rect width="58" height="4" x="64.666" y="141" fill="#F1F5F9" rx="2"/><rect width="24" height="4" x="64.666" y="149" fill="#74BCE4" rx="2"/><rect width="15" height="4" x="64.666" y="157" fill="#F1F5F9" rx="2"/><rect width="15" height="4" x="81.666" y="157" fill="#F1F5F9" rx="2"/><rect width="14" height="14.001" x="24.666" y="131" fill="#F59E0B" rx="7"/><path fill="#fff" d="M31.667 143.001a1.25 1.25 0 0 0 1.25-1.25h-2.5a1.25 1.25 0 0 0 1.25 1.25m.621-9.314a.624.624 0 1 0-1.243 0 3.13 3.13 0 0 0-2.504 3.064c0 .686-.312 3.75-1.25 4.375h8.75c-.937-.625-1.25-3.689-1.25-4.375a3.13 3.13 0 0 0-2.503-3.064"/><defs><linearGradient id="paint0_linear_8012_10718" x1="46.673" x2="46.673" y1="41" y2="97" gradientUnits="userSpaceOnUse"><stop stop-color="#CBD5E1"/><stop offset="1" stop-color="#94A3B8"/></linearGradient><clipPath id="clip0_8012_10718"><path fill="#fff" d="M18.667 41h56v56h-56z"/></clipPath></defs></svg>