<svg xmlns="http://www.w3.org/2000/svg" width="24" height="24" fill="none" viewBox="0 0 24 24"><path stroke="#000" stroke-linecap="round" stroke-linejoin="round" stroke-width="1.5" d="M13.598 9.355a3.053 3.053 0 0 0-3.682 4.803 3.05 3.05 0 0 0 3.684.485"/><path stroke="#000" stroke-linecap="round" stroke-linejoin="round" stroke-width="1.5" d="M17.659 17.931c.53.24 1.134.272 1.692.091a2.4 2.4 0 0 0 1.327-1.068 2.35 2.35 0 0 0 .271-1.673 2.3 2.3 0 0 0-.926-1.407M13.654 2.599A2.33 2.33 0 0 0 12.078 2a2.38 2.38 0 0 0-2.351 2.13 2.388 2.388 0 0 1-2.25 2.15 2.34 2.34 0 0 1-1.095-.21 2.35 2.35 0 0 0-1.693-.091 2.4 2.4 0 0 0-1.327 1.069 2.35 2.35 0 0 0-.27 1.673 2.3 2.3 0 0 0 .926 1.406 2.31 2.31 0 0 1 .99 1.916 2.36 2.36 0 0 1-.272 1.084c-.177.335-.431.624-.742.841a2.38 2.38 0 0 0-.938 1.417 2.313 2.313 0 0 0 1.563 2.72 2.36 2.36 0 0 0 1.691-.106c.343-.161.72-.238 1.097-.223s.744.12 1.07.306a2.31 2.31 0 0 1 1.156 1.817A2.313 2.313 0 0 0 11.96 22a2.38 2.38 0 0 0 2.352-2.127 2.387 2.387 0 0 1 2.25-2.15c.378-.02.753.053 1.095.21"/><path stroke="#000" stroke-linejoin="round" stroke-width="1.5" d="M14 6.678h2.054C16 12.593 12.725 14.22 11.5 15c3.012 0 7-2.5 7.37-8.322H21L17.67 2z"/></svg>