<svg width="33" height="32" viewBox="0 0 33 32" fill="none" xmlns="http://www.w3.org/2000/svg">
<path d="M3.00661 2.73341H5.67328L9.21994 19.2934C9.35005 19.8999 9.6875 20.442 10.1742 20.8266C10.6609 21.2111 11.2665 21.4139 11.8866 21.4001H24.9266C25.5335 21.3991 26.1219 21.1911 26.5946 20.8105C27.0674 20.4299 27.3961 19.8995 27.5266 19.3067L29.7266 9.40008H7.09994M29.6066 2.66675L2.93994 29.3334M12.2733 28.0001C12.2733 28.7365 11.6763 29.3334 10.9399 29.3334C10.2036 29.3334 9.60661 28.7365 9.60661 28.0001C9.60661 27.2637 10.2036 26.6667 10.9399 26.6667C11.6763 26.6667 12.2733 27.2637 12.2733 28.0001ZM26.9399 28.0001C26.9399 28.7365 26.343 29.3334 25.6066 29.3334C24.8702 29.3334 24.2733 28.7365 24.2733 28.0001C24.2733 27.2637 24.8702 26.6667 25.6066 26.6667C26.343 26.6667 26.9399 27.2637 26.9399 28.0001Z" stroke="#314158" stroke-width="1.5" stroke-linecap="round" stroke-linejoin="round"/>
</svg>
