<svg xmlns="http://www.w3.org/2000/svg" width="24" height="24" fill="none" viewBox="0 0 24 24"><path stroke="#000" stroke-linecap="round" stroke-linejoin="round" stroke-width="1.5" d="M9.66 4.122c.055-.58.326-1.12.758-1.512a2.356 2.356 0 0 1 3.165 0c.432.392.703.932.758 1.512a2.34 2.34 0 0 0 1.168 1.824 2.36 2.36 0 0 0 2.168.095 2.36 2.36 0 0 1 3.008.962c.292.504.385 1.098.262 1.667m-7.364 12.72a2.356 2.356 0 0 1-3.165 0 2.34 2.34 0 0 1-.758-1.512 2.34 2.34 0 0 0-1.168-1.825 2.36 2.36 0 0 0-2.169-.094 2.36 2.36 0 0 1-3.008-.962 2.34 2.34 0 0 1 .667-3.078 2.35 2.35 0 0 0 1-1.919 2.34 2.34 0 0 0-1-1.919 2.344 2.344 0 0 1-.665-3.077 2.358 2.358 0 0 1 3.006-.963 2.36 2.36 0 0 0 2.975-.864 2.34 2.34 0 0 0 .36-1.055"/><path stroke="#000" stroke-linecap="round" stroke-linejoin="round" stroke-width="1.5" d="M18 13.309c0 .286-.12.56-.335.762a1.18 1.18 0 0 1-.808.315H12.76a1.18 1.18 0 0 0-.808.316l-1.258 1.186a.43.43 0 0 1-.442.083.4.4 0 0 1-.183-.14.37.37 0 0 1-.068-.213v-5.54c0-.286.12-.56.335-.762A1.18 1.18 0 0 1 11.143 9h5.714c.303 0 .594.114.808.316s.335.476.335.761zM19.857 13c.303 0 .594.114.808.316.215.201.335.476.335.761v5.54c0 .076-.024.15-.068.213a.4.4 0 0 1-.182.14.43.43 0 0 1-.443-.082l-1.258-1.186a1.18 1.18 0 0 0-.808-.316h-4.098a1.18 1.18 0 0 1-.808-.315 1.05 1.05 0 0 1-.335-.762v-.539"/></svg>