<svg width="24" height="24" viewBox="0 0 24 24" fill="none" xmlns="http://www.w3.org/2000/svg">
<path d="M19.6384 21C19.6384 18.9961 18.8307 17.0744 17.393 15.6574C15.9553 14.2405 14.0054 13.4444 11.9722 13.4444M11.9722 13.4444C9.93901 13.4444 7.98909 14.2405 6.5514 15.6574C5.11371 17.0744 4.30603 18.9961 4.30603 21M11.9722 13.4444C14.6184 13.4444 16.7636 11.3302 16.7636 8.72222C16.7636 6.11421 14.6184 4 11.9722 4C9.32601 4 7.18084 6.11421 7.18084 8.72222C7.18084 11.3302 9.32601 13.4444 11.9722 13.4444ZM23 19.931C23 16.7482 21.0835 13.7921 19.1669 12.3754C19.7969 11.9096 20.3007 11.2979 20.6336 10.5945C20.9666 9.89102 21.1184 9.11754 21.0758 8.34246C21.0332 7.56739 20.7973 6.81462 20.3892 6.15078C19.981 5.48695 19.4131 4.93251 18.7357 4.53654M1 19.8667C1 16.6839 2.91655 13.7278 4.83309 12.3111C4.20311 11.8453 3.69934 11.2336 3.36639 10.5302C3.03344 9.82672 2.88156 9.05323 2.9242 8.27816C2.96683 7.50308 3.20267 6.75032 3.61084 6.08648C4.01901 5.42264 4.58692 4.86821 5.26432 4.47224" stroke="black" stroke-width="1.5" stroke-linecap="round" stroke-linejoin="round"/>
</svg>
