<svg xmlns="http://www.w3.org/2000/svg" width="287" height="194" fill="none" viewBox="0 0 287 194"><rect width="286" height="194" x=".333" fill="#fff" rx="8"/><rect width="262" height="172" x="12.334" y="11" fill="#F1F5F9" rx="4"/><path fill="#fff" stroke="#E2E8F0" stroke-width=".5" d="M20.334 41h70v134h-66a4 4 0 0 1-4-4zM20.334 23a4 4 0 0 1 4-4h237.999a4 4 0 0 1 4 4v18h-246zM90.334 41h176v134h-176z"/><path fill="#E2E8F0" d="M90.334 147h175.999v24a4 4 0 0 1-4 4h-172z"/><path fill="#64748B" d="M121.992 27.794v-1.521h7.168v1.521h-2.672V35h-1.824v-7.206zM130.306 35v-6.546h1.815V35zm.912-7.39a.99.99 0 0 1-.695-.268.87.87 0 0 1-.285-.652q0-.375.285-.643a.98.98 0 0 1 .695-.273q.405 0 .69.273.29.268.29.643 0 .38-.29.652a.97.97 0 0 1-.69.269m5.315 7.518q-1.006 0-1.73-.426a2.9 2.9 0 0 1-1.108-1.194q-.384-.762-.384-1.755 0-1.006.388-1.764a2.9 2.9 0 0 1 1.112-1.19q.72-.43 1.713-.43.856 0 1.5.311.644.312 1.019.874t.413 1.321h-1.713a1.32 1.32 0 0 0-.383-.788q-.307-.303-.806-.303-.422 0-.737.23-.31.225-.486.66-.174.435-.175 1.053 0 .627.171 1.066.175.438.49.669.315.23.737.23.312 0 .558-.128.252-.128.414-.37.166-.248.217-.593h1.713q-.042.75-.409 1.32a2.47 2.47 0 0 1-1.001.887q-.64.32-1.513.32m5.73-2.011.005-2.178h.264l2.096-2.485h2.084l-2.817 3.29h-.43zM140.618 35v-8.727h1.816V35zm4.091 0-1.926-2.85 1.21-1.283L146.836 35zm5.607.128q-1.01 0-1.738-.41a2.8 2.8 0 0 1-1.117-1.167q-.392-.759-.392-1.794 0-1.01.392-1.773a2.9 2.9 0 0 1 1.104-1.189q.716-.426 1.679-.426.648 0 1.206.21.563.203.98.617.422.413.656 1.04.235.622.235 1.457v.499h-5.527v-1.125h3.818q0-.392-.171-.695a1.2 1.2 0 0 0-.473-.473 1.35 1.35 0 0 0-.694-.175q-.414 0-.733.192a1.35 1.35 0 0 0-.495.507q-.179.316-.183.703v1.07q0 .486.179.84.183.353.516.545.332.192.788.192.303 0 .554-.086t.43-.255q.18-.17.273-.418l1.679.111q-.128.605-.524 1.057a2.6 2.6 0 0 1-1.014.699q-.618.246-1.428.247m7.671-6.674v1.364h-3.942v-1.364zm-3.047-1.568h1.815v6.103a.8.8 0 0 0 .077.392q.077.135.213.191a.9.9 0 0 0 .324.056q.127 0 .256-.022l.196-.038.285 1.351a5 5 0 0 1-.383.098q-.248.06-.601.072-.656.026-1.151-.174a1.6 1.6 0 0 1-.763-.622q-.272-.423-.268-1.066zm9.593 3.435-1.662.102a.85.85 0 0 0-.183-.383 1 1 0 0 0-.371-.277 1.26 1.26 0 0 0-.541-.107q-.421 0-.712.18-.29.174-.289.468 0 .234.187.396.188.162.644.26l1.184.239q.955.195 1.424.63t.468 1.143q0 .643-.379 1.129-.375.486-1.031.758-.652.27-1.504.269-1.3 0-2.071-.541a2.1 2.1 0 0 1-.9-1.483l1.786-.094a.92.92 0 0 0 .392.605q.31.204.797.205.477 0 .767-.184.294-.187.298-.481a.5.5 0 0 0-.209-.405q-.204-.162-.63-.247l-1.134-.226q-.959-.192-1.427-.665-.465-.473-.465-1.206 0-.63.341-1.086.345-.456.967-.704.627-.247 1.466-.247 1.24 0 1.952.524.716.525.835 1.428"/><rect width="164" height="16" x="96.334" y="153" fill="#fff" rx="2"/><path stroke="#94A3B8" stroke-linecap="round" stroke-linejoin="round" d="M106.333 157.5h3m-1.5-1.5v3m1 1.75v3.75a1 1 0 0 1-1 1h-7a1 1 0 0 1-1-1v-7a1 1 0 0 1 1-1h3.75m4.25 6-1.543-1.543a.996.996 0 0 0-1.414 0l-4.543 4.543m2.5-6a1 1 0 1 1-2 0 1 1 0 0 1 2 0"/><rect width="40" height="2" x="118.333" y="160" fill="#94A3B8" rx="1"/><path stroke="#64748B" stroke-linecap="round" stroke-linejoin="round" d="m249.597 161-1.264-4 8 4m-6.736 0-1.264 4 8-4m-6.736 0h6.736"/><path fill="#fff" d="M96.334 81h164v64h-164z"/><path fill="#E2E8F0" d="M114.333 93a6 6 0 1 1-12 0 6 6 0 0 1 12 0"/><mask id="mask0_8012_16816" width="13" height="12" x="102" y="87" maskUnits="userSpaceOnUse" style="mask-type:alpha"><path fill="#DFF3FF" d="M114.333 93a6 6 0 1 1-12 0 6 6 0 0 1 12 0"/></mask><g fill="#64748B" mask="url(#mask0_8012_16816)"><path d="M112.333 97.5a4 4 0 1 1-7.999.001 4 4 0 0 1 7.999-.001"/><path d="M110.333 91.5a2 2 0 1 1-4 0 2 2 0 0 1 4 0"/></g><path fill="#94A3B8" d="M120.333 91a4 4 0 0 1 4-4h58a2 2 0 0 1 2 2v8a2 2 0 0 1-2 2h-62z"/><path fill="#F1F5F9" d="M196.333 107a2 2 0 0 1 2-2h34a4 4 0 0 1 4 4v30h-38a2 2 0 0 1-2-2z"/><rect width="32" height="12" x="200.333" y="109" fill="#64748B" rx="2"/><rect width="32" height="2" x="200.333" y="127" fill="#64748B" rx="1"/><rect width="24" height="2" x="204.333" y="131" fill="#64748B" rx="1"/><path fill="#64748B" d="M254.333 133a6 6 0 1 0-12 0 6 6 0 0 0 12 0"/><path fill="#fff" d="M250.498 130.187a3.48 3.48 0 0 0-2.165-.749 3.46 3.46 0 0 0-1.734.459.03.03 0 0 0-.016.027v3.013a1.75 1.75 0 0 0 .7 1.4c.021.015.05 0 .05-.025v-1.375c0-.568.475-1.026 1.05-.999.537.026.95.49.95 1.028v1.345c0 .026.03.041.05.026a1.75 1.75 0 0 0 .7-1.399 1.75 1.75 0 0 0-1.75-1.75c-.351 0-.678.103-.952.281-.02.014-.048-.001-.048-.026v-1.045a.03.03 0 0 1 .02-.029 2.755 2.755 0 0 1 2.73.45 2.74 2.74 0 0 1 .897 2.869 2.76 2.76 0 0 1-.897 1.369 2.744 2.744 0 0 1-1.75.631h-1.613a.03.03 0 0 1-.022-.053l.267-.268c.015-.014.011-.039-.007-.049a2.6 2.6 0 0 1-.374-.261 2.7 2.7 0 0 1-.75-.973 2.734 2.734 0 0 1 0-2.29v-1.226c0-.028-.035-.043-.054-.022a3.48 3.48 0 0 0-.946 2.392 3.49 3.49 0 0 0 1.004 2.453v.044l-.95.949a.032.032 0 0 0 .022.054h3.424a3.5 3.5 0 0 0 2.165-.75q.327-.259.585-.585c.469-.595.75-1.347.75-2.165a3.49 3.49 0 0 0-1.335-2.749z"/><rect width="62" height="12" x="24.334" y="45" fill="#CBD5E1" rx="2"/><rect width="40" height="2" x="36.334" y="50" fill="#94A3B8" rx="1"/><rect width="30" height="2" x="36.334" y="47" fill="#94A3B8" rx="1"/><rect width="20" height="2" x="36.334" y="53" fill="#94A3B8" rx="1"/><path fill="#F8FAFC" d="M33.334 51a3 3 0 1 1-6 0 3 3 0 0 1 6 0"/><mask id="mask1_8012_16816" width="7" height="6" x="27" y="48" maskUnits="userSpaceOnUse" style="mask-type:alpha"><path fill="#DFF3FF" d="M33.334 51a3 3 0 1 1-6 0 3 3 0 0 1 6 0"/></mask><g fill="#64748B" mask="url(#mask1_8012_16816)"><path d="M32.334 53.25a2 2 0 1 1-4 0 2 2 0 0 1 4 0"/><path d="M31.334 50.25a1 1 0 1 1-2 0 1 1 0 0 1 2 0"/></g><rect width="62" height="12" x="24.334" y="61" fill="#F1F5F9" rx="2"/><rect width="40" height="2" x="36.334" y="66" fill="#CBD5E1" rx="1"/><rect width="30" height="2" x="36.334" y="63" fill="#CBD5E1" rx="1"/><rect width="20" height="2" x="36.334" y="69" fill="#CBD5E1" rx="1"/><path fill="#F8FAFC" d="M33.334 67a3 3 0 1 1-6 0 3 3 0 0 1 6 0"/><mask id="mask2_8012_16816" width="7" height="6" x="27" y="64" maskUnits="userSpaceOnUse" style="mask-type:alpha"><path fill="#DFF3FF" d="M33.334 67a3 3 0 1 1-6 0 3 3 0 0 1 6 0"/></mask><g fill="#CBD5E1" mask="url(#mask2_8012_16816)"><path d="M32.334 69.25a2 2 0 1 1-4 0 2 2 0 0 1 4 0"/><path d="M31.334 66.25a1 1 0 1 1-2 0 1 1 0 0 1 2 0"/></g><rect width="62" height="12" x="24.334" y="77" fill="#F1F5F9" rx="2"/><rect width="40" height="2" x="36.334" y="82" fill="#CBD5E1" rx="1"/><rect width="30" height="2" x="36.334" y="79" fill="#CBD5E1" rx="1"/><rect width="20" height="2" x="36.334" y="85" fill="#CBD5E1" rx="1"/><path fill="#F8FAFC" d="M33.334 83a3 3 0 1 1-6 0 3 3 0 0 1 6 0"/><mask id="mask3_8012_16816" width="7" height="6" x="27" y="80" maskUnits="userSpaceOnUse" style="mask-type:alpha"><path fill="#DFF3FF" d="M33.334 83a3 3 0 1 1-6 0 3 3 0 0 1 6 0"/></mask><g fill="#CBD5E1" mask="url(#mask3_8012_16816)"><path d="M32.334 85.25a2 2 0 1 1-4 0 2 2 0 0 1 4 0"/><path d="M31.334 82.25a1 1 0 1 1-2 0 1 1 0 0 1 2 0"/></g></svg>