<svg width="33" height="32" viewBox="0 0 33 32" fill="none" xmlns="http://www.w3.org/2000/svg">
<path d="M11 6.66675V9.24878M11 22.5821V25.3334M11 14.5821V17.2488M14.3333 17.5709L15.3324 17.1574M15.3324 14.6722L14.3333 14.2576M17.0902 12.9144L16.6756 11.9153M17.0902 18.9152L16.6756 19.9153M19.5754 12.9144L19.9899 11.9153M19.9888 19.9153L19.5754 18.9152M21.3332 14.6722L22.3333 14.2576M21.3332 17.1574L22.3333 17.5719M29.6667 12.0001C28.6058 12.0001 27.5884 12.4215 26.8382 13.1717C26.0881 13.9218 25.6667 14.9392 25.6667 16.0001C25.6667 17.0609 26.0881 18.0784 26.8382 18.8285C27.5884 19.5787 28.6058 20.0001 29.6667 20.0001V22.6667C29.6667 23.374 29.3857 24.0523 28.8856 24.5524C28.3855 25.0525 27.7072 25.3334 27 25.3334H5.66667C4.95942 25.3334 4.28115 25.0525 3.78105 24.5524C3.28095 24.0523 3 23.374 3 22.6667V20.0001C4.06087 20.0001 5.07828 19.5787 5.82843 18.8285C6.57857 18.0784 7 17.0609 7 16.0001C7 14.9392 6.57857 13.9218 5.82843 13.1717C5.07828 12.4215 4.06087 12.0001 3 12.0001V9.33341C3 8.62617 3.28095 7.94789 3.78105 7.4478C4.28115 6.9477 4.95942 6.66675 5.66667 6.66675H27C27.7072 6.66675 28.3855 6.9477 28.8856 7.4478C29.3857 7.94789 29.6667 8.62617 29.6667 9.33341V12.0001ZM21.58 15.9148C21.58 17.7082 20.1261 19.162 18.3328 19.162C16.5394 19.162 15.0856 17.7082 15.0856 15.9148C15.0856 14.1214 16.5394 12.6676 18.3328 12.6676C20.1261 12.6676 21.58 14.1214 21.58 15.9148Z" stroke="#314158" stroke-width="1.5" stroke-linecap="round" stroke-linejoin="round"/>
</svg>
