<svg width="24" height="24" viewBox="0 0 24 24" fill="none" xmlns="http://www.w3.org/2000/svg">
<path d="M8 5V6.93652M8 16.9365V19M8 10.9365V12.9365M10.5 13.1781L11.2493 12.868M11.2493 11.0041L10.5 10.6932M12.5676 9.68573L12.2567 8.93644M12.5676 14.1863L12.2567 14.9364M14.4315 9.68573L14.7424 8.93644M14.7416 14.9364L14.4315 14.1863M15.7499 11.0041L16.5 10.6932M15.7499 12.868L16.5 13.1789M22 9C21.2043 9 20.4413 9.31607 19.8787 9.87868C19.3161 10.4413 19 11.2044 19 12C19 12.7956 19.3161 13.5587 19.8787 14.1213C20.4413 14.6839 21.2043 15 22 15V17C22 17.5304 21.7893 18.0391 21.4142 18.4142C21.0391 18.7893 20.5304 19 20 19H4C3.46957 19 2.96086 18.7893 2.58579 18.4142C2.21071 18.0391 2 17.5304 2 17V15C2.79565 15 3.55871 14.6839 4.12132 14.1213C4.68393 13.5587 5 12.7956 5 12C5 11.2044 4.68393 10.4413 4.12132 9.87868C3.55871 9.31607 2.79565 9 2 9V7C2 6.46957 2.21071 5.96086 2.58579 5.58579C2.96086 5.21071 3.46957 5 4 5H20C20.5304 5 21.0391 5.21071 21.4142 5.58579C21.7893 5.96086 22 6.46957 22 7V9ZM15.935 11.936C15.935 13.2811 14.8446 14.3714 13.4996 14.3714C12.1545 14.3714 11.0642 13.2811 11.0642 11.936C11.0642 10.591 12.1545 9.50064 13.4996 9.50064C14.8446 9.50064 15.935 10.591 15.935 11.936Z" stroke="black" stroke-width="1.5" stroke-linecap="round" stroke-linejoin="round"/>
</svg>
