<svg width="32" height="32" viewBox="0 0 32 32" fill="none" xmlns="http://www.w3.org/2000/svg">
<path d="M18.6666 23.9999V7.99992C18.6666 7.29267 18.3857 6.6144 17.8856 6.1143C17.3855 5.6142 16.7072 5.33325 16 5.33325H14.6666M20 23.9999H12M20 23.9999C20 25.4727 21.1939 26.6666 22.6666 26.6666C24.1394 26.6666 25.3333 25.4727 25.3333 23.9999M20 23.9999C20 22.5272 21.1939 21.3333 22.6666 21.3333C24.1394 21.3333 25.3333 22.5272 25.3333 23.9999M12 23.9999C12 25.4727 10.8061 26.6666 9.33329 26.6666C7.86053 26.6666 6.66663 25.4727 6.66663 23.9999M12 23.9999C12 22.5272 10.8061 21.3333 9.33329 21.3333C7.86053 21.3333 6.66663 22.5272 6.66663 23.9999M25.3333 23.9999H28C28.3536 23.9999 28.6927 23.8594 28.9428 23.6094C29.1928 23.3593 29.3333 23.0202 29.3333 22.6666V17.7999C29.3315 17.4992 29.2282 17.2078 29.04 16.9733L24.4 11.1733C24.2758 11.0161 24.1178 10.889 23.9378 10.8013C23.7577 10.7135 23.5602 10.6675 23.36 10.6666H18.6666M2.66663 18.6666V22.6666C2.66663 23.0202 2.8071 23.3593 3.05715 23.6094C3.3072 23.8594 3.64634 23.9999 3.99996 23.9999H6.66663M13.3333 10.6667C13.3333 13.9954 9.64063 17.4621 8.40063 18.5327C8.28511 18.6196 8.14449 18.6666 7.99996 18.6666C7.85543 18.6666 7.71481 18.6196 7.59929 18.5327C6.35929 17.4621 2.66663 13.9954 2.66663 10.6667C2.66663 9.25215 3.22853 7.89558 4.22872 6.89537C5.22892 5.89516 6.58547 5.33325 7.99996 5.33325C9.41445 5.33325 10.771 5.89516 11.7712 6.89537C12.7714 7.89558 13.3333 9.25215 13.3333 10.6667ZM9.99996 10.6667C9.99996 11.7712 9.10453 12.6667 7.99996 12.6667C6.89539 12.6667 5.99996 11.7712 5.99996 10.6667C5.99996 9.56207 6.89539 8.66663 7.99996 8.66663C9.10453 8.66663 9.99996 9.56207 9.99996 10.6667Z" stroke="#314158" stroke-width="1.5" stroke-linecap="round" stroke-linejoin="round"/>
</svg>
