<svg xmlns="http://www.w3.org/2000/svg" width="28" height="28" fill="none" viewBox="0 0 28 28"><path fill="#1A9DFF" d="M22.289 3.524a13.297 13.297 0 0 0-8.26-2.857c-2.432 0-4.664.635-6.617 1.75a.12.12 0 0 0-.06.104V14a6.672 6.672 0 0 0 2.67 5.336.12.12 0 0 0 .192-.098V14a3.816 3.816 0 0 1 4.003-3.805c2.05.098 3.627 1.864 3.627 3.915v5.126c0 .097.112.154.19.097a6.67 6.67 0 0 0 2.027-2.473 6.652 6.652 0 0 0-2.217-8.326 6.63 6.63 0 0 0-3.815-1.198c-1.34 0-2.587.393-3.631 1.071a.118.118 0 0 1-.184-.098V4.326a.12.12 0 0 1 .076-.112 10.5 10.5 0 0 1 3.739-.685c1.316 0 2.632.254 3.815.716 1.044.41 2.01.981 2.861 1.686a10.45 10.45 0 0 1 3.815 8.074c0 .99-.138 1.947-.396 2.857a10.5 10.5 0 0 1-3.419 5.217 10.5 10.5 0 0 1-2.861 1.685c-1.183.462-2.47.717-3.815.717H7.872a.118.118 0 0 1-.083-.203l1.02-1.018a.117.117 0 0 0-.026-.186q-.758-.436-1.428-.996a10.561 10.561 0 0 1-2.861-3.71 10 10 0 0 1-.558-1.506 10.47 10.47 0 0 1 .558-7.217V4.974c0-.107-.134-.162-.208-.084A13.26 13.26 0 0 0 .68 14.005a13.27 13.27 0 0 0 3.829 9.345v.167L.884 27.136a.119.119 0 0 0 .083.202h13.064a13.3 13.3 0 0 0 8.26-2.857c.83-.653 1.578-1.4 2.232-2.226a13.27 13.27 0 0 0 2.86-8.25c0-4.25-1.99-8.036-5.092-10.476z"/></svg>
